<svg width="23" height="22" viewBox="0 0 23 22" fill="none" xmlns="http://www.w3.org/2000/svg">
<path d="M17.1111 11.5457C17.1025 9.96875 17.8158 8.77852 19.2596 7.90195C18.4518 6.74609 17.2314 6.11016 15.6201 5.98555C14.0947 5.86523 12.4275 6.875 11.8174 6.875C11.1729 6.875 9.69473 6.02852 8.53457 6.02852C6.13691 6.06719 3.58887 7.94063 3.58887 11.752C3.58887 12.8777 3.79512 14.0408 4.20762 15.241C4.75762 16.818 6.74277 20.6852 8.81387 20.6207C9.89668 20.5949 10.6615 19.8516 12.0709 19.8516C13.4373 19.8516 14.1463 20.6207 15.3537 20.6207C17.442 20.5906 19.2381 17.0758 19.7623 15.4945C16.9607 14.1754 17.1111 11.6273 17.1111 11.5457ZM14.6791 4.49023C15.8521 3.09805 15.7447 1.83047 15.7104 1.375C14.6748 1.43516 13.476 2.07969 12.7928 2.87461C12.0408 3.72539 11.5982 4.77813 11.6928 5.96406C12.8143 6.05 13.8369 5.47422 14.6791 4.49023Z" fill="black"/>
</svg>
