<svg width="25" height="24" viewBox="0 0 25 24" fill="none" xmlns="http://www.w3.org/2000/svg">
<g clip-path="url(#clip0_215_905)">
<path d="M20.2621 22.873C19.4239 22.873 18.6045 22.6245 17.9075 22.1588C17.2105 21.6931 16.6673 21.0312 16.3465 20.2568C16.0258 19.4823 15.9418 18.6302 16.1054 17.8081C16.2689 16.9859 16.6725 16.2308 17.2653 15.6381C17.858 15.0453 18.6131 14.6417 19.4353 14.4782C20.2574 14.3146 21.1095 14.3986 21.884 14.7193C22.6584 15.0401 23.3203 15.5833 23.786 16.2803C24.2517 16.9773 24.5002 17.7967 24.5002 18.6349C24.499 19.7585 24.0521 20.8358 23.2575 21.6303C22.463 22.4249 21.3857 22.8718 20.2621 22.873V22.873ZM20.2621 15.3342C19.6093 15.3342 18.9711 15.5278 18.4283 15.8905C17.8855 16.2532 17.4625 16.7687 17.2127 17.3718C16.9629 17.9749 16.8975 18.6385 17.0248 19.2788C17.1522 19.9191 17.4666 20.5072 17.9282 20.9688C18.3898 21.4304 18.9779 21.7448 19.6182 21.8721C20.2584 21.9995 20.9221 21.9341 21.5252 21.6843C22.1283 21.4345 22.6438 21.0114 23.0065 20.4686C23.3692 19.9258 23.5627 19.2877 23.5627 18.6349C23.5617 17.7598 23.2137 16.9208 22.5949 16.3021C21.9761 15.6833 21.1372 15.3352 20.2621 15.3342V15.3342Z" fill="#2E323E"/>
<path d="M20.262 19.1036C20.1377 19.1036 20.0185 19.0542 19.9306 18.9664L18.0418 17.0776C17.9557 16.9893 17.9079 16.8707 17.9087 16.7474C17.9095 16.6241 17.9588 16.5061 18.046 16.4189C18.1332 16.3317 18.2512 16.2824 18.3745 16.2816C18.4978 16.2809 18.6164 16.3287 18.7047 16.4148L20.402 18.1116L21.389 17.8472C21.5091 17.815 21.6371 17.8318 21.7448 17.894C21.8524 17.9562 21.931 18.0586 21.9632 18.1787C21.9953 18.2988 21.9785 18.4267 21.9163 18.5344C21.8541 18.6421 21.7518 18.7206 21.6317 18.7528L20.3833 19.0875C20.3437 19.0981 20.3029 19.1035 20.262 19.1036V19.1036Z" fill="#2E323E"/>
<path d="M21.6932 7.19292H0.96875C0.84443 7.19292 0.725201 7.14354 0.637294 7.05563C0.549386 6.96772 0.5 6.84849 0.5 6.72417V4.20361C0.500447 3.79938 0.661223 3.41184 0.947055 3.12601C1.23289 2.84018 1.62043 2.6794 2.02466 2.67896H3.503C3.62732 2.67896 3.74655 2.72834 3.83446 2.81625C3.92236 2.90416 3.97175 3.02338 3.97175 3.14771C3.97175 3.27203 3.92236 3.39125 3.83446 3.47916C3.74655 3.56707 3.62732 3.61646 3.503 3.61646H2.02466C1.86899 3.61665 1.71976 3.67858 1.60969 3.78865C1.49962 3.89872 1.4377 4.04795 1.4375 4.20361V6.25542H21.2245V4.20361C21.2243 4.04795 21.1623 3.89872 21.0523 3.78865C20.9422 3.67858 20.793 3.61665 20.6373 3.61646H19.1589C19.0346 3.61646 18.9153 3.56707 18.8274 3.47916C18.7395 3.39125 18.6901 3.27203 18.6901 3.14771C18.6901 3.02338 18.7395 2.90416 18.8274 2.81625C18.9153 2.72834 19.0346 2.67896 19.1589 2.67896H20.6375C21.0417 2.6794 21.4293 2.84018 21.7151 3.12601C22.0009 3.41184 22.1617 3.79938 22.1622 4.20361V6.72417C22.1622 6.78575 22.15 6.84672 22.1265 6.9036C22.1029 6.96048 22.0683 7.01217 22.0248 7.0557C21.9812 7.09923 21.9296 7.13375 21.8727 7.1573C21.8158 7.18084 21.7548 7.19295 21.6932 7.19292V7.19292Z" fill="#2E323E"/>
<path d="M17.3702 3.61646H14.5366C14.4123 3.61646 14.2931 3.56707 14.2052 3.47916C14.1173 3.39125 14.0679 3.27203 14.0679 3.14771C14.0679 3.02338 14.1173 2.90416 14.2052 2.81625C14.2931 2.72834 14.4123 2.67896 14.5366 2.67896H17.3702C17.4945 2.67896 17.6138 2.72834 17.7017 2.81625C17.7896 2.90416 17.839 3.02338 17.839 3.14771C17.839 3.27203 17.7896 3.39125 17.7017 3.47916C17.6138 3.56707 17.4945 3.61646 17.3702 3.61646V3.61646Z" fill="#2E323E"/>
<path d="M12.7478 3.61646H9.91406C9.78974 3.61646 9.67051 3.56707 9.58261 3.47916C9.4947 3.39125 9.44531 3.27203 9.44531 3.14771C9.44531 3.02338 9.4947 2.90416 9.58261 2.81625C9.67051 2.72834 9.78974 2.67896 9.91406 2.67896H12.7478C12.8722 2.67896 12.9914 2.72834 13.0793 2.81625C13.1672 2.90416 13.2166 3.02338 13.2166 3.14771C13.2166 3.27203 13.1672 3.39125 13.0793 3.47916C12.9914 3.56707 12.8722 3.61646 12.7478 3.61646Z" fill="#2E323E"/>
<path d="M8.12568 3.61646H5.29199C5.16767 3.61646 5.04844 3.56707 4.96054 3.47916C4.87263 3.39125 4.82324 3.27203 4.82324 3.14771C4.82324 3.02338 4.87263 2.90416 4.96054 2.81625C5.04844 2.72834 5.16767 2.67896 5.29199 2.67896H8.12568C8.25 2.67896 8.36923 2.72834 8.45714 2.81625C8.54504 2.90416 8.59443 3.02338 8.59443 3.14771C8.59443 3.27203 8.54504 3.39125 8.45714 3.47916C8.36923 3.56707 8.25 3.61646 8.12568 3.61646Z" fill="#2E323E"/>
<path d="M15.0745 20.404H2.02466C1.62043 20.4035 1.23289 20.2427 0.947055 19.9569C0.661223 19.6711 0.500447 19.2835 0.5 18.8793L0.5 6.72424C0.5 6.59992 0.549386 6.48069 0.637294 6.39279C0.725201 6.30488 0.84443 6.25549 0.96875 6.25549H21.6932C21.8175 6.25549 21.9368 6.30488 22.0247 6.39279C22.1126 6.48069 22.162 6.59992 22.162 6.72424V13.8438C22.162 13.9681 22.1126 14.0874 22.0247 14.1753C21.9368 14.2632 21.8175 14.3126 21.6932 14.3126C21.5689 14.3126 21.4497 14.2632 21.3618 14.1753C21.2739 14.0874 21.2245 13.9681 21.2245 13.8438V7.19299H1.4375V18.8793C1.4377 19.035 1.49962 19.1842 1.60969 19.2943C1.71976 19.4043 1.86899 19.4663 2.02466 19.4665H15.0747C15.199 19.4665 15.3182 19.5158 15.4061 19.6038C15.494 19.6917 15.5434 19.8109 15.5434 19.9352C15.5434 20.0595 15.494 20.1788 15.4061 20.2667C15.3182 20.3546 15.199 20.404 15.0747 20.404H15.0745Z" fill="#2E323E"/>
<path d="M4.77784 5.16849H4.01677C3.75626 5.16821 3.50649 5.0646 3.32228 4.88039C3.13806 4.69618 3.03445 4.44641 3.03418 4.18589C3.03418 4.06157 3.08357 3.94235 3.17147 3.85444C3.25938 3.76653 3.37861 3.71714 3.50293 3.71714C3.62725 3.71714 3.74648 3.76653 3.83439 3.85444C3.92229 3.94235 3.97168 4.06157 3.97168 4.18589C3.9717 4.19785 3.97646 4.2093 3.98491 4.21775C3.99337 4.2262 4.00482 4.23096 4.01677 4.23099H4.77784C4.78979 4.23096 4.80124 4.2262 4.80969 4.21775C4.81815 4.2093 4.8229 4.19785 4.82293 4.18589V2.10933C4.8229 2.09739 4.81814 2.08594 4.80969 2.07751C4.80123 2.06907 4.78978 2.06433 4.77784 2.06433H4.01677C4.00483 2.06433 3.99337 2.06907 3.98492 2.07751C3.97647 2.08594 3.9717 2.09739 3.97168 2.10933C3.97168 2.23365 3.92229 2.35288 3.83439 2.44079C3.74648 2.5287 3.62725 2.57808 3.50293 2.57808C3.37861 2.57808 3.25938 2.5287 3.17147 2.44079C3.08357 2.35288 3.03418 2.23365 3.03418 2.10933C3.03448 1.84883 3.1381 1.59909 3.32231 1.41489C3.50652 1.2307 3.75627 1.1271 4.01677 1.12683H4.77784C5.03834 1.1271 5.28809 1.2307 5.4723 1.41489C5.65651 1.59909 5.76013 1.84883 5.76043 2.10933V4.18589C5.76013 4.4464 5.65651 4.69616 5.47231 4.88036C5.2881 5.06457 5.03834 5.16819 4.77784 5.16849V5.16849Z" fill="#2E323E"/>
<path d="M9.40039 5.16849H8.63924C8.37874 5.16819 8.12899 5.06457 7.9448 4.88036C7.76061 4.69615 7.65701 4.44639 7.65674 4.18589C7.65674 4.06157 7.70612 3.94235 7.79403 3.85444C7.88194 3.76653 8.00117 3.71714 8.12549 3.71714C8.24981 3.71714 8.36904 3.76653 8.45694 3.85444C8.54485 3.94235 8.59424 4.06157 8.59424 4.18589C8.59426 4.19783 8.59901 4.20927 8.60744 4.21772C8.61587 4.22617 8.6273 4.23094 8.63924 4.23099H9.40039C9.41233 4.23094 9.42376 4.22617 9.43219 4.21772C9.44062 4.20927 9.44537 4.19783 9.44539 4.18589V2.10933C9.44537 2.0974 9.44062 2.08597 9.43219 2.07754C9.42375 2.0691 9.41232 2.06436 9.40039 2.06433H8.63924C8.62731 2.06436 8.61588 2.0691 8.60745 2.07754C8.59901 2.08597 8.59426 2.0974 8.59424 2.10933C8.59424 2.17089 8.58211 2.23184 8.55856 2.28871C8.535 2.34559 8.50047 2.39726 8.45694 2.44079C8.41342 2.48431 8.36174 2.51884 8.30487 2.5424C8.248 2.56596 8.18705 2.57808 8.12549 2.57808C8.06393 2.57808 8.00298 2.56596 7.94611 2.5424C7.88923 2.51884 7.83756 2.48431 7.79403 2.44079C7.7505 2.39726 7.71598 2.34559 7.69242 2.28871C7.66886 2.23184 7.65674 2.17089 7.65674 2.10933C7.65701 1.84884 7.76061 1.5991 7.94481 1.4149C8.129 1.2307 8.37875 1.1271 8.63924 1.12683H9.40039C9.66089 1.1271 9.91063 1.2307 10.0948 1.4149C10.279 1.5991 10.3826 1.84884 10.3829 2.10933V4.18589C10.3826 4.44639 10.279 4.69615 10.0948 4.88036C9.91064 5.06457 9.66089 5.16819 9.40039 5.16849Z" fill="#2E323E"/>
<path d="M14.0229 5.16849H13.2618C13.0013 5.16819 12.7516 5.06457 12.5674 4.88036C12.3832 4.69615 12.2796 4.44639 12.2793 4.18589C12.2793 4.06157 12.3287 3.94235 12.4166 3.85444C12.5045 3.76653 12.6237 3.71714 12.748 3.71714C12.8724 3.71714 12.9916 3.76653 13.0795 3.85444C13.1674 3.94235 13.2168 4.06157 13.2168 4.18589C13.2168 4.19784 13.2215 4.20929 13.23 4.21775C13.2384 4.2262 13.2499 4.23096 13.2618 4.23099H14.0229C14.0348 4.23096 14.0463 4.2262 14.0547 4.21775C14.0632 4.2093 14.0679 4.19785 14.068 4.18589V2.10933C14.0679 2.09739 14.0632 2.08594 14.0547 2.07751C14.0463 2.06907 14.0348 2.06433 14.0229 2.06433H13.2618C13.2499 2.06433 13.2384 2.06907 13.23 2.07751C13.2215 2.08595 13.2168 2.0974 13.2168 2.10933C13.2168 2.23365 13.1674 2.35288 13.0795 2.44079C12.9916 2.5287 12.8724 2.57808 12.748 2.57808C12.6237 2.57808 12.5045 2.5287 12.4166 2.44079C12.3287 2.35288 12.2793 2.23365 12.2793 2.10933C12.2796 1.84884 12.3832 1.5991 12.5674 1.4149C12.7516 1.2307 13.0013 1.1271 13.2618 1.12683H14.0229C14.2834 1.1271 14.5331 1.2307 14.7173 1.41489C14.9015 1.59909 15.0052 1.84883 15.0055 2.10933V4.18589C15.0052 4.4464 14.9015 4.69616 14.7173 4.88036C14.5331 5.06457 14.2834 5.16819 14.0229 5.16849V5.16849Z" fill="#2E323E"/>
<path d="M18.645 5.16849H17.884C17.6234 5.16821 17.3737 5.0646 17.1895 4.88039C17.0053 4.69618 16.9016 4.44641 16.9014 4.18589C16.9014 4.06157 16.9508 3.94235 17.0387 3.85444C17.1266 3.76653 17.2458 3.71714 17.3701 3.71714C17.4944 3.71714 17.6137 3.76653 17.7016 3.85444C17.7895 3.94235 17.8389 4.06157 17.8389 4.18589C17.8389 4.19785 17.8437 4.2093 17.8521 4.21775C17.8606 4.2262 17.872 4.23096 17.884 4.23099H18.645C18.6509 4.23099 18.6568 4.22982 18.6623 4.22756C18.6678 4.22529 18.6727 4.22197 18.6769 4.21778C18.6811 4.21359 18.6844 4.20862 18.6867 4.20315C18.689 4.19768 18.6901 4.19182 18.6901 4.18589V2.10933C18.6901 2.10341 18.689 2.09755 18.6867 2.09209C18.6844 2.08662 18.6811 2.08166 18.6769 2.07748C18.6727 2.0733 18.6677 2.06999 18.6623 2.06773C18.6568 2.06547 18.6509 2.06432 18.645 2.06433H17.884C17.872 2.06433 17.8606 2.06907 17.8521 2.07751C17.8437 2.08594 17.8389 2.09739 17.8389 2.10933C17.8389 2.23365 17.7895 2.35288 17.7016 2.44079C17.6137 2.5287 17.4944 2.57808 17.3701 2.57808C17.2458 2.57808 17.1266 2.5287 17.0387 2.44079C16.9508 2.35288 16.9014 2.23365 16.9014 2.10933C16.9017 1.84883 17.0053 1.59909 17.1895 1.41489C17.3737 1.2307 17.6235 1.1271 17.884 1.12683H18.645C18.9055 1.1271 19.1553 1.2307 19.3395 1.41489C19.5237 1.59909 19.6273 1.84883 19.6276 2.10933V4.18589C19.6273 4.4464 19.5237 4.69616 19.3395 4.88036C19.1553 5.06457 18.9055 5.16819 18.645 5.16849V5.16849Z" fill="#2E323E"/>
<path d="M5.29168 10.3821H3.50293C3.37861 10.3821 3.25938 10.3327 3.17147 10.2448C3.08357 10.1569 3.03418 10.0377 3.03418 9.91333C3.03418 9.78901 3.08357 9.66978 3.17147 9.58187C3.25938 9.49397 3.37861 9.44458 3.50293 9.44458H5.29168C5.416 9.44458 5.53523 9.49397 5.62314 9.58187C5.71104 9.66978 5.76043 9.78901 5.76043 9.91333C5.76043 10.0377 5.71104 10.1569 5.62314 10.2448C5.53523 10.3327 5.416 10.3821 5.29168 10.3821V10.3821Z" fill="#2E323E"/>
<path d="M9.91414 10.3821H8.12549C8.00117 10.3821 7.88194 10.3327 7.79403 10.2448C7.70612 10.1569 7.65674 10.0377 7.65674 9.91333C7.65674 9.78901 7.70612 9.66978 7.79403 9.58187C7.88194 9.49397 8.00117 9.44458 8.12549 9.44458H9.91414C10.0385 9.44458 10.1577 9.49397 10.2456 9.58187C10.3335 9.66978 10.3829 9.78901 10.3829 9.91333C10.3829 10.0377 10.3335 10.1569 10.2456 10.2448C10.1577 10.3327 10.0385 10.3821 9.91414 10.3821V10.3821Z" fill="#2E323E"/>
<path d="M14.5367 10.3821H12.748C12.6237 10.3821 12.5045 10.3327 12.4166 10.2448C12.3287 10.1569 12.2793 10.0377 12.2793 9.91333C12.2793 9.78901 12.3287 9.66978 12.4166 9.58187C12.5045 9.49397 12.6237 9.44458 12.748 9.44458H14.5367C14.661 9.44458 14.7803 9.49397 14.8682 9.58187C14.9561 9.66978 15.0055 9.78901 15.0055 9.91333C15.0055 10.0377 14.9561 10.1569 14.8682 10.2448C14.7803 10.3327 14.661 10.3821 14.5367 10.3821V10.3821Z" fill="#2E323E"/>
<path d="M19.1589 10.3821H17.3701C17.2458 10.3821 17.1266 10.3327 17.0387 10.2448C16.9508 10.1569 16.9014 10.0377 16.9014 9.91333C16.9014 9.78901 16.9508 9.66978 17.0387 9.58187C17.1266 9.49397 17.2458 9.44458 17.3701 9.44458H19.1589C19.2832 9.44458 19.4024 9.49397 19.4903 9.58187C19.5782 9.66978 19.6276 9.78901 19.6276 9.91333C19.6276 10.0377 19.5782 10.1569 19.4903 10.2448C19.4024 10.3327 19.2832 10.3821 19.1589 10.3821V10.3821Z" fill="#2E323E"/>
<path d="M5.29168 13.7985H3.50293C3.37861 13.7985 3.25938 13.7491 3.17147 13.6612C3.08357 13.5733 3.03418 13.454 3.03418 13.3297C3.03418 13.2054 3.08357 13.0862 3.17147 12.9983C3.25938 12.9103 3.37861 12.861 3.50293 12.861H5.29168C5.416 12.861 5.53523 12.9103 5.62314 12.9983C5.71104 13.0862 5.76043 13.2054 5.76043 13.3297C5.76043 13.454 5.71104 13.5733 5.62314 13.6612C5.53523 13.7491 5.416 13.7985 5.29168 13.7985V13.7985Z" fill="#2E323E"/>
<path d="M9.91414 13.7985H8.12549C8.00117 13.7985 7.88194 13.7491 7.79403 13.6612C7.70612 13.5733 7.65674 13.454 7.65674 13.3297C7.65674 13.2054 7.70612 13.0862 7.79403 12.9983C7.88194 12.9103 8.00117 12.861 8.12549 12.861H9.91414C10.0385 12.861 10.1577 12.9103 10.2456 12.9983C10.3335 13.0862 10.3829 13.2054 10.3829 13.3297C10.3829 13.454 10.3335 13.5733 10.2456 13.6612C10.1577 13.7491 10.0385 13.7985 9.91414 13.7985V13.7985Z" fill="#2E323E"/>
<path d="M14.5367 13.7985H12.748C12.6237 13.7985 12.5045 13.7491 12.4166 13.6612C12.3287 13.5733 12.2793 13.454 12.2793 13.3297C12.2793 13.2054 12.3287 13.0862 12.4166 12.9983C12.5045 12.9103 12.6237 12.861 12.748 12.861H14.5367C14.661 12.861 14.7803 12.9103 14.8682 12.9983C14.9561 13.0862 15.0055 13.2054 15.0055 13.3297C15.0055 13.454 14.9561 13.5733 14.8682 13.6612C14.7803 13.7491 14.661 13.7985 14.5367 13.7985V13.7985Z" fill="#2E323E"/>
<path d="M19.1589 13.7985H17.3701C17.2458 13.7985 17.1266 13.7491 17.0387 13.6612C16.9508 13.5733 16.9014 13.454 16.9014 13.3297C16.9014 13.2054 16.9508 13.0862 17.0387 12.9983C17.1266 12.9103 17.2458 12.861 17.3701 12.861H19.1589C19.2832 12.861 19.4024 12.9103 19.4903 12.9983C19.5782 13.0862 19.6276 13.2054 19.6276 13.3297C19.6276 13.454 19.5782 13.5733 19.4903 13.6612C19.4024 13.7491 19.2832 13.7985 19.1589 13.7985V13.7985Z" fill="#2E323E"/>
<path d="M5.29168 17.2147H3.50293C3.37861 17.2147 3.25938 17.1653 3.17147 17.0774C3.08357 16.9895 3.03418 16.8703 3.03418 16.746C3.03418 16.6217 3.08357 16.5024 3.17147 16.4145C3.25938 16.3266 3.37861 16.2772 3.50293 16.2772H5.29168C5.416 16.2772 5.53523 16.3266 5.62314 16.4145C5.71104 16.5024 5.76043 16.6217 5.76043 16.746C5.76043 16.8703 5.71104 16.9895 5.62314 17.0774C5.53523 17.1653 5.416 17.2147 5.29168 17.2147V17.2147Z" fill="#2E323E"/>
<path d="M9.91414 17.2147H8.12549C8.00117 17.2147 7.88194 17.1653 7.79403 17.0774C7.70612 16.9895 7.65674 16.8703 7.65674 16.746C7.65674 16.6217 7.70612 16.5024 7.79403 16.4145C7.88194 16.3266 8.00117 16.2772 8.12549 16.2772H9.91414C10.0385 16.2772 10.1577 16.3266 10.2456 16.4145C10.3335 16.5024 10.3829 16.6217 10.3829 16.746C10.3829 16.8703 10.3335 16.9895 10.2456 17.0774C10.1577 17.1653 10.0385 17.2147 9.91414 17.2147V17.2147Z" fill="#2E323E"/>
<path d="M14.5367 17.2147H12.748C12.6237 17.2147 12.5045 17.1653 12.4166 17.0774C12.3287 16.9895 12.2793 16.8703 12.2793 16.746C12.2793 16.6217 12.3287 16.5024 12.4166 16.4145C12.5045 16.3266 12.6237 16.2772 12.748 16.2772H14.5367C14.661 16.2772 14.7803 16.3266 14.8682 16.4145C14.9561 16.5024 15.0055 16.6217 15.0055 16.746C15.0055 16.8703 14.9561 16.9895 14.8682 17.0774C14.7803 17.1653 14.661 17.2147 14.5367 17.2147V17.2147Z" fill="#2E323E"/>
</g>
<defs>
<clipPath id="clip0_215_905">
<rect width="24" height="24" fill="white" transform="translate(0.5)"/>
</clipPath>
</defs>
</svg>
