<svg width="25" height="24" viewBox="0 0 25 24" fill="none" xmlns="http://www.w3.org/2000/svg">
<g clip-path="url(#clip0_1684_4108)">
<path d="M20.2616 22.873C19.4234 22.873 18.604 22.6245 17.907 22.1588C17.21 21.6931 16.6668 21.0312 16.346 20.2567C16.0253 19.4823 15.9413 18.6302 16.1049 17.808C16.2684 16.9859 16.6721 16.2308 17.2648 15.638C17.8575 15.0453 18.6127 14.6417 19.4348 14.4782C20.2569 14.3146 21.109 14.3985 21.8835 14.7193C22.6579 15.0401 23.3198 15.5833 23.7855 16.2803C24.2512 16.9772 24.4998 17.7966 24.4998 18.6349C24.4985 19.7585 24.0516 20.8358 23.2571 21.6303C22.4625 22.4249 21.3852 22.8718 20.2616 22.873ZM20.2616 15.3342C19.6088 15.3342 18.9706 15.5278 18.4278 15.8905C17.8851 16.2532 17.462 16.7686 17.2122 17.3718C16.9624 17.9749 16.897 18.6385 17.0244 19.2788C17.1517 19.9191 17.4661 20.5072 17.9277 20.9688C18.3893 21.4304 18.9774 21.7447 19.6177 21.8721C20.2579 21.9995 20.9216 21.9341 21.5247 21.6843C22.1278 21.4345 22.6433 21.0114 23.006 20.4686C23.3687 19.9258 23.5623 19.2877 23.5623 18.6349C23.5613 17.7598 23.2132 16.9208 22.5944 16.3021C21.9756 15.6833 21.1367 15.3352 20.2616 15.3342Z" fill="#2E323E"/>
<path d="M20.2615 19.1036C20.1372 19.1036 20.018 19.0543 19.9301 18.9664L18.0413 17.0776C17.9552 16.9893 17.9074 16.8707 17.9082 16.7474C17.909 16.6241 17.9583 16.5061 18.0455 16.4189C18.1327 16.3317 18.2507 16.2824 18.374 16.2817C18.4973 16.2809 18.6159 16.3287 18.7042 16.4148L20.4016 18.1117L21.3886 17.8472C21.5086 17.815 21.6366 17.8319 21.7443 17.894C21.8519 17.9562 21.9305 18.0586 21.9627 18.1787C21.9948 18.2988 21.978 18.4267 21.9158 18.5344C21.8537 18.6421 21.7513 18.7206 21.6312 18.7528L20.3828 19.0875C20.3432 19.0981 20.3025 19.1036 20.2615 19.1036Z" fill="#2E323E"/>
<path d="M21.6932 7.19297H0.96875C0.84443 7.19297 0.725201 7.14358 0.637294 7.05568C0.549386 6.96777 0.5 6.84854 0.5 6.72422V4.20366C0.500447 3.79943 0.661223 3.41189 0.947055 3.12606C1.23289 2.84022 1.62043 2.67945 2.02466 2.679H3.503C3.62732 2.679 3.74655 2.72839 3.83446 2.81629C3.92236 2.9042 3.97175 3.02343 3.97175 3.14775C3.97175 3.27207 3.92236 3.3913 3.83446 3.47921C3.74655 3.56711 3.62732 3.6165 3.503 3.6165H2.02466C1.86899 3.6167 1.71976 3.67862 1.60969 3.78869C1.49962 3.89876 1.4377 4.04799 1.4375 4.20366V6.25547H21.2245V4.20366C21.2243 4.04799 21.1623 3.89876 21.0523 3.78869C20.9422 3.67862 20.793 3.6167 20.6373 3.6165H19.1589C19.0346 3.6165 18.9153 3.56711 18.8274 3.47921C18.7395 3.3913 18.6901 3.27207 18.6901 3.14775C18.6901 3.02343 18.7395 2.9042 18.8274 2.81629C18.9153 2.72839 19.0346 2.679 19.1589 2.679H20.6375C21.0417 2.67945 21.4293 2.84022 21.7151 3.12606C22.0009 3.41189 22.1617 3.79943 22.1622 4.20366V6.72422C22.1622 6.78579 22.15 6.84676 22.1265 6.90365C22.1029 6.96053 22.0683 7.01221 22.0248 7.05574C21.9812 7.09927 21.9296 7.1338 21.8727 7.15734C21.8158 7.18089 21.7548 7.19299 21.6932 7.19297Z" fill="#2E323E"/>
<path d="M17.3707 3.6165H14.5371C14.4128 3.6165 14.2936 3.56711 14.2057 3.47921C14.1177 3.3913 14.0684 3.27207 14.0684 3.14775C14.0684 3.02343 14.1177 2.9042 14.2057 2.81629C14.2936 2.72839 14.4128 2.679 14.5371 2.679H17.3707C17.495 2.679 17.6143 2.72839 17.7022 2.81629C17.7901 2.9042 17.8395 3.02343 17.8395 3.14775C17.8395 3.27207 17.7901 3.3913 17.7022 3.47921C17.6143 3.56711 17.495 3.6165 17.3707 3.6165Z" fill="#2E323E"/>
<path d="M12.7478 3.6165H9.91406C9.78974 3.6165 9.67051 3.56711 9.58261 3.47921C9.4947 3.3913 9.44531 3.27207 9.44531 3.14775C9.44531 3.02343 9.4947 2.9042 9.58261 2.81629C9.67051 2.72839 9.78974 2.679 9.91406 2.679H12.7478C12.8722 2.679 12.9914 2.72839 13.0793 2.81629C13.1672 2.9042 13.2166 3.02343 13.2166 3.14775C13.2166 3.27207 13.1672 3.3913 13.0793 3.47921C12.9914 3.56711 12.8722 3.6165 12.7478 3.6165Z" fill="#2E323E"/>
<path d="M8.1247 3.6165H5.29102C5.1667 3.6165 5.04747 3.56711 4.95956 3.47921C4.87165 3.3913 4.82227 3.27207 4.82227 3.14775C4.82227 3.02343 4.87165 2.9042 4.95956 2.81629C5.04747 2.72839 5.1667 2.679 5.29102 2.679H8.1247C8.24902 2.679 8.36825 2.72839 8.45616 2.81629C8.54407 2.9042 8.59345 3.02343 8.59345 3.14775C8.59345 3.27207 8.54407 3.3913 8.45616 3.47921C8.36825 3.56711 8.24902 3.6165 8.1247 3.6165Z" fill="#2E323E"/>
<path d="M15.0745 20.4039H2.02466C1.62043 20.4035 1.23289 20.2427 0.947055 19.9569C0.661223 19.671 0.500447 19.2835 0.5 18.8793L0.5 6.72421C0.5 6.59989 0.549386 6.48066 0.637294 6.39276C0.725201 6.30485 0.84443 6.25546 0.96875 6.25546H21.6932C21.8175 6.25546 21.9368 6.30485 22.0247 6.39276C22.1126 6.48066 22.162 6.59989 22.162 6.72421V13.8438C22.162 13.9681 22.1126 14.0873 22.0247 14.1752C21.9368 14.2631 21.8175 14.3125 21.6932 14.3125C21.5689 14.3125 21.4497 14.2631 21.3618 14.1752C21.2739 14.0873 21.2245 13.9681 21.2245 13.8438V7.19296H1.4375V18.8793C1.4377 19.0349 1.49962 19.1842 1.60969 19.2942C1.71976 19.4043 1.86899 19.4662 2.02466 19.4664H15.0747C15.199 19.4664 15.3182 19.5158 15.4061 19.6037C15.494 19.6916 15.5434 19.8109 15.5434 19.9352C15.5434 20.0595 15.494 20.1787 15.4061 20.2666C15.3182 20.3545 15.199 20.4039 15.0747 20.4039H15.0745Z" fill="#2E323E"/>
<path d="M4.77881 5.16853H4.01775C3.75723 5.16826 3.50747 5.06465 3.32325 4.88044C3.13904 4.69622 3.03543 4.44646 3.03516 4.18594C3.03516 4.06162 3.08454 3.94239 3.17245 3.85448C3.26036 3.76658 3.37959 3.71719 3.50391 3.71719C3.62823 3.71719 3.74746 3.76658 3.83536 3.85448C3.92327 3.94239 3.97266 4.06162 3.97266 4.18594C3.97268 4.19789 3.97744 4.20935 3.98589 4.2178C3.99434 4.22625 4.0058 4.23101 4.01775 4.23103H4.77881C4.79076 4.23101 4.80222 4.22625 4.81067 4.2178C4.81912 4.20935 4.82388 4.19789 4.82391 4.18594V2.10938C4.82388 2.09743 4.81912 2.08599 4.81067 2.07755C4.80221 2.06911 4.79076 2.06438 4.77881 2.06438H4.01775C4.00581 2.06438 3.99435 2.06911 3.9859 2.07755C3.97744 2.08599 3.97268 2.09743 3.97266 2.10938C3.97266 2.2337 3.92327 2.35293 3.83536 2.44083C3.74746 2.52874 3.62823 2.57813 3.50391 2.57813C3.37959 2.57813 3.26036 2.52874 3.17245 2.44083C3.08454 2.35293 3.03516 2.2337 3.03516 2.10938C3.03545 1.84888 3.13908 1.59913 3.32329 1.41494C3.5075 1.23075 3.75725 1.12715 4.01775 1.12688H4.77881C5.03931 1.12715 5.28907 1.23075 5.47328 1.41494C5.65749 1.59913 5.76111 1.84888 5.76141 2.10938V4.18594C5.76111 4.44645 5.65749 4.6962 5.47328 4.88041C5.28907 5.06462 5.03932 5.16824 4.77881 5.16853Z" fill="#2E323E"/>
<path d="M9.39991 5.16853H8.63875C8.37825 5.16824 8.12851 5.06461 7.94431 4.8804C7.76012 4.69619 7.65652 4.44644 7.65625 4.18594C7.65625 4.06162 7.70564 3.94239 7.79354 3.85448C7.88145 3.76658 8.00068 3.71719 8.125 3.71719C8.24932 3.71719 8.36855 3.76658 8.45646 3.85448C8.54436 3.94239 8.59375 4.06162 8.59375 4.18594C8.59377 4.19788 8.59852 4.20932 8.60695 4.21777C8.61538 4.22621 8.62681 4.23098 8.63875 4.23103H9.39991C9.41184 4.23098 9.42327 4.22621 9.4317 4.21777C9.44014 4.20932 9.44488 4.19788 9.44491 4.18594V2.10938C9.44488 2.09745 9.44013 2.08602 9.4317 2.07758C9.42327 2.06915 9.41183 2.0644 9.39991 2.06438H8.63875C8.62682 2.0644 8.61539 2.06915 8.60696 2.07758C8.59852 2.08602 8.59377 2.09745 8.59375 2.10938C8.59375 2.17093 8.58163 2.23189 8.55807 2.28876C8.53451 2.34563 8.49998 2.39731 8.45646 2.44083C8.41293 2.48436 8.36125 2.51889 8.30438 2.54245C8.24751 2.566 8.18656 2.57813 8.125 2.57813C8.06344 2.57813 8.00249 2.566 7.94562 2.54245C7.88875 2.51889 7.83707 2.48436 7.79354 2.44083C7.75002 2.39731 7.71549 2.34563 7.69193 2.28876C7.66838 2.23189 7.65625 2.17093 7.65625 2.10938C7.65652 1.84889 7.76012 1.59914 7.94432 1.41495C8.12851 1.23075 8.37826 1.12715 8.63875 1.12688H9.39991C9.6604 1.12715 9.91014 1.23075 10.0943 1.41495C10.2785 1.59914 10.3821 1.84889 10.3824 2.10938V4.18594C10.3821 4.44644 10.2785 4.69619 10.0943 4.8804C9.91015 5.06461 9.66041 5.16824 9.39991 5.16853Z" fill="#2E323E"/>
<path d="M14.0229 5.16853H13.2618C13.0013 5.16824 12.7516 5.06461 12.5674 4.8804C12.3832 4.69619 12.2796 4.44644 12.2793 4.18594C12.2793 4.06162 12.3287 3.94239 12.4166 3.85448C12.5045 3.76658 12.6237 3.71719 12.748 3.71719C12.8724 3.71719 12.9916 3.76658 13.0795 3.85448C13.1674 3.94239 13.2168 4.06162 13.2168 4.18594C13.2168 4.19788 13.2215 4.20934 13.23 4.21779C13.2384 4.22625 13.2499 4.23101 13.2618 4.23103H14.0229C14.0348 4.23101 14.0463 4.22625 14.0547 4.2178C14.0632 4.20935 14.0679 4.19789 14.068 4.18594V2.10938C14.0679 2.09743 14.0632 2.08599 14.0547 2.07755C14.0463 2.06911 14.0348 2.06438 14.0229 2.06438H13.2618C13.2499 2.06438 13.2384 2.06912 13.23 2.07756C13.2215 2.086 13.2168 2.09744 13.2168 2.10938C13.2168 2.2337 13.1674 2.35293 13.0795 2.44083C12.9916 2.52874 12.8724 2.57813 12.748 2.57813C12.6237 2.57813 12.5045 2.52874 12.4166 2.44083C12.3287 2.35293 12.2793 2.2337 12.2793 2.10938C12.2796 1.84889 12.3832 1.59914 12.5674 1.41495C12.7516 1.23075 13.0013 1.12715 13.2618 1.12688H14.0229C14.2834 1.12715 14.5331 1.23075 14.7173 1.41494C14.9015 1.59913 15.0052 1.84888 15.0055 2.10938V4.18594C15.0052 4.44645 14.9015 4.6962 14.7173 4.88041C14.5331 5.06462 14.2834 5.16824 14.0229 5.16853Z" fill="#2E323E"/>
<path d="M18.646 5.16853H17.8849C17.6244 5.16826 17.3747 5.06465 17.1904 4.88044C17.0062 4.69622 16.9026 4.44646 16.9023 4.18594C16.9023 4.06162 16.9517 3.94239 17.0396 3.85448C17.1275 3.76658 17.2468 3.71719 17.3711 3.71719C17.4954 3.71719 17.6146 3.76658 17.7026 3.85448C17.7905 3.94239 17.8398 4.06162 17.8398 4.18594C17.8399 4.19789 17.8446 4.20935 17.8531 4.2178C17.8615 4.22625 17.873 4.23101 17.8849 4.23103H18.646C18.6519 4.23103 18.6578 4.22987 18.6633 4.2276C18.6687 4.22533 18.6737 4.22201 18.6779 4.21783C18.6821 4.21364 18.6854 4.20867 18.6877 4.2032C18.6899 4.19773 18.6911 4.19186 18.6911 4.18594V2.10938C18.6911 2.10346 18.6899 2.0976 18.6877 2.09213C18.6854 2.08667 18.6821 2.0817 18.6779 2.07752C18.6737 2.07334 18.6687 2.07003 18.6632 2.06778C18.6578 2.06552 18.6519 2.06436 18.646 2.06438H17.8849C17.873 2.06438 17.8615 2.06911 17.8531 2.07755C17.8446 2.08599 17.8399 2.09743 17.8398 2.10938C17.8398 2.2337 17.7905 2.35293 17.7026 2.44083C17.6146 2.52874 17.4954 2.57813 17.3711 2.57813C17.2468 2.57813 17.1275 2.52874 17.0396 2.44083C16.9517 2.35293 16.9023 2.2337 16.9023 2.10938C16.9026 1.84888 17.0063 1.59913 17.1905 1.41494C17.3747 1.23075 17.6244 1.12715 17.8849 1.12688H18.646C18.9065 1.12715 19.1563 1.23075 19.3405 1.41494C19.5247 1.59913 19.6283 1.84888 19.6286 2.10938V4.18594C19.6283 4.44645 19.5247 4.6962 19.3405 4.88041C19.1563 5.06462 18.9065 5.16824 18.646 5.16853Z" fill="#2E323E"/>
<path d="M5.29266 10.3821H3.50391C3.37959 10.3821 3.26036 10.3327 3.17245 10.2448C3.08454 10.1569 3.03516 10.0376 3.03516 9.91331C3.03516 9.78899 3.08454 9.66977 3.17245 9.58186C3.26036 9.49395 3.37959 9.44456 3.50391 9.44456H5.29266C5.41698 9.44456 5.5362 9.49395 5.62411 9.58186C5.71202 9.66977 5.76141 9.78899 5.76141 9.91331C5.76141 10.0376 5.71202 10.1569 5.62411 10.2448C5.5362 10.3327 5.41698 10.3821 5.29266 10.3821Z" fill="#2E323E"/>
<path d="M9.91366 10.3821H8.125C8.00068 10.3821 7.88145 10.3327 7.79354 10.2448C7.70564 10.1569 7.65625 10.0376 7.65625 9.91331C7.65625 9.78899 7.70564 9.66977 7.79354 9.58186C7.88145 9.49395 8.00068 9.44456 8.125 9.44456H9.91366C10.038 9.44456 10.1572 9.49395 10.2451 9.58186C10.333 9.66977 10.3824 9.78899 10.3824 9.91331C10.3824 10.0376 10.333 10.1569 10.2451 10.2448C10.1572 10.3327 10.038 10.3821 9.91366 10.3821Z" fill="#2E323E"/>
<path d="M14.5367 10.3821H12.748C12.6237 10.3821 12.5045 10.3327 12.4166 10.2448C12.3287 10.1569 12.2793 10.0376 12.2793 9.91331C12.2793 9.78899 12.3287 9.66977 12.4166 9.58186C12.5045 9.49395 12.6237 9.44456 12.748 9.44456H14.5367C14.661 9.44456 14.7803 9.49395 14.8682 9.58186C14.9561 9.66977 15.0055 9.78899 15.0055 9.91331C15.0055 10.0376 14.9561 10.1569 14.8682 10.2448C14.7803 10.3327 14.661 10.3821 14.5367 10.3821Z" fill="#2E323E"/>
<path d="M19.1598 10.3821H17.3711C17.2468 10.3821 17.1275 10.3327 17.0396 10.2448C16.9517 10.1569 16.9023 10.0376 16.9023 9.91331C16.9023 9.78899 16.9517 9.66977 17.0396 9.58186C17.1275 9.49395 17.2468 9.44456 17.3711 9.44456H19.1598C19.2842 9.44456 19.4034 9.49395 19.4913 9.58186C19.5792 9.66977 19.6286 9.78899 19.6286 9.91331C19.6286 10.0376 19.5792 10.1569 19.4913 10.2448C19.4034 10.3327 19.2842 10.3821 19.1598 10.3821Z" fill="#2E323E"/>
<path d="M5.29266 13.7984H3.50391C3.37959 13.7984 3.26036 13.749 3.17245 13.6611C3.08454 13.5732 3.03516 13.454 3.03516 13.3297C3.03516 13.2053 3.08454 13.0861 3.17245 12.9982C3.26036 12.9103 3.37959 12.8609 3.50391 12.8609H5.29266C5.41698 12.8609 5.5362 12.9103 5.62411 12.9982C5.71202 13.0861 5.76141 13.2053 5.76141 13.3297C5.76141 13.454 5.71202 13.5732 5.62411 13.6611C5.5362 13.749 5.41698 13.7984 5.29266 13.7984Z" fill="#2E323E"/>
<path d="M9.91366 13.7984H8.125C8.00068 13.7984 7.88145 13.749 7.79354 13.6611C7.70564 13.5732 7.65625 13.454 7.65625 13.3297C7.65625 13.2053 7.70564 13.0861 7.79354 12.9982C7.88145 12.9103 8.00068 12.8609 8.125 12.8609H9.91366C10.038 12.8609 10.1572 12.9103 10.2451 12.9982C10.333 13.0861 10.3824 13.2053 10.3824 13.3297C10.3824 13.454 10.333 13.5732 10.2451 13.6611C10.1572 13.749 10.038 13.7984 9.91366 13.7984Z" fill="#2E323E"/>
<path d="M14.5367 13.7984H12.748C12.6237 13.7984 12.5045 13.749 12.4166 13.6611C12.3287 13.5732 12.2793 13.454 12.2793 13.3297C12.2793 13.2053 12.3287 13.0861 12.4166 12.9982C12.5045 12.9103 12.6237 12.8609 12.748 12.8609H14.5367C14.661 12.8609 14.7803 12.9103 14.8682 12.9982C14.9561 13.0861 15.0055 13.2053 15.0055 13.3297C15.0055 13.454 14.9561 13.5732 14.8682 13.6611C14.7803 13.749 14.661 13.7984 14.5367 13.7984Z" fill="#2E323E"/>
<path d="M19.1598 13.7984H17.3711C17.2468 13.7984 17.1275 13.749 17.0396 13.6611C16.9517 13.5732 16.9023 13.454 16.9023 13.3297C16.9023 13.2053 16.9517 13.0861 17.0396 12.9982C17.1275 12.9103 17.2468 12.8609 17.3711 12.8609H19.1598C19.2842 12.8609 19.4034 12.9103 19.4913 12.9982C19.5792 13.0861 19.6286 13.2053 19.6286 13.3297C19.6286 13.454 19.5792 13.5732 19.4913 13.6611C19.4034 13.749 19.2842 13.7984 19.1598 13.7984Z" fill="#2E323E"/>
<path d="M5.29266 17.2148H3.50391C3.37959 17.2148 3.26036 17.1654 3.17245 17.0775C3.08454 16.9896 3.03516 16.8703 3.03516 16.746C3.03516 16.6217 3.08454 16.5025 3.17245 16.4145C3.26036 16.3266 3.37959 16.2773 3.50391 16.2773H5.29266C5.41698 16.2773 5.5362 16.3266 5.62411 16.4145C5.71202 16.5025 5.76141 16.6217 5.76141 16.746C5.76141 16.8703 5.71202 16.9896 5.62411 17.0775C5.5362 17.1654 5.41698 17.2148 5.29266 17.2148Z" fill="#2E323E"/>
<path d="M9.91366 17.2148H8.125C8.00068 17.2148 7.88145 17.1654 7.79354 17.0775C7.70564 16.9896 7.65625 16.8703 7.65625 16.746C7.65625 16.6217 7.70564 16.5025 7.79354 16.4145C7.88145 16.3266 8.00068 16.2773 8.125 16.2773H9.91366C10.038 16.2773 10.1572 16.3266 10.2451 16.4145C10.333 16.5025 10.3824 16.6217 10.3824 16.746C10.3824 16.8703 10.333 16.9896 10.2451 17.0775C10.1572 17.1654 10.038 17.2148 9.91366 17.2148Z" fill="#2E323E"/>
<path d="M14.5367 17.2148H12.748C12.6237 17.2148 12.5045 17.1654 12.4166 17.0775C12.3287 16.9896 12.2793 16.8703 12.2793 16.746C12.2793 16.6217 12.3287 16.5025 12.4166 16.4145C12.5045 16.3266 12.6237 16.2773 12.748 16.2773H14.5367C14.661 16.2773 14.7803 16.3266 14.8682 16.4145C14.9561 16.5025 15.0055 16.6217 15.0055 16.746C15.0055 16.8703 14.9561 16.9896 14.8682 17.0775C14.7803 17.1654 14.661 17.2148 14.5367 17.2148Z" fill="#2E323E"/>
</g>
<defs>
<clipPath id="clip0_1684_4108">
<rect width="24" height="24" fill="white" transform="translate(0.5)"/>
</clipPath>
</defs>
</svg>
