<svg width="33" height="33" viewBox="0 0 33 33" fill="none" xmlns="http://www.w3.org/2000/svg">
<g id="Purple and Orange Tours and Travels Logo (2) 2" opacity="0.4">
<g id="Group">
<path id="Vector" d="M16.5526 9.90137C15.355 9.90034 13.7015 10.2424 13.0195 10.5294C12.3331 10.8127 11.8769 11.0976 11.7346 11.8071L11.2207 15.7613V21.2073H12.1059V22.0567C12.1052 23.0997 13.6283 23.0997 13.6263 22.0567V21.2073H19.372V22.0567C19.3731 23.0997 20.8962 23.0997 20.8993 22.0567V21.2073H21.7773V15.7613L21.2634 11.8071C21.1245 11.0976 20.6683 10.8127 19.986 10.5294C19.2999 10.2424 17.6468 9.90034 16.4526 9.90137" fill="#042F40"/>
</g>
<path id="Vector_2" d="M20.1376 19.5005C20.5395 19.497 20.8667 19.1698 20.8657 18.7652C20.8667 18.363 20.5395 18.0357 20.1376 18.0371C19.7323 18.0357 19.4051 18.363 19.4023 18.7652C19.4051 19.1698 19.7323 19.497 20.1376 19.5005Z" fill="#F0F1F3"/>
<path id="Vector_3" d="M12.87 19.5014C12.4641 19.498 12.1372 19.1707 12.1348 18.7662C12.1372 18.364 12.4641 18.0367 12.87 18.0381C13.2712 18.0367 13.5985 18.364 13.5981 18.7662C13.5985 19.1707 13.2712 19.498 12.87 19.5014Z" fill="#F0F1F3"/>
<path id="Vector_4" d="M16.4464 11.5425H14.3265C13.9016 11.5391 13.9016 10.8976 14.3265 10.9004H18.6732C19.1012 10.8976 19.1012 11.5391 18.6732 11.5425H16.4464Z" fill="#F0F1F3"/>
<path id="Vector_5" d="M16.4448 12.1846H13.1758C12.7234 12.1863 12.6051 12.4159 12.5474 12.7628L12.1476 15.632C12.1139 15.9043 12.1933 16.1769 12.5759 16.1745H20.4275C20.8063 16.1769 20.8857 15.9043 20.8486 15.632L20.4488 12.7628C20.3945 12.4159 20.2763 12.1863 19.828 12.1846H16.4448Z" fill="#F0F1F3"/>
</g>
</svg>
