<svg width="180" height="33" viewBox="0 0 180 33" fill="none" xmlns="http://www.w3.org/2000/svg">
<path d="M11.1431 17.0002L78.0002 17.0002" stroke="#C7C7C7" stroke-width="0.5" stroke-linecap="round" stroke-dasharray="3 3"/>
<circle cx="4.45714" cy="17.0001" r="3.95714" stroke="#C7C7C7"/>
<path d="M168.857 16.6021L102 16.6021" stroke="#C7C7C7" stroke-width="0.5" stroke-linecap="round" stroke-dasharray="3 3"/>
<path d="M171.586 16.6021C171.586 14.4181 173.357 12.6471 175.543 12.6471C177.729 12.6471 179.5 14.4181 179.5 16.6021C179.5 18.7862 177.729 20.5571 175.543 20.5571C173.357 20.5571 171.586 18.7862 171.586 16.6021Z" stroke="#C7C7C7"/>
<g opacity="0.4">
<path d="M90.5526 9.90137C89.355 9.90034 87.7015 10.2424 87.0195 10.5294C86.3331 10.8127 85.8769 11.0976 85.7346 11.8071L85.2207 15.7613V21.2073H86.1059V22.0567C86.1052 23.0997 87.6283 23.0997 87.6263 22.0567V21.2073H93.372V22.0567C93.3731 23.0997 94.8962 23.0997 94.8993 22.0567V21.2073H95.7773V15.7613L95.2634 11.8071C95.1245 11.0976 94.6683 10.8127 93.986 10.5294C93.2999 10.2424 91.6468 9.90034 90.4526 9.90137" fill="#042F40"/>
<path d="M94.1366 19.5005C94.5385 19.497 94.8657 19.1698 94.8647 18.7652C94.8657 18.363 94.5385 18.0357 94.1366 18.0371C93.7314 18.0357 93.4041 18.363 93.4014 18.7652C93.4041 19.1698 93.7314 19.497 94.1366 19.5005Z" fill="#F0F1F3"/>
<path d="M86.87 19.5014C86.4641 19.498 86.1372 19.1707 86.1348 18.7662C86.1372 18.364 86.4641 18.0367 86.87 18.0381C87.2712 18.0367 87.5985 18.364 87.5981 18.7662C87.5985 19.1707 87.2712 19.498 86.87 19.5014Z" fill="#F0F1F3"/>
<path d="M90.4464 11.5425H88.3265C87.9016 11.5391 87.9016 10.8976 88.3265 10.9004H92.6732C93.1012 10.8976 93.1012 11.5391 92.6732 11.5425H90.4464Z" fill="#F0F1F3"/>
<path d="M90.4458 12.1846H87.1768C86.7244 12.1863 86.6061 12.4159 86.5484 12.7628L86.1486 15.632C86.1149 15.9043 86.1943 16.1769 86.5769 16.1745H94.4285C94.8073 16.1769 94.8867 15.9043 94.8496 15.632L94.4498 12.7628C94.3955 12.4159 94.2773 12.1863 93.829 12.1846H90.4458Z" fill="#F0F1F3"/>
</g>
</svg>
