<svg width="18" height="18" viewBox="0 0 18 18" fill="none" xmlns="http://www.w3.org/2000/svg">
<path d="M5.1057 0C5.27279 0 5.43303 0.0663748 5.55118 0.184523C5.66933 0.302671 5.7357 0.462914 5.7357 0.63V1.8081H12.501V0.6381C12.501 0.471014 12.5674 0.310771 12.6855 0.192623C12.8037 0.0744748 12.9639 0.0081 13.131 0.0081C13.2981 0.0081 13.4583 0.0744748 13.5765 0.192623C13.6946 0.310771 13.761 0.471014 13.761 0.6381V1.8081H16.2C16.6772 1.8081 17.1349 1.99762 17.4725 2.33499C17.81 2.67236 17.9998 3.12997 18 3.6072V16.2009C17.9998 16.6781 17.81 17.1357 17.4725 17.4731C17.1349 17.8105 16.6772 18 16.2 18H1.8C1.32277 18 0.865065 17.8105 0.527526 17.4731C0.189986 17.1357 0.000238617 16.6781 0 16.2009L0 3.6072C0.000238617 3.12997 0.189986 2.67236 0.527526 2.33499C0.865065 1.99762 1.32277 1.8081 1.8 1.8081H4.4757V0.6291C4.47594 0.46217 4.54242 0.302158 4.66054 0.184204C4.77866 0.0662511 4.93877 -1.70337e-07 5.1057 0ZM1.26 6.9678V16.2009C1.26 16.2718 1.27397 16.342 1.30111 16.4075C1.32824 16.4731 1.36802 16.5326 1.41816 16.5827C1.46831 16.6329 1.52784 16.6727 1.59335 16.6998C1.65887 16.7269 1.72909 16.7409 1.8 16.7409H16.2C16.2709 16.7409 16.3411 16.7269 16.4066 16.6998C16.4722 16.6727 16.5317 16.6329 16.5818 16.5827C16.632 16.5326 16.6718 16.4731 16.6989 16.4075C16.726 16.342 16.74 16.2718 16.74 16.2009V6.9804L1.26 6.9678ZM6.0003 13.1571V14.6565H4.5V13.1571H6.0003ZM9.7497 13.1571V14.6565H8.2503V13.1571H9.7497ZM13.5 13.1571V14.6565H11.9997V13.1571H13.5ZM6.0003 9.5778V11.0772H4.5V9.5778H6.0003ZM9.7497 9.5778V11.0772H8.2503V9.5778H9.7497ZM13.5 9.5778V11.0772H11.9997V9.5778H13.5ZM4.4757 3.0672H1.8C1.72909 3.0672 1.65887 3.08117 1.59335 3.1083C1.52784 3.13544 1.46831 3.17522 1.41816 3.22536C1.36802 3.27551 1.32824 3.33504 1.30111 3.40055C1.27397 3.46607 1.26 3.53629 1.26 3.6072V5.7087L16.74 5.7213V3.6072C16.74 3.53629 16.726 3.46607 16.6989 3.40055C16.6718 3.33504 16.632 3.27551 16.5818 3.22536C16.5317 3.17522 16.4722 3.13544 16.4066 3.1083C16.3411 3.08117 16.2709 3.0672 16.2 3.0672H13.761V3.9033C13.761 4.07039 13.6946 4.23063 13.5765 4.34878C13.4583 4.46693 13.2981 4.5333 13.131 4.5333C12.9639 4.5333 12.8037 4.46693 12.6855 4.34878C12.5674 4.23063 12.501 4.07039 12.501 3.9033V3.0672H5.7357V3.8952C5.7357 4.06229 5.66933 4.22253 5.55118 4.34068C5.43303 4.45883 5.27279 4.5252 5.1057 4.5252C4.93861 4.5252 4.77837 4.45883 4.66022 4.34068C4.54207 4.22253 4.4757 4.06229 4.4757 3.8952V3.0672Z" fill="#2A384D"/>
</svg>
