<svg width="16" height="16" viewBox="0 0 16 16" fill="none" xmlns="http://www.w3.org/2000/svg">
<path id="calender" d="M13.6 1.6H12V0.8C12 0.587827 11.9157 0.384344 11.7657 0.234315C11.6157 0.0842854 11.4122 0 11.2 0C10.9878 0 10.7843 0.0842854 10.6343 0.234315C10.4843 0.384344 10.4 0.587827 10.4 0.8V1.6H5.6V0.8C5.6 0.587827 5.51571 0.384344 5.36568 0.234315C5.21566 0.0842854 5.01217 0 4.8 0C4.58783 0 4.38434 0.0842854 4.23431 0.234315C4.08429 0.384344 4 0.587827 4 0.8V1.6H2.4C1.76348 1.6 1.15303 1.85286 0.702944 2.30294C0.252857 2.75303 0 3.36348 0 4V13.6C0 14.2365 0.252857 14.847 0.702944 15.2971C1.15303 15.7471 1.76348 16 2.4 16H13.6C14.2365 16 14.847 15.7471 15.2971 15.2971C15.7471 14.847 16 14.2365 16 13.6V4C16 3.36348 15.7471 2.75303 15.2971 2.30294C14.847 1.85286 14.2365 1.6 13.6 1.6ZM14.4 13.6C14.4 13.8122 14.3157 14.0157 14.1657 14.1657C14.0157 14.3157 13.8122 14.4 13.6 14.4H2.4C2.18783 14.4 1.98434 14.3157 1.83431 14.1657C1.68429 14.0157 1.6 13.8122 1.6 13.6V8H14.4V13.6ZM14.4 6.4H1.6V4C1.6 3.78783 1.68429 3.58434 1.83431 3.43431C1.98434 3.28429 2.18783 3.2 2.4 3.2H4V4C4 4.21217 4.08429 4.41566 4.23431 4.56569C4.38434 4.71571 4.58783 4.8 4.8 4.8C5.01217 4.8 5.21566 4.71571 5.36568 4.56569C5.51571 4.41566 5.6 4.21217 5.6 4V3.2H10.4V4C10.4 4.21217 10.4843 4.41566 10.6343 4.56569C10.7843 4.71571 10.9878 4.8 11.2 4.8C11.4122 4.8 11.6157 4.71571 11.7657 4.56569C11.9157 4.41566 12 4.21217 12 4V3.2H13.6C13.8122 3.2 14.0157 3.28429 14.1657 3.43431C14.3157 3.58434 14.4 3.78783 14.4 4V6.4Z" fill="#26384F"/>
</svg>
