<svg width="24" height="24" viewBox="0 0 24 24" fill="none" xmlns="http://www.w3.org/2000/svg">
<path d="M8.76953 0C7.01569 0 5.53876 1.47692 5.53876 3.23077C5.53876 4.98462 7.01569 6.46154 8.76953 6.46154C10.0249 6.46154 11.1234 5.68985 11.6541 4.61538H17.5388L18.4618 3.69231V2.76923L17.5388 1.84615H16.6157L15.8652 2.59662L15.2311 1.84615H14.4806L13.9332 2.39446L13.2981 1.84615H11.6541C11.1225 0.771692 10.0258 0 8.76953 0ZM7.84645 2.30769C8.4003 2.30769 8.76953 2.67692 8.76953 3.23077C8.76953 3.78462 8.4003 4.15385 7.84645 4.15385C7.29261 4.15385 6.92338 3.78462 6.92338 3.23077C6.92338 2.67692 7.29261 2.30769 7.84645 2.30769ZM8.39476 8.30769C7.57336 8.31036 6.77558 8.58282 6.12414 9.08316C5.47269 9.5835 5.00368 10.284 4.78922 11.0769L4.12461 13.8462H3.69261C3.13876 13.8462 2.76953 14.2154 2.76953 14.7692V15.6923C2.76953 16.2462 3.13876 16.6154 3.69261 16.6154V23.0769C3.69261 23.6308 4.06184 24 4.61569 24H6.46184C7.01569 24 7.38492 23.6308 7.38492 23.0769V22.1538H16.6157V23.0769C16.6157 23.6308 16.9849 24 17.5388 24H19.3849C19.9388 24 20.308 23.6308 20.308 23.0769V16.6154C20.8618 16.6154 21.2311 16.2462 21.2311 15.6923V14.7692C21.2311 14.2154 20.8618 13.8462 20.308 13.8462H19.8751L19.2123 11.0769C18.7508 9.41538 17.2674 8.30769 15.6058 8.30769H8.39476ZM8.39476 10.1538H15.6058C16.4366 10.1538 17.1815 10.7077 17.3661 11.5385L18.1443 14.7692H5.8563L6.63445 11.5385C6.81907 10.7077 7.56399 10.1538 8.39476 10.1538ZM6.92338 17.5385C7.66184 17.5385 8.30799 18.1846 8.30799 18.9231C8.30799 19.6615 7.66184 20.3077 6.92338 20.3077C6.18492 20.3077 5.53876 19.6615 5.53876 18.9231C5.53876 18.1846 6.18492 17.5385 6.92338 17.5385ZM17.0772 17.5385C17.8157 17.5385 18.4618 18.1846 18.4618 18.9231C18.4618 19.6615 17.8157 20.3077 17.0772 20.3077C16.3388 20.3077 15.6926 19.6615 15.6926 18.9231C15.6926 18.1846 16.3388 17.5385 17.0772 17.5385Z" fill="black"/>
</svg>
