<?xml version="1.0" encoding="utf-8"?>
<svg viewBox="-2.25 0.955 646.269 459.027" xmlns="http://www.w3.org/2000/svg">
  <g transform="matrix(0.4068540334701538, 0, 0, 0.4068540334701538, 5.900557994842586, 5.885530948638973)" style="">
    <path d="M 842.271 799.556 L 480.607 799.556 C 465.136 799.556 452.553 786.973 452.553 771.501 C 452.553 756.03 465.136 743.446 480.607 743.446 L 842.271 743.446 C 857.742 743.446 870.325 756.029 870.325 771.501 C 870.33 786.967 857.742 799.556 842.271 799.556 Z" style=""/>
    <path d="M 1509.05 258.378 L 1429.035 258.378 C 1403.252 258.378 1382.275 279.356 1382.275 305.138 L 1382.275 512.078 C 1382.275 537.861 1403.253 558.838 1429.035 558.838 L 1509.05 558.838 C 1534.833 558.838 1555.81 537.86 1555.81 512.078 L 1555.81 305.138 C 1555.81 279.355 1534.832 258.378 1509.05 258.378 Z" style=""/>
    <path d="M 1155.446 70.138 L 769.526 70.138 C 746.316 70.138 727.441 89.018 727.441 112.223 C 727.441 135.428 746.321 154.308 769.526 154.308 L 1155.459 154.308 C 1178.669 154.308 1197.544 135.428 1197.544 112.223 C 1197.539 89.013 1178.664 70.138 1155.455 70.138 L 1155.446 70.138 Z" style=""/>
    <path d="M 210.273 565.006 C 113.945 565.006 35.57 643.377 35.57 739.709 C 35.57 836.04 113.941 914.398 210.273 914.398 C 306.604 914.398 384.975 836.032 384.975 739.709 C 384.975 643.385 306.604 565.006 210.273 565.006 Z M 331.726 727.685 C 328.878 731.989 323.065 733.161 318.766 730.334 C 310.243 724.694 299.733 723.991 290.681 728.041 C 291.231 731.862 291.613 735.733 291.613 739.702 C 291.613 746.712 290.63 753.481 288.954 759.977 C 303.54 764.002 315.561 774.623 321.069 789.331 C 322.877 794.165 320.432 799.555 315.587 801.369 C 314.507 801.776 313.397 801.965 312.306 801.965 C 308.516 801.965 304.955 799.647 303.549 795.887 C 299.968 786.33 291.899 779.591 282.215 777.538 C 277.167 787.095 270.305 795.551 262.041 802.388 C 271.45 814.212 274.92 829.852 270.732 844.971 C 269.581 849.118 265.816 851.833 261.726 851.833 C 260.895 851.833 260.055 851.721 259.224 851.492 C 254.247 850.111 251.323 844.961 252.704 839.984 C 255.429 830.131 252.851 819.917 246.208 812.562 C 236.779 817.233 226.346 820.106 215.296 820.784 C 215.979 835.909 209.596 850.626 197.314 860.407 C 195.587 861.778 193.534 862.445 191.496 862.445 C 188.74 862.445 186.015 861.238 184.17 858.92 C 180.956 854.88 181.623 848.996 185.658 845.777 C 193.641 839.419 197.558 829.643 196.509 819.785 C 185.683 817.931 175.597 813.952 166.671 808.257 C 158.337 820.886 144.527 829.037 128.836 829.735 C 128.688 829.74 128.55 829.745 128.408 829.745 C 123.441 829.745 119.294 825.828 119.075 820.81 C 118.846 815.649 122.84 811.278 128 811.049 C 138.209 810.596 147.129 804.987 152.066 796.404 C 144.608 788.752 138.672 779.634 134.674 769.536 C 129.274 771.558 123.645 772.699 117.979 772.699 C 108.774 772.699 99.569 770.03 91.469 764.671 C 87.169 761.828 85.982 756.021 88.83 751.716 C 91.678 747.406 97.47 746.214 101.79 749.072 C 110.302 754.701 120.807 755.399 129.864 751.354 C 129.314 747.539 128.932 743.667 128.932 739.704 C 128.932 732.694 129.92 725.919 131.596 719.423 C 117.011 715.399 104.989 704.778 99.482 690.07 C 97.673 685.235 100.119 679.845 104.963 678.032 C 109.793 676.203 115.193 678.674 117.001 683.513 C 120.582 693.065 128.652 699.81 138.336 701.862 C 143.384 692.305 150.246 683.85 158.509 677.012 C 149.1 665.183 145.631 649.539 149.818 634.429 C 151.209 629.442 156.405 626.543 161.326 627.909 C 166.303 629.289 169.228 634.439 167.847 639.417 C 165.122 649.269 167.699 659.483 174.347 666.839 C 183.772 662.172 194.209 659.294 205.254 658.616 C 204.577 643.502 210.96 628.784 223.237 618.998 C 227.272 615.784 233.176 616.451 236.38 620.486 C 239.594 624.52 238.927 630.409 234.892 633.629 C 226.91 639.991 222.992 649.767 224.042 659.615 C 234.867 661.469 244.953 665.448 253.874 671.143 C 262.208 658.514 276.018 650.363 291.709 649.665 C 296.753 649.538 301.246 653.425 301.475 658.591 C 301.704 663.751 297.711 668.122 292.55 668.351 C 282.341 668.805 273.421 674.413 268.485 682.997 C 275.938 690.648 281.873 699.761 285.871 709.854 C 300.033 704.546 315.989 706.079 329.092 714.724 C 333.386 717.572 334.573 723.38 331.726 727.684 L 331.726 727.685 Z" style=""/>
    <path d="M 1112.618 565.006 C 1016.291 565.006 937.916 643.377 937.916 739.709 C 937.916 836.04 1016.287 914.398 1112.618 914.398 C 1208.95 914.398 1287.308 836.032 1287.308 739.709 C 1287.308 643.385 1208.942 565.006 1112.618 565.006 Z M 1234.061 727.698 C 1231.203 731.997 1225.401 733.184 1221.101 730.336 C 1212.599 724.712 1202.084 723.994 1193.022 728.044 C 1193.572 731.86 1193.954 735.736 1193.954 739.705 C 1193.954 746.715 1192.966 753.484 1191.295 759.98 C 1205.88 764.01 1217.902 774.626 1223.409 789.334 C 1225.218 794.168 1222.772 799.558 1217.928 801.372 C 1216.848 801.779 1215.737 801.968 1214.647 801.968 C 1210.857 801.968 1207.296 799.65 1205.89 795.89 C 1202.309 786.338 1194.239 779.599 1184.556 777.541 C 1179.507 787.098 1172.645 795.554 1164.377 802.396 C 1173.776 814.22 1177.25 829.86 1173.073 844.974 C 1171.932 849.121 1168.167 851.841 1164.066 851.841 C 1163.236 851.841 1162.405 851.729 1161.565 851.5 C 1156.588 850.124 1153.663 844.974 1155.044 839.997 C 1157.764 830.144 1155.192 819.925 1148.544 812.569 C 1139.119 817.236 1128.682 820.109 1117.637 820.792 C 1118.32 835.912 1111.931 850.629 1099.644 860.415 C 1097.917 861.786 1095.864 862.453 1093.826 862.453 C 1091.07 862.453 1088.345 861.246 1086.501 858.928 C 1083.286 854.888 1083.953 849.004 1087.988 845.785 C 1095.981 839.422 1099.898 829.646 1098.849 819.793 C 1088.024 817.939 1077.932 813.955 1069.006 808.26 C 1060.672 820.888 1046.862 829.045 1031.176 829.743 C 1031.028 829.748 1030.891 829.753 1030.748 829.753 C 1025.781 829.753 1021.634 825.835 1021.415 820.818 C 1021.186 815.657 1025.18 811.286 1030.341 811.057 C 1040.539 810.603 1049.459 805 1054.406 796.411 C 1046.948 788.755 1041.012 779.641 1037.014 769.54 C 1031.614 771.562 1025.98 772.703 1020.314 772.703 C 1011.119 772.703 1001.914 770.034 993.809 764.685 C 989.499 761.837 988.313 756.035 991.16 751.725 C 994.008 747.415 999.82 746.238 1004.11 749.076 C 1012.633 754.705 1023.153 755.408 1032.205 751.363 C 1031.655 747.548 1031.273 743.676 1031.273 739.708 C 1031.273 732.698 1032.261 725.923 1033.937 719.427 C 1019.352 715.403 1007.33 704.782 1001.823 690.073 C 1000.014 685.239 1002.459 679.849 1007.304 678.036 C 1012.133 676.207 1017.533 678.677 1019.342 683.517 C 1022.923 693.074 1030.998 699.814 1040.676 701.866 C 1045.725 692.304 1052.587 683.853 1060.85 677.011 C 1051.441 665.187 1047.972 649.552 1052.149 634.433 C 1053.519 629.446 1058.659 626.557 1063.657 627.907 C 1068.634 629.283 1071.558 634.433 1070.178 639.41 C 1067.457 649.263 1070.04 659.482 1076.683 666.838 C 1086.108 662.171 1096.545 659.293 1107.59 658.615 C 1106.907 643.5 1113.29 628.783 1125.578 618.997 C 1129.643 615.762 1135.507 616.45 1138.721 620.485 C 1141.935 624.524 1141.268 630.408 1137.233 633.628 C 1129.24 639.99 1125.323 649.766 1126.377 659.614 C 1137.203 661.468 1147.295 665.447 1156.215 671.142 C 1164.549 658.513 1178.359 650.362 1194.05 649.664 C 1199.129 649.537 1203.587 653.424 1203.816 658.59 C 1204.045 663.75 1200.052 668.121 1194.891 668.35 C 1184.682 668.804 1175.762 674.412 1170.826 682.996 C 1178.279 690.647 1184.214 699.757 1188.212 709.853 C 1202.385 704.545 1218.335 706.078 1231.422 714.734 C 1235.732 717.586 1236.909 723.389 1234.061 727.698 Z" style=""/>
    <path d="M 1328.427 603.205 C 1327.918 601.86 1327.653 600.387 1327.653 598.885 L 1327.653 290.13 C 1327.653 237.828 1285.095 195.27 1232.787 195.27 L 652.889 195.27 C 597.672 195.27 545.44 222.035 513.19 266.864 L 442.11 365.668 C 416.327 401.527 374.554 422.938 330.376 422.938 L 78.756 422.938 C 30.299 422.938 -9.121 462.358 -9.121 510.815 C -9.121 513.072 -9.039 515.334 -8.866 517.58 L 5.017 697.408 C 5.393 702.247 9.484 706.037 14.339 706.037 L 19.968 706.037 C 35.97 615.41 115.098 546.294 210.242 546.294 C 305.385 546.294 384.514 615.413 400.516 706.037 L 922.327 706.037 C 938.329 615.41 1017.457 546.294 1112.601 546.294 C 1207.741 546.294 1286.859 615.413 1302.861 706.037 L 1366.678 706.037 L 1328.427 603.205 Z M 831.942 612.68 L 583.817 612.68 C 567.093 612.68 551.815 602.843 544.891 587.621 C 528.961 552.557 507.713 520.356 481.288 491.374 C 478.42 487.956 477.06 483.621 477.452 479.179 C 477.834 474.742 479.938 470.712 483.361 467.844 C 498.578 455.088 512.159 440.467 523.718 424.38 L 594.799 325.575 C 608.217 306.935 629.933 295.805 652.884 295.805 L 831.942 295.805 L 831.942 612.684 L 831.942 612.68 Z M 1227.109 500.219 C 1111.286 444.788 973.258 479.628 897.67 583.913 C 886.453 599.374 869.341 609.491 850.645 612.044 L 850.645 295.803 L 1199.058 295.803 C 1214.529 295.803 1227.113 308.386 1227.113 323.858 L 1227.109 500.219 Z" style=""/>
    <path d="M 1414.172 1019.958 L 124.157 1019.958 C 68.973 1019.958 24.091 1007.375 24.091 991.903 C 24.091 976.432 68.973 963.848 124.157 963.848 L 1414.172 963.848 C 1469.355 963.848 1514.237 976.431 1514.237 991.903 C 1514.255 1007.369 1469.355 1019.958 1414.172 1019.958 Z" style=""/>
  </g>
</svg>