<svg width="15" height="15" viewBox="0 0 15 15" fill="none" xmlns="http://www.w3.org/2000/svg">
<g clip-path="url(#clip0_226_2863)">
<path d="M1.03672 6.3787V10.1722C1.03662 10.6703 1.13465 11.1636 1.32521 11.6239C1.51577 12.0841 1.79513 12.5023 2.14732 12.8546C2.49952 13.2068 2.91767 13.4863 3.37787 13.6769C3.83808 13.8676 4.33134 13.9657 4.82947 13.9657H7.58722C8.08535 13.9657 8.57861 13.8676 9.03882 13.6769C9.49902 13.4863 9.91717 13.2068 10.2694 12.8546C10.6216 12.5023 10.9009 12.0841 11.0915 11.6239C11.282 11.1636 11.3801 10.6703 11.38 10.1722V6.37945L1.03672 6.3787ZM8.91547 0.119952C9.02069 0.208071 9.0866 0.33438 9.0987 0.471093C9.11079 0.607807 9.06809 0.743726 8.97997 0.848951C8.49847 1.4227 8.39197 1.8142 8.54047 2.0767C8.58697 2.15845 8.98522 2.7877 9.07672 2.98195C9.28372 3.4207 9.31072 3.84595 9.13222 4.34845C9.00094 4.70936 8.8106 5.04594 8.56897 5.34445H11.4797C11.8075 5.35645 12.0452 5.4397 12.1922 5.5957C12.2747 5.6812 12.3332 5.7892 12.37 5.9197L12.415 5.9182C13.1009 5.9182 13.7588 6.19069 14.2438 6.67573C14.7289 7.16077 15.0013 7.81863 15.0013 8.50458C15.0013 9.19053 14.7289 9.84838 14.2438 10.3334C13.7588 10.8185 13.1009 11.091 12.415 11.091L12.328 11.088C12.1151 12.189 11.5256 13.1816 10.6607 13.8954C9.79581 14.6093 8.7094 14.9998 7.58797 15H4.82872C4.19477 15 3.56702 14.8751 2.98133 14.6324C2.39565 14.3898 1.86349 14.0342 1.41525 13.5859C0.967011 13.1376 0.611473 12.6054 0.368937 12.0196C0.126402 11.4339 0.00162052 10.8062 0.00171902 10.1722V6.2527C-0.013281 5.92795 0.048219 5.6977 0.184719 5.5627C0.321969 5.4277 0.524469 5.35495 0.791469 5.3452H3.00622C3.03506 5.29712 3.07154 5.25406 3.11422 5.2177C3.57172 4.82995 3.87022 4.42495 4.02022 4.0027C4.10572 3.7627 4.09597 3.6202 4.00372 3.42445C3.94522 3.29995 3.57697 2.71795 3.50347 2.58745C3.09922 1.87345 3.32197 1.05445 4.04947 0.185952C4.09225 0.131276 4.1456 0.0857682 4.20633 0.0521367C4.26707 0.0185052 4.33395 -0.00256214 4.40299 -0.00981103C4.47204 -0.0170599 4.54184 -0.0103422 4.60823 0.00994226C4.67463 0.0302267 4.73626 0.0636631 4.78947 0.108261C4.84267 0.152859 4.88636 0.207706 4.91793 0.269537C4.9495 0.331369 4.9683 0.39892 4.97323 0.46817C4.97815 0.537419 4.96909 0.606951 4.94658 0.672626C4.92407 0.738301 4.88858 0.798777 4.84222 0.850451C4.36072 1.4242 4.25497 1.8157 4.40347 2.0782C4.44922 2.15995 4.84822 2.7892 4.93972 2.98345C5.14597 3.4222 5.17372 3.84745 4.99447 4.34995C4.86342 4.71081 4.67333 5.04739 4.43197 5.34595H5.07547C5.10431 5.29787 5.14079 5.25481 5.18347 5.21845C5.64022 4.82995 5.93872 4.42495 6.08872 4.0027C6.17422 3.7627 6.16522 3.6202 6.07222 3.42445C6.01372 3.29995 5.64547 2.71795 5.57197 2.58745C5.16772 1.87345 5.39047 1.05445 6.11872 0.185952C6.16114 0.130239 6.21442 0.083714 6.27534 0.0491933C6.33626 0.0146726 6.40355 -0.00712573 6.47314 -0.0148819C6.54273 -0.022638 6.61318 -0.0161906 6.6802 0.0040699C6.74723 0.0243304 6.80945 0.0579826 6.86309 0.102989C6.91673 0.147996 6.96068 0.20342 6.99228 0.265907C7.02388 0.328394 7.04246 0.396644 7.04692 0.466524C7.05137 0.536404 7.0416 0.606461 7.01819 0.672453C6.99477 0.738445 6.95821 0.799 6.91072 0.850451C6.42997 1.4242 6.32347 1.8157 6.47197 2.0782C6.51847 2.15995 6.91672 2.7892 7.00822 2.98345C7.21522 3.4222 7.24222 3.84745 7.06297 4.34995C6.93192 4.71081 6.74183 5.04739 6.50047 5.34595H7.14472C7.17334 5.29793 7.20956 5.25487 7.25197 5.21845C7.70947 4.82995 8.00722 4.42495 8.15722 4.0027C8.24272 3.7627 8.23372 3.6202 8.14072 3.42445C8.08222 3.29995 7.71472 2.71795 7.64047 2.58745C7.23697 1.87345 7.45897 1.05445 8.18722 0.185952C8.27532 0.0809503 8.40147 0.0151881 8.538 0.00309582C8.67454 -0.00899645 8.81029 0.033569 8.91547 0.121452M12.4142 6.95395V10.0575C12.8258 10.0575 13.2205 9.89396 13.5115 9.60295C13.8025 9.31194 13.966 8.91725 13.966 8.5057C13.966 8.09415 13.8025 7.69946 13.5115 7.40845C13.2205 7.11744 12.8258 6.95395 12.4142 6.95395Z" fill="#2A384D"/>
</g>
<defs>
<clipPath id="clip0_226_2863">
<rect width="15" height="15" fill="white"/>
</clipPath>
</defs>
</svg>
