<svg width="49" height="49" viewBox="0 0 49 49" fill="none" xmlns="http://www.w3.org/2000/svg">
<g clip-path="url(#clip0_346_4317)">
<path d="M48.8035 25.8781C48.8035 32.1517 44.2213 37.2377 38.5656 37.2377H11.0781C5.42245 37.2377 0.837891 32.1501 0.837891 25.8781V21.8586C0.837891 15.5851 5.42322 10.499 11.0781 10.499H38.5656C44.2213 10.499 48.8035 15.5851 48.8035 21.8586V25.8781Z" fill="#CDCBCA"/>
<path d="M49.0992 32.3783C49.0992 35.0634 44.5147 37.2408 38.859 37.2408H11.3715C5.71584 37.2408 1.13281 35.0634 1.13281 32.3783V30.6564C1.13281 27.9714 5.71584 25.7939 11.3715 25.7939H38.8582C44.5147 25.7939 49.0985 27.9714 49.0985 30.6564L49.0992 32.3783Z" fill="#F48020"/>
<path d="M47.0859 21.3588C47.0859 24.043 43.7761 26.2205 39.6984 26.2205H19.8641C15.7841 26.2205 12.4766 24.043 12.4766 21.3588V19.6369C12.4766 16.9526 15.7841 14.7751 19.8641 14.7751H39.6961C43.7753 14.7751 47.0843 16.9526 47.0843 19.6369L47.0859 21.3588Z" fill="#EE3E25"/>
<path d="M20.1464 21.1036C20.1464 22.9916 19.6534 24.5229 19.0455 24.5229H16.0863C15.4784 24.5229 14.9854 22.9916 14.9854 21.1036V19.8939C14.9854 18.0074 15.4784 16.4746 16.0863 16.4746H19.0455C19.6534 16.4746 20.1464 18.0059 20.1464 19.8939V21.1036ZM44.3999 21.1036C44.3999 22.9916 43.9061 24.5229 43.2974 24.5229H40.3406C39.7319 24.5229 39.2396 22.9916 39.2396 21.1036V19.8939C39.2396 18.0074 39.7319 16.4746 40.3406 16.4746H43.2966C43.9068 16.4746 44.3991 18.0059 44.3991 19.8939L44.3999 21.1036ZM36.2368 21.1036C36.2368 22.9916 35.743 24.5229 35.1358 24.5229H32.1767C31.5696 24.5229 31.0757 22.9916 31.0757 21.1036V19.8939C31.0757 18.0074 31.5696 16.4746 32.1767 16.4746H35.1358C35.743 16.4746 36.2368 18.0059 36.2368 19.8939V21.1036ZM28.1526 21.1036C28.1526 22.9916 27.6603 24.5229 27.0524 24.5229H24.094C23.4861 24.5229 22.993 22.9916 22.993 21.1036V19.8939C22.993 18.0074 23.4876 16.4746 24.094 16.4746H27.0531C27.661 16.4746 28.1533 18.0059 28.1533 19.8939L28.1526 21.1036Z" fill="#A2C2CA"/>
<path d="M17.2291 37.2408C17.2288 38.3764 16.8918 39.4865 16.2607 40.4306C15.6297 41.3748 14.7329 42.1106 13.6837 42.5452C12.6345 42.9797 11.48 43.0934 10.3662 42.872C9.25238 42.6505 8.22922 42.1038 7.42605 41.301C6.62289 40.4981 6.07577 39.4752 5.85387 38.3615C5.63197 37.2477 5.74524 36.0932 6.17937 35.0439C6.6135 33.9945 7.34899 33.0974 8.29288 32.466C9.23677 31.8345 10.3467 31.4971 11.4823 31.4963C13.0061 31.4961 14.4676 32.1012 15.5453 33.1785C16.623 34.2558 17.2287 35.717 17.2291 37.2408Z" fill="white"/>
<path d="M16.2084 37.2408C16.208 37.861 16.0855 38.475 15.8478 39.0478C15.6101 39.6206 15.2619 40.1409 14.8231 40.5791C13.9369 41.4642 12.7354 41.9609 11.483 41.9601C10.2305 41.9593 9.0297 41.461 8.14466 40.5748C7.25962 39.6886 6.76286 38.4871 6.76367 37.2347C6.76449 35.9822 7.2628 34.7814 8.14899 33.8964C9.03518 33.0113 10.2367 32.5146 11.4891 32.5154C12.7416 32.5162 13.9424 33.0145 14.8274 33.9007C15.7125 34.7869 16.2092 35.9884 16.2084 37.2408Z" fill="#243438"/>
<path d="M14.5467 37.1735C14.5467 38.864 13.1778 40.236 11.4842 40.236C10.879 40.2357 10.2874 40.0559 9.78424 39.7194C9.2811 39.383 8.889 38.9049 8.65752 38.3457C8.42603 37.7864 8.36554 37.1711 8.4837 36.5774C8.60185 35.9838 8.89335 35.4385 9.32134 35.0106C9.74934 34.5826 10.2946 34.2911 10.8882 34.1729C11.4819 34.0547 12.0972 34.1152 12.6564 34.3467C13.2157 34.5782 13.6938 34.9703 14.0302 35.4734C14.3667 35.9766 14.5464 36.5682 14.5467 37.1735Z" fill="#969796"/>
<path d="M43.8472 37.2383C43.8226 38.7452 43.2067 40.1821 42.1324 41.239C41.0581 42.2959 39.6114 42.8883 38.1043 42.8883C36.5972 42.8883 35.1505 42.2959 34.0762 41.239C33.0018 40.1821 32.3859 38.7452 32.3613 37.2383C32.3615 35.7156 32.9663 34.2553 34.0428 33.1782C35.1192 32.1012 36.5792 31.4956 38.102 31.4946C39.6254 31.4948 41.0864 32.1 42.1637 33.1771C43.2411 34.2541 43.8466 35.7149 43.8472 37.2383Z" fill="white"/>
<path d="M42.8279 37.2384C42.8056 38.4763 42.2982 39.656 41.4149 40.5236C40.5315 41.3912 39.3429 41.8773 38.1048 41.8773C36.8666 41.8773 35.678 41.3912 34.7947 40.5236C33.9113 39.656 33.4039 38.4763 33.3816 37.2384C33.3703 36.611 33.4841 35.9876 33.7164 35.4047C33.9487 34.8218 34.2948 34.2909 34.7345 33.8432C35.1742 33.3956 35.6987 33.04 36.2774 32.7972C36.856 32.5545 37.4773 32.4294 38.1048 32.4294C38.7323 32.4294 39.3535 32.5545 39.9322 32.7972C40.5108 33.04 41.0353 33.3956 41.475 33.8432C41.9147 34.2909 42.2608 34.8218 42.4931 35.4047C42.7254 35.9876 42.8392 36.611 42.8279 37.2384Z" fill="#243438"/>
<path d="M41.1664 37.1717C41.1664 38.8622 39.7998 40.2342 38.1039 40.2342C37.2922 40.233 36.5141 39.9099 35.9403 39.3358C35.3665 38.7617 35.0438 37.9835 35.043 37.1717C35.0438 36.3603 35.3666 35.5824 35.9405 35.0087C36.5144 34.4351 37.2925 34.1127 38.1039 34.1123C39.7975 34.1123 41.1664 35.4812 41.1664 37.1717Z" fill="#969796"/>
<path d="M9.44946 14.7751H7.09823C5.13363 14.9489 1.22435 16.1755 1.30091 23.1587V25.7274C1.30091 27.9286 2.00299 29.7125 2.87044 29.7125H9.44946C10.3154 29.7125 11.019 27.9286 11.019 25.7274V18.7572C11.019 16.556 10.3154 14.7751 9.44946 14.7751Z" fill="#808080"/>
<path d="M8.94834 16.1165H7.01744C5.40503 16.2596 2.20013 17.2657 2.26061 22.9948V25.1041C2.26061 26.9095 2.83713 28.3726 3.54992 28.3726H8.94758C9.65884 28.3726 10.2338 26.9102 10.2338 25.1041V19.3841C10.2338 17.5788 9.65884 16.1165 8.94758 16.1165" fill="#A2C2CA"/>
<path d="M6.1714 23.2849C6.07876 20.8701 6.21581 18.3864 6.81146 16.1133C5.18834 16.2649 2.02631 17.2931 2.08679 22.9871V25.0964C2.08679 26.9009 2.66331 28.3656 3.37457 28.3656H6.88343C6.46923 26.8374 6.24567 25.1469 6.1714 23.2849Z" fill="#83AFB7"/>
<path d="M2.26855 32.4011C2.26855 33.6552 1.76094 34.6712 1.13389 34.6712C0.507609 34.6712 0 33.6552 0 32.4011V32.3514C0 31.0958 0.507609 30.0813 1.13389 30.0813C1.76094 30.0813 2.26855 31.0958 2.26855 32.3514V32.4011Z" fill="#F1F1F1"/>
</g>
<defs>
<clipPath id="clip0_346_4317">
<rect width="49" height="49" fill="white"/>
</clipPath>
</defs>
</svg>
