<svg width="255" height="233" viewBox="0 0 255 233" fill="none" xmlns="http://www.w3.org/2000/svg">
<mask id="mask0_1386_4377" style="mask-type:luminance" maskUnits="userSpaceOnUse" x="35" y="18" width="214" height="215">
<path d="M248.176 18.9107H35.0625V232.024H248.176V18.9107Z" fill="white"/>
</mask>
<g mask="url(#mask0_1386_4377)">
<path d="M211.573 75.8935C211.573 75.8935 212.523 76.3837 212.217 77.4457C211.912 78.5077 210.388 81.738 207.794 81.9716C207.688 81.9812 210.333 76.0541 210.333 76.0541L211.573 75.8935Z" fill="#1C1C1C"/>
<path d="M200.537 134.633C200.537 134.633 204.598 133.035 205.395 133.885C206.368 134.923 210.724 144.146 209.29 147.201C208.703 148.452 207.609 146.789 205.957 143.018C204.305 139.247 200.49 139.19 200.49 139.19L200.537 134.633Z" fill="#254A5F"/>
<path d="M182.025 134.573L186.584 135.025C186.584 135.025 189.063 148.761 187.026 148.833C185.482 148.888 185.43 147.771 184.904 143.687C184.378 139.605 180.456 138.813 180.456 138.813L182.025 134.573Z" fill="#254A5F"/>
<path d="M191.832 110.371C191.832 110.371 178.012 106.574 176.417 105.354C176.417 105.354 165.052 130.336 168.588 134.835C172.122 139.293 183.436 139.208 183.436 139.208L183.092 132.785L177.364 129.682L180.804 119.674L181.21 119.925L191.832 110.371Z" fill="#254A5F"/>
<path d="M201.701 135.055C201.701 135.055 204.084 137.422 201.813 140.447C201.813 140.447 187.975 144.678 183.34 140.572C180.728 138.21 180.301 128.139 180.7 119.615L176.417 105.354C176.417 105.354 180.299 106.908 181.618 107.357C184.139 108.212 191.832 110.371 191.832 110.371C191.832 110.371 188.35 132.334 189.582 133.317C190.814 134.299 201.701 135.055 201.701 135.055Z" fill="#254A5F"/>
<path d="M197.589 83.3504C197.589 83.3504 191.776 73.623 191.133 70.5976C190.522 67.7671 190.936 62.7594 189.091 58.3071L192.011 54.6334C192.011 54.6334 191.223 54.1018 189.999 55.4862C189.999 55.4862 190.119 50.1914 189.483 50.0975C188.845 50.0033 188.341 53.7295 188.341 53.7295C188.341 53.7295 188.042 50.0785 187.305 49.9525C186.568 49.8264 186.753 53.827 186.753 53.827C186.753 53.827 186.039 50.4343 185.506 50.7074C184.973 50.9806 185.745 53.5026 185.745 53.5026C185.745 53.5026 184.505 50.9179 184.031 51.3543C183.556 51.791 185.166 54.2642 185.166 54.2642C185.166 54.2642 184.723 56.6786 186.312 58.3019C186.312 58.3019 185.779 67.1281 186.773 72.2662L194.094 87.2442L197.589 83.3504Z" fill="#FFCBA0"/>
<path d="M200.422 98.0912C200.422 98.0912 212.209 100.802 213.997 102.564C216.324 105.117 219.819 110.914 223.595 113.743L222.527 117.842C222.527 117.842 224.31 117.196 224.571 115.897C224.571 115.897 225.665 119.536 226.052 119.549C226.549 119.648 226.759 116.089 226.759 116.089C226.759 116.089 227.174 119.594 227.918 119.433C228.61 119.272 228.414 115.266 228.414 115.266C228.414 115.266 229.029 118.971 229.62 118.705C230.05 118.451 229.356 114.785 229.356 114.785C229.356 114.785 231.657 116.354 232.264 115.807C232.621 115.38 229.228 113.836 229.228 113.836C229.228 113.836 227.838 111.813 225.566 111.785C225.566 111.785 220.061 101.571 216.033 98.9193L202.198 91.8455L200.422 98.0912Z" fill="#FFCBA0"/>
<path d="M204.111 86.5041L206.689 91.6423L204.23 95.5916C204.23 95.5916 197.244 103.465 195.895 105.508C193.797 108.685 192.272 116.102 192.272 116.102C192.272 116.102 188.526 110.393 182.69 108.164C176.855 105.934 173.115 105.882 173.115 105.882C173.115 105.882 178.562 99.0912 183.318 95.2918C185.568 93.4471 188.516 87.1058 190.324 85.8646C195.497 82.3137 197.295 81.2642 197.295 81.2642L202.109 84.1905L204.111 86.5041Z" fill="#AEE3FF"/>
<path d="M191.642 85.6892L188.483 81.7113C188.483 81.7113 188.816 78.7274 194.822 77.137L199.314 82.6914L191.642 85.6892Z" fill="#AEE3FF"/>
<path d="M205.862 91.369C207.717 91.0215 212.562 96.2001 213.018 96.3446C213.018 96.3446 212.059 100.187 207.643 101.92C207.643 101.92 192.816 93.8293 205.862 91.369Z" fill="#AEE3FF"/>
<path d="M199.32 86.3304C199.32 86.3304 202.376 83.3646 202.127 82.3722C202.065 82.1222 201.542 81.771 201.373 81.4211C200.462 79.5383 202.968 74.0583 204.772 72.7383C206.192 71.6998 205.512 71.7119 208.977 73.2067C212.441 74.7016 211.037 78.2446 209.822 80.1405C208.673 81.9325 207.208 82.8266 205.823 83.1244L204.406 87.8015L199.32 86.3304Z" fill="#FFCBA0"/>
<path d="M205.878 89.0483C206.315 87.396 204.847 85.5761 202.6 84.9821C200.351 84.3878 198.176 85.245 197.739 86.8971C197.302 88.5485 199.756 90.6293 201.019 90.9631C202.281 91.2964 205.442 90.6997 205.878 89.0483Z" fill="#FFCBA0"/>
<path d="M209.821 80.1405C209.821 80.1405 210.91 79.9377 211.127 80.6534C211.344 81.369 209.211 81.6454 208.347 81.1995L209.821 80.1405Z" fill="#FFCBA0"/>
<path d="M209.36 80.8823C209.397 79.5339 210.678 78.3691 210.441 77.0907C209.767 77.1835 209.225 76.4038 209.44 75.6494C209.524 75.3531 209.698 75.0859 209.792 74.792C209.887 74.4981 209.875 74.1316 209.654 74.0015C209.55 73.9399 209.42 73.9437 209.295 73.9469C208.281 73.9738 206.606 74.4963 205.641 74.2743C204.722 74.063 204.104 74.2199 204.056 73.134C204.014 72.1887 204.742 71.3235 205.426 70.6522C205.819 70.2673 206.337 70.0193 206.62 70.3835C207.059 70.951 207.216 71.2931 207.371 72.0851C207.81 71.5435 208.558 71.5246 209.043 71.8558C209.528 72.1871 210.205 72.3422 210.472 72.9124C210.739 73.4826 210.971 73.4862 211.451 73.8257C211.899 74.1424 212.568 74.3386 212.566 74.9756C212.565 75.7351 212.188 75.4146 211.82 76.1095C211.91 75.9387 212.064 76.9187 212.022 77.0962C211.895 77.6301 211.459 78.0291 211.162 78.4634C210.53 79.3888 210.276 80.2712 209.36 80.8823Z" fill="#254A5F"/>
<path d="M203.002 79.8898C203.002 79.8898 203.543 79.4573 204.371 79.5745C205.199 79.6918 205.667 80.8597 205.667 80.8597C205.667 80.8597 202.962 83.3942 203.002 79.8898Z" fill="#D35982"/>
<path d="M206.505 79.9578C206.402 80.2348 206.653 80.5833 207.066 80.7364C207.478 80.8895 207.895 80.7893 207.998 80.5123C208.101 80.2354 207.85 79.8868 207.438 79.7337C207.026 79.5806 206.608 79.6809 206.505 79.9578Z" fill="#FFCBA0"/>
<path d="M202.531 77.9372C202.428 78.2141 202.679 78.5626 203.091 78.7157C203.504 78.8688 203.921 78.769 204.024 78.4921C204.126 78.2152 203.876 77.8661 203.464 77.713C203.051 77.56 202.634 77.6602 202.531 77.9372Z" fill="#FFCBA0"/>
<path d="M204.732 79.5731C204.742 79.5567 204.688 79.5017 204.569 79.4377C204.456 79.3713 204.265 79.3087 204.114 79.1824C203.963 79.06 203.878 78.7764 204.075 78.7093C204.276 78.6106 204.546 78.8213 204.849 79.0145C204.924 79.0623 204.998 79.1089 205.072 79.1552C205.141 79.2037 205.283 79.2706 205.416 79.2361C205.668 79.161 205.755 78.9743 205.84 78.8466C206.005 78.5663 206.093 78.2842 206.131 78.0455C206.205 77.5625 206.105 77.2698 206.074 77.2769C206.028 77.2806 206.05 77.5711 205.933 78.0027C205.874 78.2173 205.775 78.4651 205.616 78.7077C205.54 78.8305 205.438 78.9482 205.357 78.9621C205.323 78.9682 205.295 78.9601 205.223 78.9144C205.151 78.8679 205.077 78.8212 205.003 78.7734C204.85 78.6798 204.717 78.5825 204.545 78.4981C204.379 78.4148 204.152 78.3774 203.965 78.4696C203.764 78.5511 203.673 78.811 203.731 78.9755C203.777 79.1446 203.879 79.261 203.988 79.3413C204.217 79.4867 204.406 79.505 204.529 79.5415C204.654 79.5711 204.722 79.5908 204.732 79.5731Z" fill="#F95C90"/>
<path d="M205.824 83.1244C205.824 83.1244 204.23 83.3402 203.296 82.9198C203.296 82.9198 204.144 83.7239 205.639 83.767L205.824 83.1244Z" fill="#FFCBA0"/>
<path d="M204.365 77.2992C204.39 77.3761 204.616 77.3716 204.865 77.4451C205.116 77.5108 205.307 77.6312 205.369 77.5784C205.432 77.5333 205.282 77.2635 204.942 77.1695C204.602 77.0742 204.334 77.2276 204.365 77.2992Z" fill="#2B383F"/>
<path d="M207.756 78.9438C207.81 78.8914 207.683 78.6468 207.42 78.4198C207.154 78.1874 206.845 78.1384 206.823 78.2155C206.799 78.2912 207.002 78.4345 207.235 78.6389C207.472 78.842 207.697 79.0009 207.756 78.9438Z" fill="#2B383F"/>
<path d="M208.915 78.391C209.032 78.2784 209.08 77.8554 208.514 77.3672C207.941 76.8672 207.396 77.0386 207.35 77.2045C207.298 77.3678 207.512 77.5629 208.014 78.0027C208.523 78.4401 208.789 78.5143 208.915 78.391Z" fill="#F95C90"/>
<path d="M206.01 76.5553C206.064 76.4123 205.935 76.0333 205.257 75.8454C204.568 75.6496 204.173 76.0151 204.2 76.1749C204.222 76.3349 204.482 76.4145 205.087 76.5872C205.696 76.7547 205.952 76.711 206.01 76.5553Z" fill="#F95C90"/>
</g>
<g opacity="0.1">
<path d="M164.56 129.461C168.94 129.211 174.375 126.243 178.601 124.929C183.603 123.379 188.624 121.888 193.665 120.456C211.215 115.467 228.953 111.216 246.879 107.703C248.552 107.374 250.228 107.053 251.907 106.741C249.292 101.097 245.242 96.2371 240.16 92.6462C240.29 91.4112 240.356 90.1699 240.358 88.9275C240.358 69.2947 224.654 53.379 205.274 53.379C199.308 53.3727 193.442 54.911 188.248 57.8445C174.532 48.8302 156.629 43.3744 137.042 43.3744C109.209 43.3744 84.775 54.391 70.9298 70.9802L135.999 81.9626L175.907 88.6957C130.411 90.0525 84.7744 91.4006 39.4095 88.2167C33.4213 94.0055 29.6311 101.693 28.6868 109.964C27.7425 118.235 29.7031 126.578 34.2327 133.566C34.2327 134.277 34.2625 134.982 34.3159 135.681C35.4714 136.011 36.5872 136.332 37.588 136.542C53.6579 139.934 69.8308 142.772 86.107 145.057C74.1131 152.446 59.5063 153.492 45.6711 156.621C52.3706 162.146 61.4688 165.532 71.4945 165.532H220.773C236.937 165.532 250.039 154.29 250.039 140.42C252.465 136.423 254.081 131.99 254.796 127.372C224.886 130.257 194.603 127.752 164.56 129.461Z" fill="#42C3FF"/>
</g>
<g opacity="0.1">
<path d="M255 121.464C255.016 115.747 253.656 110.111 251.034 105.03C248.412 99.949 244.606 95.5723 239.936 92.2698C240.065 91.0347 240.131 89.7941 240.134 88.5528C240.134 68.9195 224.421 53.0099 205.05 53.0099C199.083 53.0037 193.217 54.5413 188.022 57.4736C174.305 48.4556 156.401 42.9979 136.814 42.9979C104.953 42.9979 77.5277 57.4438 65.3655 78.16C64.6896 78.1202 64.01 78.0991 63.3241 78.0991C43.9511 78.0991 28.2403 94.0142 28.2403 113.647C28.2266 120.582 30.232 127.371 34.0123 133.187C34.0123 150.852 50.6997 165.172 71.2761 165.172H220.559C236.721 165.172 249.822 153.927 249.822 140.057C253.222 134.451 255.013 128.018 255 121.464Z" fill="#E2A064"/>
</g>
<mask id="mask1_1386_4377" style="mask-type:luminance" maskUnits="userSpaceOnUse" x="0" y="0" width="181" height="181">
<path d="M0 0H180.113V180.113H0V0Z" fill="white"/>
</mask>
<g mask="url(#mask1_1386_4377)">
<path d="M74.988 86.2152C74.8167 83.8296 73.1052 82.5906 72.6184 80.8104C71.9778 77.5687 71.7646 75.1018 67.4928 72.8537C66.6106 72.1684 64.9398 69.3889 65.5978 67.8029C66.2312 65.6331 66.447 62.839 68.2196 61.2404C70.2565 59.4033 72.9186 58.9903 74.4484 60.5902C77.0332 66.1315 81.019 66.7813 81.7831 69.3379C82.5527 71.7857 85.0106 73.7977 86.9758 75.7107C88.433 77.1292 90.1399 78.3321 91.2658 80.0251C94.3526 84.6665 91.6694 92.8406 86.6849 92.7907C81.4341 92.4014 75.5098 90.1346 74.988 86.2152Z" fill="#254A5F"/>
<path d="M92.4974 153.596C92.4974 153.596 88.6218 161.51 88.1687 160.045C87.7163 158.579 87.8658 155.059 88.1089 154.557C88.3527 154.054 89.9368 151.834 89.9368 151.834L92.4974 153.596Z" fill="#FFCBA0"/>
<path d="M90.6307 115.09L94.1745 113.735C94.1745 113.735 104.693 133.443 104.649 138.599C104.606 143.755 91.9152 154.436 91.9152 154.436L89.4858 152.436C89.4858 152.436 94.6005 142.041 96.9775 139.436C98.1662 138.134 89.6566 130.626 88.3677 124.484C87.0787 118.342 90.6307 115.09 90.6307 115.09Z" fill="#254A5F"/>
<path d="M88.4296 154.139C88.4296 154.139 87.6818 154.947 87.5664 155.318C87.451 155.688 87.2448 160.708 87.7838 161.045C88.3227 161.382 89.796 158.612 89.796 158.612C89.796 158.612 88.0353 159.992 88.4296 154.15" fill="#254A5F"/>
<path d="M80.4416 156.875C80.4416 156.875 73.192 162.218 73.4935 160.718C73.7961 159.218 75.6211 156.154 76.0784 155.814C76.5368 155.473 79.0123 154.192 79.0123 154.192L80.4416 156.875Z" fill="#FFCBA0"/>
<path d="M80.9903 121.671L91.4763 115.594C91.4763 115.594 89.7232 136.57 87.8373 141.422C85.9644 146.238 80.1666 157.03 80.1666 157.03L78.9688 154.192C78.9688 154.192 80.5761 140.35 82.2205 138.077C84.2196 135.191 80.9903 121.671 80.9903 121.671Z" fill="#254A5F"/>
<path d="M87.2355 111.437C87.2355 111.437 79.5142 114.171 80.9903 121.671C82.4664 129.171 84.9264 130.577 84.9264 130.577L89.3543 123.312L93.7997 113.797L89.3543 113.233L87.2355 111.437Z" fill="#254A5F"/>
<path d="M77.1349 155.183C77.1349 155.183 76.0824 155.64 75.8077 155.915C75.5329 156.189 73.0163 160.536 73.3367 161.086C73.6572 161.635 76.1809 159.771 76.1809 159.771C76.1809 159.771 74.0688 160.171 77.1349 155.183Z" fill="#254A5F"/>
<path d="M90.9128 94.0758C90.9128 94.0758 96.5969 97.2615 96.5969 104.46C96.5969 104.46 95.8751 112.666 94.7047 114.46C94.7047 114.46 92.8022 114.924 90.4302 114.46C87.9431 113.973 85.5362 112.225 85.5362 112.225L83.5936 102.177L82.082 96.3103L82.9013 96.0402L87.1769 95.5709C87.1769 95.5709 86.5623 101.957 91.336 98.7855C92.3414 98.1174 90.0847 94.7878 90.0847 94.7878L90.9128 94.0758Z" fill="#FF6699"/>
<path d="M86.5887 85.1828C87.617 84.9741 90.8686 86.8773 90.2536 91.0701C90.202 91.4221 89.7814 92.211 89.6824 92.5338C89.5569 92.9427 90.7413 94.3648 90.7413 94.3648L87.899 95.4172C87.7365 94.5513 87.8853 93.269 86.9361 92.9329C86.5811 92.8071 86.2042 92.7344 85.8671 92.5698C84.957 92.1251 84.4344 91.0854 84.0302 90.2336C83.7284 89.5973 83.4894 88.9087 83.4651 88.2041C83.4039 86.43 84.9359 85.5185 86.5887 85.1828Z" fill="#FFCBA0"/>
<path d="M92.1522 96.8707C92.1522 95.3732 91.6773 94.8015 90.1056 94.8015C88.5338 94.8015 86.459 95.3732 86.459 96.8707C86.459 98.3686 87.5692 100.243 89.1413 100.243C90.7127 100.243 92.1522 98.3686 92.1522 96.8707Z" fill="#FFCBA0"/>
<path d="M103.176 67.6312C103.723 67.8325 103.319 67.5662 104.012 67.9118C105.413 67.0374 105.564 65.2916 105.564 65.2916C105.564 65.2916 107.874 64.0405 107.597 63.6638C107.318 63.2861 105.26 64.6729 105.26 64.6729C105.26 64.6729 107.093 62.6698 106.748 62.3968C106.402 62.1243 104.477 64.7384 104.477 64.7384C104.477 64.7384 106.11 61.6191 105.555 61.5899C105 61.5611 103.337 64.4198 103.337 64.4198C103.337 64.4198 104.426 61.382 103.949 61.3466C103.471 61.3111 101.969 65.2768 101.969 65.2768C101.028 64.1776 100.151 64.6131 100.151 64.6131L102.138 67.421C102.138 67.421 102.925 67.5391 103.176 67.6312Z" fill="#FFCBA0"/>
<path d="M91.0848 93.873C91.2906 93.022 98.0857 84.9832 99.4637 80.1435C100.842 75.3041 102.891 64.6235 102.891 64.6235L104.701 65.2831C104.701 65.2831 102.192 83.4079 102.212 84.9643C102.266 86.8052 96.5936 94.782 95.9486 97.5223C95.9486 97.5223 90.8791 94.724 91.0848 93.873Z" fill="#FFCBA0"/>
<path d="M54.0356 104.222C53.8233 104.752 53.9172 104.217 53.713 104.956C52.1415 105.304 50.7305 104.196 50.7305 104.196C50.7305 104.196 48.2785 104.908 48.1845 104.438C48.0898 103.967 50.4751 103.531 50.4751 103.531C50.4751 103.531 47.7841 103.361 47.8118 102.919C47.8389 102.477 51.0403 103.029 51.0403 103.029C51.0403 103.029 47.6591 101.904 48.005 101.493C48.3511 101.082 51.5603 101.997 51.5603 101.997C51.5603 101.997 48.5981 100.549 48.8882 100.187C49.1777 99.8262 53.2392 101.656 53.2392 101.656C52.8376 100.34 53.7597 100.15 53.7597 100.15L54.5838 103.404C54.5838 103.404 54.134 103.978 54.0356 104.222Z" fill="#FFCBA0"/>
<path d="M83.7975 97.1521C83.7975 97.1521 81.074 94.8443 75.9909 98.5486C69.8904 103.044 53.4586 102.528 53.4586 102.528L53.3501 104.357C53.3501 104.357 67.617 106.99 70.992 105.368C74.3674 103.745 78.5892 101.751 79.1279 102.471C79.6656 103.192 85.8371 101.793 83.7975 97.1521Z" fill="#FFCBA0"/>
<path d="M95.2852 101.355L97.5609 95.0739C97.5609 95.0739 97.2098 92.1277 92.7183 91.0716L90.1738 94.7383L95.2852 101.355Z" fill="#FF6699"/>
<path d="M82.9589 96.0335C82.9589 96.0335 80.2885 95.7477 76.5703 99.0025C76.5703 99.0025 77.8661 102.437 80.9689 103.437C80.9689 103.437 88.7447 98.8963 82.9589 96.0335Z" fill="#FF6699"/>
<path d="M68.7661 75.6176C68.7877 75.5965 69.061 75.8229 69.4992 76.2907C69.9353 76.7593 70.5341 77.4748 71.146 78.4492C71.7602 79.4193 72.3809 80.6578 72.8492 82.106C73.3314 83.5434 73.6847 85.1669 74.3959 86.7143C74.7637 87.478 75.1987 88.1847 75.7068 88.8039C76.2189 89.4188 76.7806 89.9535 77.3544 90.4159C78.5245 91.3132 79.7353 91.9125 80.8049 92.2418C81.8737 92.5764 82.7826 92.7069 83.4112 92.74C84.0402 92.7808 84.3939 92.775 84.3964 92.8157C84.399 92.8413 84.049 92.9111 83.406 92.9279C82.7638 92.9522 81.8238 92.8723 80.7071 92.5691C79.5899 92.2712 78.316 91.684 77.082 90.7684C76.4761 90.297 75.8826 89.7453 75.3416 89.1054C74.8049 88.4618 74.3419 87.7183 73.9572 86.9177C73.2161 85.3002 72.8776 83.6612 72.425 82.2422C71.9895 80.8174 71.4187 79.6006 70.8533 78.6259C70.2909 77.6489 69.743 76.9131 69.3558 76.4127C68.9665 75.9131 68.7395 75.6431 68.7661 75.6176Z" fill="#254A5F"/>
<path d="M83.0265 66.8274C83.1131 66.8101 83.2513 67.9785 83.9862 69.6819C84.3525 70.5305 84.8851 71.5018 85.6296 72.466C86.002 72.9488 86.427 73.4214 86.9046 73.8903C87.3793 74.3617 87.8946 74.8387 88.3857 75.3777C89.3708 76.4659 90.0683 77.6586 90.7224 78.7096C91.3721 79.7714 91.8974 80.7853 92.1831 81.7013C92.4784 82.6133 92.5296 83.4079 92.4731 83.939C92.4132 84.4728 92.2936 84.7476 92.2715 84.7412C92.2292 84.7322 92.2845 84.4459 92.2851 83.931C92.2821 83.4174 92.1832 82.6736 91.8599 81.8128C91.5457 80.9485 91.0081 79.9827 90.3444 78.9448C89.6715 77.9076 88.9684 76.7398 88.0279 75.7028C87.5553 75.1837 87.0475 74.7089 86.5695 74.2253C86.0888 73.7446 85.649 73.2413 85.2746 72.7346C84.5228 71.7201 84.0052 70.6991 83.6698 69.8111C83.3277 68.9237 83.1646 68.1691 83.0803 67.6479C82.9964 67.1252 82.9992 66.8311 83.0265 66.8274Z" fill="#254A5F"/>
<path d="M86.4863 93.2949C86.4863 93.2949 87.2522 93.4507 88.2284 93.2066C88.2284 93.2066 87.7471 93.6744 86.9609 93.7828C86.9609 93.7828 86.7846 93.4574 86.4863 93.2949Z" fill="#FFCBA0"/>
<path d="M87.7196 89.6582C87.7135 89.6247 87.9061 89.5853 88.0794 89.3616C88.1193 89.3104 88.1589 89.2358 88.1563 89.1936C88.1532 89.1483 88.1176 89.0711 88.0615 89.0282C88.0022 88.9802 87.9389 88.9584 87.856 88.9706C87.7709 88.9808 87.6681 89.0281 87.5327 89.0547C87.2358 89.1079 86.9951 88.9498 86.8357 88.8201C86.6717 88.6835 86.5446 88.5432 86.449 88.4165C86.2589 88.1614 86.1947 87.9738 86.2215 87.9588C86.252 87.9405 86.3671 88.0927 86.5781 88.3043C86.6836 88.4094 86.8162 88.5298 86.9717 88.6442C87.1247 88.7552 87.3105 88.8538 87.4891 88.8172C87.5842 88.8009 87.6932 88.7512 87.8288 88.7356C87.9663 88.7159 88.1224 88.7722 88.211 88.8633C88.305 88.9558 88.3605 89.0685 88.3564 89.2039C88.3357 89.3439 88.2655 89.4116 88.2074 89.4748C87.9554 89.7165 87.7126 89.6899 87.7196 89.6582Z" fill="#F95C90"/>
<path d="M89.1359 89.7925L86.8874 90.7278C86.8874 90.7278 88.9043 92.3374 89.1359 89.7925Z" fill="#D35982"/>
<path d="M86.6151 89.765C86.7144 89.9345 86.5905 90.1912 86.3384 90.3389C86.0862 90.4866 85.8016 90.4693 85.7024 90.2998C85.6031 90.1307 85.727 89.8737 85.9792 89.726C86.2313 89.5782 86.5159 89.5956 86.6151 89.765Z" fill="#FFCBA0"/>
<path d="M89.2617 88.2521C89.3448 88.43 89.1977 88.674 88.9329 88.7977C88.6681 88.9213 88.3861 88.8775 88.303 88.6995C88.2199 88.5216 88.3673 88.2775 88.6322 88.1539C88.897 88.0302 89.1786 88.0741 89.2617 88.2521Z" fill="#FFCBA0"/>
<path d="M87.6051 87.8124C87.6941 87.8813 87.7109 88.0094 87.642 88.0984C87.5732 88.1875 87.445 88.2042 87.356 88.1354C87.2669 88.0665 87.2502 87.9384 87.3191 87.8494C87.3879 87.7603 87.516 87.7436 87.6051 87.8124Z" fill="#2B383F"/>
<path d="M86.1091 88.7664C86.1982 88.8353 86.2146 88.9634 86.1457 89.0525C86.0769 89.1415 85.9487 89.1583 85.8597 89.0894C85.7706 89.0206 85.7543 88.8924 85.8231 88.8034C85.892 88.7143 86.0201 88.6976 86.1091 88.7664Z" fill="#2B383F"/>
<path d="M87.5763 86.9616C87.5588 87.0275 87.3679 87.0341 87.161 87.1072C86.9521 87.1741 86.7961 87.2844 86.7421 87.2425C86.6866 87.2073 86.801 86.9729 87.0841 86.8783C87.3667 86.7827 87.5992 86.9 87.5763 86.9616Z" fill="#2B383F"/>
<path d="M84.9936 88.6854C84.9409 88.6498 85.0107 88.4276 85.1965 88.2001C85.3839 87.9676 85.6339 87.8816 85.6631 87.9426C85.6943 88.0021 85.5461 88.1507 85.3818 88.3551C85.2146 88.5588 85.051 88.7243 84.9936 88.6854Z" fill="#2B383F"/>
<path d="M84.2096 90.4226C84.2096 90.4226 83.4486 89.8398 83.1218 90.4132C82.795 90.9865 84.7443 91.192 84.7443 91.192L84.2096 90.4226Z" fill="#FFCBA0"/>
</g>
<mask id="mask2_1386_4377" style="mask-type:luminance" maskUnits="userSpaceOnUse" x="54" y="15" width="174" height="153">
<path d="M54.6914 15.507H227.93V167.09H54.6914V15.507Z" fill="white"/>
</mask>
<g mask="url(#mask2_1386_4377)">
<mask id="mask3_1386_4377" style="mask-type:luminance" maskUnits="userSpaceOnUse" x="65" y="15" width="153" height="153">
<path d="M65.0527 15.507H217.383V167.837H65.0527V15.507Z" fill="white"/>
</mask>
<g mask="url(#mask3_1386_4377)">
<mask id="mask4_1386_4377" style="mask-type:luminance" maskUnits="userSpaceOnUse" x="65" y="15" width="153" height="153">
<path d="M217.383 15.507H65.0526V167.837H217.383V15.507Z" fill="white"/>
</mask>
<g mask="url(#mask4_1386_4377)">
<g opacity="0.5">
<path d="M151.291 38.5115L149.588 37.7696L148.504 40.2564L150.207 40.9983L151.291 38.5115Z" fill="#FF1E69"/>
</g>
<path d="M186.935 34.1981L185.513 33.0649L183.798 35.2169L185.221 36.35L186.935 34.1981Z" fill="#E2A064"/>
<g opacity="0.5">
<path d="M169.342 27.9785L168.462 27.9159L168.263 30.7153L169.143 30.7778L169.342 27.9785Z" fill="#E2A064"/>
</g>
<path d="M149.675 33.1135L148.824 32.7426L147.74 35.2293L148.592 35.6003L149.675 33.1135Z" fill="#FF3377"/>
<g opacity="0.5">
<path d="M180.455 44.7051L180.674 43.6659L182.028 43.2439L180.788 42.947L180.896 41.9131L179.911 42.7687L178.624 42.5518L179.256 43.3776L178.352 44.2773L179.727 43.932L180.455 44.7051Z" fill="#FF1E69"/>
</g>
<path d="M151.685 24.8351L150.847 24.2587L150.915 22.7735L150.255 23.8972L149.386 23.4313L149.816 24.7022L149.211 25.8994L150.137 25.5612L150.631 26.767L150.774 25.2871L151.685 24.8351Z" fill="#FF3377"/>
<g opacity="0.5">
<path d="M134.337 21.7248C134.117 20.979 133.562 20.4844 133.098 20.621C132.634 20.7575 132.436 21.4739 132.655 22.2197C132.875 22.9655 133.43 23.4601 133.894 23.3236C134.358 23.187 134.556 22.4706 134.337 21.7248Z" fill="#21AEFF"/>
</g>
<path d="M170.726 57.2167C170.965 57.8727 171.589 58.2489 172.118 58.0562C172.646 57.8634 172.882 57.1743 172.642 56.5182C172.403 55.8622 171.78 55.486 171.251 55.6788C170.722 55.8715 170.487 56.5606 170.726 57.2167Z" fill="#E2A064"/>
<path d="M177.006 25.3038C176.152 27.1794 174.729 28.9801 175.04 30.94C175.493 33.7998 179.57 35.1953 180.023 38.0551C180.444 40.7166 177.349 43.1149 177.414 45.7497" stroke="#E2A064" stroke-width="1.03951" stroke-linecap="round" stroke-linejoin="round"/>
<path d="M170.202 7.82968C170.315 8.15647 170.387 8.49589 170.406 8.85186C170.557 11.7433 166.86 13.9559 167.011 16.8474C167.16 19.682 171.064 21.4196 171.213 24.2542C171.258 25.1209 170.944 25.9222 170.49 26.6982" stroke="#FF3377" stroke-width="0.961259" stroke-linecap="round" stroke-linejoin="round"/>
<g opacity="0.5">
<path d="M157.431 31.5215L160.113 32.2711L160.593 30.5511L157.912 29.8016L157.431 31.5215Z" fill="#FF3377"/>
</g>
<path d="M192.1 34.7219L194.705 33.8012L194.103 32.0974L191.498 33.0182L192.1 34.7219Z" fill="#FF3377"/>
<g opacity="0.5">
<path d="M177.096 30.051L178.496 29.9515L178.37 28.1924L176.971 28.292L177.096 30.051Z" fill="#FF1E69"/>
</g>
<path d="M157.378 34.6331L157.085 33.3088L155.272 33.7099L155.564 35.0342L157.378 34.6331Z" fill="#E2A064"/>
<g opacity="0.5">
<path d="M190.223 62.2438L189.169 61.461L189.489 60.4279L188.418 60.9407L187.305 60.2234L187.697 61.3231L186.689 61.9129L188.003 62.0797L188.493 63.1616L188.913 62.165L190.223 62.2438Z" fill="#21AEFF"/>
</g>
<path d="M155.884 24.8907L157.299 25.1148L157.424 26.0422L158.291 25.2449L159.737 25.3959L158.858 24.6791L159.627 23.8451L158.217 24.1993L157.246 23.5328L157.253 24.4686L155.884 24.8907Z" fill="#FF3377"/>
<g opacity="0.5">
<path d="M119.359 28.9849C119.703 29.3517 120.431 29.2285 120.984 28.71C121.538 28.1915 121.708 27.4726 121.365 27.1058C121.021 26.739 120.293 26.8622 119.739 27.3808C119.186 27.8993 119.015 28.6182 119.359 28.9849Z" fill="#FF1E69"/>
</g>
<path d="M172.258 38.6716C172.14 39.1804 172.628 39.7293 173.348 39.8965C174.067 40.0637 174.747 39.7864 174.866 39.2776C174.984 38.7687 174.496 38.2198 173.776 38.0526C173.057 37.8854 172.377 38.1627 172.258 38.6716Z" fill="#E2A064"/>
<path d="M172.981 5.20899C172.578 5.88216 172.3 6.58878 172.28 7.36808C172.207 10.2626 175.962 12.3749 175.889 15.2694C175.816 18.1069 171.96 19.949 171.888 22.7865C171.872 23.4107 172.041 23.9961 172.315 24.56" stroke="#FF3377" stroke-width="0.978997"/>
</g>
<mask id="mask5_1386_4377" style="mask-type:luminance" maskUnits="userSpaceOnUse" x="65" y="15" width="153" height="153">
<path d="M65.0527 15.507H217.383V167.837H65.0527V15.507Z" fill="white"/>
</mask>
<g mask="url(#mask5_1386_4377)">
<g opacity="0.5">
<path d="M135.265 57.6491L133.886 59.098L132.025 57.3263L133.404 55.8775L135.265 57.6491Z" fill="#FF1E69"/>
</g>
<path d="M100.337 48.746L99.3036 50.3866L97.0777 48.9842L98.1113 47.3436L100.337 48.746Z" fill="#E2A064"/>
<g opacity="0.5">
<path d="M113.101 42.5088L112.282 42.9613L110.978 40.5996L111.797 40.1471L113.101 42.5088Z" fill="#E2A064"/>
</g>
<path d="M125.931 51.0856L125.242 51.81L123.381 50.0383L124.07 49.3139L125.931 51.0856Z" fill="#FF3377"/>
<g opacity="0.5">
<path d="M100.279 64.4944L101.381 64.7258L102.194 63.6788L102.133 64.92L103.199 65.2483L102.059 65.784L101.906 67.034L101.261 66.1238L100.101 66.568L100.842 65.4698L100.279 64.4944Z" fill="#FF1E69"/>
</g>
<path d="M128.013 35.9845L127.437 36.8682L128.094 38.1381L127.013 37.4525L126.365 38.2535L126.272 36.946L125.214 36.1712L126.238 36.0487L126.233 34.7688L126.958 36.0006L128.013 35.9845Z" fill="#FF3377"/>
<g opacity="0.5">
<path d="M140.511 31.8377C140.643 32.5733 140.339 33.2441 139.833 33.3348C139.328 33.4256 138.81 32.902 138.678 32.1665C138.546 31.431 138.849 30.7601 139.355 30.6694C139.861 30.5787 140.379 31.1022 140.511 31.8377Z" fill="#21AEFF"/>
</g>
<path d="M104.026 85.2681C103.545 84.846 103.487 84.1242 103.896 83.6575C104.306 83.1907 105.029 83.1544 105.51 83.5766C105.991 83.9987 106.05 84.7205 105.64 85.1872C105.231 85.654 104.508 85.6902 104.026 85.2681Z" fill="#E2A064"/>
<path d="M107.91 44.0406C107.257 46.7231 103.42 48.1194 102.981 50.8887C102.537 53.6922 105.995 56.2036 105.551 59.0072C105.376 60.1126 104.638 60.9873 103.781 61.8133" stroke="#E2A064" stroke-width="0.942514" stroke-linecap="round" stroke-linejoin="round"/>
<path d="M116.081 36.7899C116.67 37.7238 117.121 38.6823 117.066 39.7298C116.917 42.5644 113.013 44.302 112.864 47.1366C112.752 49.2787 114.838 51.0219 115.8 52.9691" stroke="#FF3377" stroke-width="0.858231" stroke-linecap="round" stroke-linejoin="round"/>
<g opacity="0.5">
<path d="M124.559 44.8139L127.166 45.3362L126.791 47.21L124.184 46.6876L124.559 44.8139Z" fill="#FF3377"/>
</g>
<path d="M90.5438 46.017L92.5497 47.7353L91.295 49.2L89.2891 47.4817L90.5438 46.017Z" fill="#FF3377"/>
<g opacity="0.5">
<path d="M103.038 40.1413L104.219 40.7935L103.314 42.432L102.133 41.7798L103.038 40.1413Z" fill="#FF1E69"/>
</g>
<path d="M117.995 51.2679L116.795 51.7253L116.083 49.856L117.283 49.3987L117.995 51.2679Z" fill="#E2A064"/>
<g opacity="0.5">
<path d="M95.2974 90.3076L94.2261 89.713L93.298 90.4621L93.4996 89.2721L92.4761 88.5954L93.672 88.4546L93.9675 87.2873L94.505 88.3902L95.7111 88.3454L94.8475 89.1679L95.2974 90.3076Z" fill="#21AEFF"/>
</g>
<path d="M117.396 35.6848L118.736 36.0324L119.265 35.1921L119.664 36.3022L120.999 36.7324L119.905 37.0708L120.201 38.177L119.126 37.2761L117.974 37.5296L118.404 36.6343L117.396 35.6848Z" fill="#FF3377"/>
<g opacity="0.5">
<path d="M151.414 39.4415C151.897 39.2086 152.545 39.5496 152.86 40.2025C153.175 40.8554 153.038 41.5747 152.555 41.8076C152.072 42.0405 151.425 41.6995 151.11 41.0466C150.795 40.3937 150.931 39.6744 151.414 39.4415Z" fill="#FF1E69"/>
</g>
<path d="M100.935 60.3369C101.083 59.7856 101.745 59.4836 102.411 59.663C103.078 59.8424 103.498 60.4358 103.35 60.9871C103.201 61.5385 102.54 61.8405 101.873 61.6611C101.207 61.4816 100.787 60.8883 100.935 60.3369Z" fill="#E2A064"/>
<path d="M105.981 37.3028C105.146 38.448 104.38 39.6073 104.414 40.93C104.486 43.7676 108.342 45.6096 108.414 48.4472C108.465 50.4227 106.659 52.0094 105.581 53.7488" stroke="#FF3377" stroke-width="0.87045"/>
<path d="M104.608 24.5516C105.156 26.7099 106.889 28.889 106.355 31.0284C105.669 33.7826 101.504 34.7432 100.818 37.4974C100.467 38.9047 101.137 40.3249 101.786 41.7446" stroke="#FF1E69" stroke-width="0.912203"/>
</g>
</g>
<mask id="mask6_1386_4377" style="mask-type:luminance" maskUnits="userSpaceOnUse" x="54" y="27" width="91" height="135">
<path d="M54.6914 27.0811H144.297V161.49H54.6914V27.0811Z" fill="white"/>
</mask>
<g mask="url(#mask6_1386_4377)">
<mask id="mask7_1386_4377" style="mask-type:luminance" maskUnits="userSpaceOnUse" x="28" y="12" width="150" height="150">
<path d="M28.5566 12.1467H177.9V161.49H28.5566V12.1467Z" fill="white"/>
</mask>
<g mask="url(#mask7_1386_4377)">
<g opacity="0.5">
<path d="M121.512 67.7532L118.672 66.8278L119.529 64.1966L122.369 65.122L121.512 67.7532Z" fill="#FF1E69"/>
</g>
<path d="M111.193 98.8366L108.453 100.025L107.562 97.9721L110.303 96.7838L111.193 98.8366Z" fill="#E2A064"/>
<g opacity="0.5">
<path d="M85.9992 76.8858L84.6558 76.2334L85.8597 73.7543L87.2031 74.4067L85.9992 76.8858Z" fill="#E2A064"/>
</g>
<path d="M100.034 77.6918L98.992 78.0685L97.9761 75.2597L99.0176 74.883L100.034 77.6918Z" fill="#FF3377"/>
<g opacity="0.5">
<path d="M110.682 85.5876L110.78 87.1375L112.04 87.5024L110.811 88.2177L110.804 89.7825L109.946 88.6747L108.681 89.2768L109.38 87.8768L108.606 86.6842L109.895 86.9268L110.682 85.5876Z" fill="#FF1E69"/>
</g>
<path d="M122.588 58.2481L121.729 59.5581L122.568 60.7276L121.099 60.4454L120.142 61.6939L120.093 60.2095L118.662 59.8116L120.101 59.1764L120.174 57.682L121.112 58.7738L122.588 58.2481Z" fill="#FF3377"/>
<g opacity="0.5">
<path d="M73.1382 86.8709C73.7857 87.0726 74.1126 87.8753 73.8675 88.6622C73.6225 89.4492 72.8977 89.9244 72.2502 89.7228C71.6026 89.5211 71.2758 88.7184 71.5208 87.9315C71.7659 87.1445 72.4906 86.6693 73.1382 86.8709Z" fill="#21AEFF"/>
</g>
<path d="M77.035 60.5478C77.4218 61.1849 77.1639 62.0496 76.4594 62.4773C75.7549 62.9051 74.8688 62.7351 74.4819 62.098C74.095 61.4608 74.3529 60.5962 75.0574 60.1684C75.762 59.7406 76.6481 59.9106 77.035 60.5478Z" fill="#E2A064"/>
<g opacity="0.5">
<path d="M91.8984 54.0458L92.4877 51.4241L95.4019 52.0792L94.8125 54.7009L91.8984 54.0458Z" fill="#FF1E69"/>
</g>
<path d="M85.943 40.7098L88.1796 42.4168L86.3674 44.7912L84.1309 43.0842L85.943 40.7098Z" fill="#FF3377"/>
<g opacity="0.5">
<path d="M98.2889 61.0245L98.4575 59.6986L101.421 60.0754L101.252 61.4013L98.2889 61.0245Z" fill="#FF1E69"/>
</g>
<path d="M107.824 67.7569L108.645 66.6216L111.065 68.3717L110.244 69.507L107.824 67.7569Z" fill="#E2A064"/>
<g opacity="0.5">
<path d="M80.621 88.8736L79.5992 89.4793L79.6416 91.0612L78.8786 89.8586L77.8227 90.3464L78.3729 88.9973L77.6779 87.7169L78.781 88.0858L79.4074 86.8067L79.5389 88.3837L80.621 88.8736Z" fill="#21AEFF"/>
</g>
<path d="M89.3127 79.9278L90.4514 79.1491L90.204 77.5858L91.2604 78.6475L92.4543 77.9799L91.9685 79.4148L92.9537 80.5656L91.5971 80.3907L91.0121 81.7694L90.6595 80.2264L89.3127 79.9278Z" fill="#FF3377"/>
<g opacity="0.5">
<path d="M89.1452 104.363C89.0842 105.185 88.5648 105.817 87.9862 105.774C87.4075 105.731 86.9873 105.029 87.0483 104.207C87.1094 103.385 87.6288 102.753 88.2074 102.796C88.7861 102.839 89.2063 103.541 89.1452 104.363Z" fill="#FF1E69"/>
</g>
<path d="M97.6437 76.0186C97.4309 75.2223 97.8051 74.4296 98.4788 74.2495C99.1525 74.0695 99.8723 74.5698 100.085 75.3661C100.298 76.1623 99.9237 76.955 99.25 77.1351C98.5763 77.3152 97.8565 76.8149 97.6437 76.0186Z" fill="#E2A064"/>
</g>
</g>
<mask id="mask8_1386_4377" style="mask-type:luminance" maskUnits="userSpaceOnUse" x="138" y="32" width="90" height="136">
<path d="M138.324 32.6815H227.93V167.091H138.324V32.6815Z" fill="white"/>
</mask>
<g mask="url(#mask8_1386_4377)">
<mask id="mask9_1386_4377" style="mask-type:luminance" maskUnits="userSpaceOnUse" x="104" y="17" width="150" height="151">
<path d="M253.693 17.7472H104.35V167.09H253.693V17.7472Z" fill="white"/>
</mask>
<g mask="url(#mask9_1386_4377)">
<g opacity="0.5">
<path d="M160.11 63.7113L157.367 62.5297L156.229 65.1705L158.973 66.3521L160.11 63.7113Z" fill="#FF1E69"/>
</g>
<path d="M169.82 84.3999L167.372 86.1112L168.888 88.2803L171.336 86.569L169.82 84.3999Z" fill="#E2A064"/>
<g opacity="0.5">
<path d="M195.179 72.5484L193.716 72.2465L193.137 75.0526L194.6 75.3545L195.179 72.5484Z" fill="#E2A064"/>
</g>
<path d="M172.488 57.0496L171.55 57.9619L173.632 60.1031L174.57 59.1908L172.488 57.0496Z" fill="#FF3377"/>
<g opacity="0.5">
<path d="M167.42 82.2525L167.229 80.6986L168.493 80.0272L167.057 79.6247L166.752 78.0821L166.056 79.3873L164.603 79.1054L165.609 80.3145L165.016 81.6828L166.334 81.1249L167.42 82.2525Z" fill="#FF1E69"/>
</g>
<path d="M158.438 57.1308L158.526 55.5581L159.962 55.0737L158.545 54.4654L158.512 52.8875L157.549 54.0843L156.093 53.5935L156.914 54.9414L156.047 56.216L157.518 55.8523L158.438 57.1308Z" fill="#FF3377"/>
<g opacity="0.5">
<path d="M208.717 80.8948C209.339 80.4937 209.481 79.6057 209.034 78.913C208.587 78.2203 207.72 77.9835 207.098 78.3846C206.476 78.7856 206.334 79.6737 206.78 80.3663C207.227 81.059 208.095 81.2958 208.717 80.8948Z" fill="#21AEFF"/>
</g>
<path d="M206.025 57.6423C206.722 57.281 206.98 56.3935 206.601 55.6617C206.222 54.9298 205.348 54.629 204.651 54.9903C203.954 55.3515 203.695 56.239 204.075 56.9708C204.454 57.7027 205.328 58.0035 206.025 57.6423Z" fill="#E2A064"/>
<path d="M156.887 68.1708C156.914 68.1262 156.941 68.0824 156.967 68.0395" stroke="#E2A064" stroke-width="0.201068" stroke-linecap="round" stroke-linejoin="round"/>
<g opacity="0.5">
<path d="M181.478 48.9055L183.959 50.2731L185.401 47.6574L182.92 46.2898L181.478 48.9055Z" fill="#FF1E69"/>
</g>
<path d="M195.43 41.7037L195.08 38.8104L192.114 39.1695L192.465 42.0628L195.43 41.7037Z" fill="#FF3377"/>
<g opacity="0.5">
<path d="M175.31 57.1997L176.428 58.0591L178.248 55.6915L177.131 54.832L175.31 57.1997Z" fill="#FF1E69"/>
</g>
<path d="M170.559 68.792L171.952 68.3795L171.104 65.5156L169.711 65.9281L170.559 68.792Z" fill="#E2A064"/>
<g opacity="0.5">
<path d="M199.425 74.3697L199.071 73.0644L200.266 72.0263L198.787 72.1765L198.32 70.9215L197.759 72.3196L196.276 72.5822L197.409 73.2961L196.959 74.7133L198.22 73.7564L199.425 74.3697Z" fill="#21AEFF"/>
</g>
<path d="M186.344 73.0899L187.827 73.0236L188.53 74.4417L188.849 72.9346L190.315 72.7443L189.03 71.8792L189.233 70.3435L188.12 71.3159L186.779 70.557L187.376 72.0232L186.344 73.0899Z" fill="#FF3377"/>
<g opacity="0.5">
<path d="M187.872 91.6481C187.708 90.8403 187.034 90.2939 186.368 90.4288C185.702 90.5637 185.294 91.3291 185.458 92.1369C185.621 92.9447 186.295 93.4911 186.961 93.3563C187.627 93.2214 188.035 92.456 187.872 91.6481Z" fill="#FF1E69"/>
</g>
<path d="M179.404 67.7757C179.64 68.5655 180.422 69.0302 181.151 68.8128C181.879 68.5953 182.279 67.7776 182.043 66.9878C181.807 66.198 181.025 65.7333 180.296 65.9507C179.568 66.1681 179.168 66.9859 179.404 67.7757Z" fill="#E2A064"/>
</g>
</g>
<mask id="mask10_1386_4377" style="mask-type:luminance" maskUnits="userSpaceOnUse" x="87" y="24" width="91" height="135">
<path d="M87.5469 24.0943H177.153V158.503H87.5469V24.0943Z" fill="white"/>
</mask>
<g mask="url(#mask10_1386_4377)">
<mask id="mask11_1386_4377" style="mask-type:luminance" maskUnits="userSpaceOnUse" x="53" y="9" width="150" height="150">
<path d="M202.916 9.15994H53.5727V158.503H202.916V9.15994Z" fill="white"/>
</mask>
<g mask="url(#mask11_1386_4377)">
<g opacity="0.5">
<path d="M109.333 55.1242L106.59 53.9426L105.452 56.5834L108.195 57.765L109.333 55.1242Z" fill="#FF1E69"/>
</g>
<path d="M119.042 75.8129L116.594 77.5241L118.111 79.6932L120.559 77.9819L119.042 75.8129Z" fill="#E2A064"/>
<g opacity="0.5">
<path d="M144.401 63.9613L142.939 63.6594L142.36 66.4655L143.822 66.7674L144.401 63.9613Z" fill="#E2A064"/>
</g>
<path d="M121.711 48.4625L120.772 49.3748L122.855 51.5161L123.793 50.6037L121.711 48.4625Z" fill="#FF3377"/>
<g opacity="0.5">
<path d="M116.643 73.6654L116.452 72.1115L117.716 71.4401L116.28 71.0376L115.975 69.495L115.278 70.8002L113.826 70.5183L114.831 71.7274L114.239 73.0957L115.557 72.5379L116.643 73.6654Z" fill="#FF1E69"/>
</g>
<path d="M107.661 48.5437L107.749 46.971L109.184 46.4866L107.768 45.8783L107.735 44.3004L106.772 45.4972L105.316 45.0064L106.137 46.3543L105.27 47.6289L106.741 47.2652L107.661 48.5437Z" fill="#FF3377"/>
<g opacity="0.5">
<path d="M157.939 72.3077C158.561 71.9066 158.703 71.0186 158.257 70.3259C157.81 69.6333 156.942 69.3965 156.321 69.7975C155.699 70.1986 155.556 71.0866 156.003 71.7793C156.45 72.472 157.317 72.7087 157.939 72.3077Z" fill="#21AEFF"/>
</g>
<path d="M155.248 49.0552C155.945 48.6939 156.203 47.8064 155.824 47.0746C155.445 46.3427 154.571 46.0419 153.874 46.4032C153.176 46.7644 152.918 47.6519 153.297 48.3837C153.676 49.1156 154.55 49.4164 155.248 49.0552Z" fill="#E2A064"/>
<path d="M106.109 59.5837C106.137 59.5391 106.163 59.4953 106.19 59.4524" stroke="#E2A064" stroke-width="0.201068" stroke-linecap="round" stroke-linejoin="round"/>
<g opacity="0.5">
<path d="M130.701 40.3184L133.181 41.686L134.623 39.0703L132.143 37.7027L130.701 40.3184Z" fill="#FF1E69"/>
</g>
<path d="M144.653 33.1166L144.302 30.2233L141.337 30.5824L141.688 33.4757L144.653 33.1166Z" fill="#FF3377"/>
<g opacity="0.5">
<path d="M124.533 48.6124L125.65 49.4719L127.471 47.1042L126.354 46.2448L124.533 48.6124Z" fill="#FF1E69"/>
</g>
<path d="M119.782 60.2049L121.175 59.7924L120.326 56.9285L118.934 57.3411L119.782 60.2049Z" fill="#E2A064"/>
<g opacity="0.5">
<path d="M148.648 65.7827L148.294 64.4774L149.489 63.4392L148.009 63.5894L147.542 62.3344L146.982 63.7326L145.499 63.9951L146.631 64.709L146.182 66.1262L147.442 65.1693L148.648 65.7827Z" fill="#21AEFF"/>
</g>
<path d="M135.567 64.5028L137.049 64.4365L137.752 65.8546L138.072 64.3475L139.538 64.1572L138.253 63.2921L138.456 61.7564L137.342 62.7288L136.002 61.9699L136.598 63.4361L135.567 64.5028Z" fill="#FF3377"/>
<g opacity="0.5">
<path d="M137.094 83.061C136.931 82.2532 136.257 81.7068 135.591 81.8417C134.925 81.9766 134.517 82.742 134.68 83.5498C134.844 84.3576 135.518 84.904 136.184 84.7692C136.85 84.6343 137.258 83.8689 137.094 83.061Z" fill="#FF1E69"/>
</g>
<path d="M128.626 59.1886C128.862 59.9784 129.645 60.4431 130.373 60.2257C131.102 60.0083 131.501 59.1905 131.266 58.4007C131.03 57.6109 130.247 57.1462 129.519 57.3636C128.791 57.581 128.391 58.3988 128.626 59.1886Z" fill="#E2A064"/>
</g>
</g>
</g>
</svg>
