<svg width="24" height="24" viewBox="0 0 24 24" fill="none" xmlns="http://www.w3.org/2000/svg">
<path fill-rule="evenodd" clip-rule="evenodd" d="M11.9995 21C13.6254 21.0001 15.2209 20.5598 16.6166 19.7259C18.0123 18.8919 19.1561 17.6955 19.9263 16.2636C20.6965 14.8318 21.0645 13.218 20.9911 11.5938C20.9177 9.96956 20.4057 8.39556 19.5095 7.039L12.3545 14.989C12.0203 15.3604 11.5592 15.5933 11.0619 15.6418C10.5646 15.6903 10.0672 15.5509 9.66752 15.251L6.39952 12.8C6.18734 12.6409 6.04707 12.404 6.00957 12.1414C5.97206 11.8789 6.04039 11.6122 6.19952 11.4C6.35865 11.1878 6.59554 11.0476 6.8581 11.0101C7.12065 10.9725 7.38734 11.0409 7.59952 11.2L10.8675 13.651L18.2135 5.49C17.1493 4.47411 15.8523 3.7346 14.436 3.33622C13.0197 2.93784 11.5274 2.89274 10.0896 3.20487C8.6519 3.517 7.31259 4.17684 6.18899 5.12661C5.06539 6.07639 4.19176 7.28713 3.64459 8.65284C3.09743 10.0185 2.89342 11.4976 3.05042 12.9604C3.20742 14.4233 3.72064 15.8253 4.54516 17.0438C5.36967 18.2623 6.48033 19.2601 7.77989 19.9498C9.07945 20.6395 10.5283 21.0001 11.9995 21Z" fill="#EE9C58"/>
</svg>
