<svg width="61" height="61" viewBox="0 0 61 61" fill="none" xmlns="http://www.w3.org/2000/svg">
<path d="M24.7304 32.4571C25.2557 32.4571 25.7132 32.2622 26.1029 31.8725C26.4926 31.4828 26.6875 31.0253 26.6875 30.5C26.6875 29.9747 26.4926 29.5172 26.1029 29.1275C25.7132 28.7378 25.2557 28.5429 24.7304 28.5429C24.2068 28.5429 23.7502 28.7378 23.3605 29.1275C22.9707 29.5172 22.7759 29.9747 22.7759 30.5C22.7759 31.0253 22.9707 31.4828 23.3605 31.8725C23.7502 32.2622 24.2077 32.4571 24.733 32.4571M36.267 32.4571C36.7923 32.4571 37.2498 32.2622 37.6395 31.8725C38.0293 31.4828 38.2241 31.0253 38.2241 30.5C38.2241 29.9747 38.0293 29.5172 37.6395 29.1275C37.2498 28.7378 36.7923 28.5429 36.267 28.5429C35.7418 28.5429 35.2843 28.7378 34.8945 29.1275C34.5065 29.5172 34.3125 29.9747 34.3125 30.5C34.3125 31.0253 34.5074 31.4828 34.8971 31.8725C35.2868 32.2622 35.7443 32.4571 36.2696 32.4571M12.7083 50.8334C12.3474 50.8334 12.0458 50.7105 11.8035 50.4648C11.5612 50.2191 11.4392 49.9141 11.4375 49.5498C11.4375 49.2058 11.5731 48.9373 11.8442 48.7441C12.117 48.5492 12.405 48.3984 12.7083 48.2917H13.9792V14.2715C13.9792 13.143 14.3816 12.1771 15.1865 11.374C15.9896 10.5691 16.9555 10.1667 18.084 10.1667H29.5215V48.2917H31.4785V10.1667H42.9059C44.0496 10.1667 45.0214 10.5691 45.8212 11.374C46.6209 12.1771 47.0208 13.143 47.0208 14.2715V48.2917H48.2917C48.6526 48.2917 48.9542 48.4137 49.1965 48.6577C49.4388 48.9017 49.5608 49.2041 49.5625 49.5651C49.5625 49.9243 49.4405 50.2259 49.1965 50.4699C48.9542 50.7122 48.6526 50.8334 48.2917 50.8334H12.7083Z" fill="#2A384D"/>
</svg>
