<svg width="38" height="38" viewBox="0 0 38 38" fill="none" xmlns="http://www.w3.org/2000/svg">
<g clip-path="url(#clip0_1218_785)">
<path fill-rule="evenodd" clip-rule="evenodd" d="M6.28357 14.25C7.25249 11.6596 8.98943 9.42681 11.262 7.85051C13.5345 6.27422 16.2343 5.42956 19 5.42956C21.7657 5.42956 24.4655 6.27422 26.738 7.85051C29.0106 9.42681 30.7475 11.6596 31.7164 14.25H6.28357ZM5.44486 18.3214C5.27692 21.681 6.36233 24.9832 8.49068 27.5879C10.619 30.1927 13.6387 31.9145 16.9643 32.4194V24.8167L11.2806 18.3214H5.44486ZM21.0357 32.4194C24.3613 31.9145 27.381 30.1927 29.5093 27.5879C31.6377 24.9832 32.7231 21.681 32.5551 18.3214H26.7194L21.0357 24.8167V32.4194ZM19 0C13.9609 0 9.12816 2.00178 5.56497 5.56497C2.00178 9.12816 0 13.9609 0 19C0 24.0391 2.00178 28.8718 5.56497 32.435C9.12816 35.9982 13.9609 38 19 38C24.0391 38 28.8718 35.9982 32.435 32.435C35.9982 28.8718 38 24.0391 38 19C38 13.9609 35.9982 9.12816 32.435 5.56497C28.8718 2.00178 24.0391 0 19 0Z" fill="#2A384D"/>
</g>
<defs>
<clipPath id="clip0_1218_785">
<rect width="38" height="38" fill="white"/>
</clipPath>
</defs>
</svg>
