<svg width="17" height="17" viewBox="0 0 17 17" fill="none" xmlns="http://www.w3.org/2000/svg">
<g id="eva:flip-fill">
<path id="Vector" d="M3.54196 4.31375V12.8137L2.62821 11.8929C2.49483 11.7595 2.31392 11.6846 2.12529 11.6846C1.93666 11.6846 1.75576 11.7595 1.62238 11.8929C1.489 12.0263 1.41406 12.2072 1.41406 12.3958C1.41406 12.5845 1.489 12.7654 1.62238 12.8987L3.74738 15.0237C3.81323 15.0901 3.89157 15.1428 3.97789 15.1788C4.0642 15.2148 4.15679 15.2333 4.25029 15.2333C4.3438 15.2333 4.43639 15.2148 4.5227 15.1788C4.60902 15.1428 4.68736 15.0901 4.75321 15.0237L6.87821 12.8987C6.9446 12.8329 6.9973 12.7546 7.03326 12.6682C7.06922 12.5819 7.08773 12.4893 7.08773 12.3958C7.08773 12.3023 7.06922 12.2097 7.03326 12.1234C6.9973 12.0371 6.9446 11.9588 6.87821 11.8929C6.81236 11.8265 6.73402 11.7738 6.6477 11.7379C6.56139 11.7019 6.4688 11.6834 6.37529 11.6834C6.28179 11.6834 6.1892 11.7019 6.10289 11.7379C6.01657 11.7738 5.93823 11.8265 5.87238 11.8929L4.95863 12.8137V4.31375C4.95581 4.16863 4.98161 4.02438 5.03455 3.88923C5.0875 3.75409 5.16655 3.6307 5.26719 3.52611C5.36783 3.42152 5.48809 3.33779 5.6211 3.27969C5.75411 3.22159 5.89726 3.19026 6.04238 3.1875H7.79196C7.97982 3.1875 8.15999 3.11287 8.29283 2.98003C8.42567 2.84719 8.50029 2.66703 8.50029 2.47916C8.50029 2.2913 8.42567 2.11114 8.29283 1.9783C8.15999 1.84546 7.97982 1.77083 7.79196 1.77083H6.04238C5.71122 1.77361 5.38386 1.84159 5.07898 1.97089C4.7741 2.10019 4.49767 2.28828 4.26549 2.52441C4.0333 2.76054 3.8499 3.0401 3.72575 3.34712C3.60161 3.65413 3.53916 3.98259 3.54196 4.31375ZM10.1224 4.10125C9.989 4.23463 9.91406 4.41553 9.91406 4.60416C9.91406 4.79279 9.989 4.9737 10.1224 5.10708C10.2558 5.24046 10.4367 5.3154 10.6253 5.3154C10.8139 5.3154 10.9948 5.24046 11.1282 5.10708L12.042 4.18625V12.6862C12.0448 12.8314 12.019 12.9756 11.966 13.1108C11.9131 13.2459 11.834 13.3693 11.7334 13.4739C11.6328 13.5785 11.5125 13.6622 11.3795 13.7203C11.2465 13.7784 11.1033 13.8097 10.9582 13.8125H9.20863C9.02077 13.8125 8.8406 13.8871 8.70776 14.02C8.57492 14.1528 8.50029 14.333 8.50029 14.5208C8.50029 14.7087 8.57492 14.8889 8.70776 15.0217C8.8406 15.1545 9.02077 15.2292 9.20863 15.2292H10.9582C11.2894 15.2264 11.6167 15.1584 11.9216 15.0291C12.2265 14.8998 12.5029 14.7117 12.7351 14.4756C12.9673 14.2395 13.1507 13.9599 13.2748 13.6529C13.399 13.3459 13.4614 13.0174 13.4586 12.6862V4.18625L14.3724 5.10708C14.4382 5.17347 14.5166 5.22617 14.6029 5.26213C14.6892 5.29809 14.7818 5.3166 14.8753 5.3166C14.9688 5.3166 15.0614 5.29809 15.1477 5.26213C15.234 5.22617 15.3124 5.17347 15.3782 5.10708C15.4446 5.04123 15.4973 4.96289 15.5333 4.87657C15.5692 4.79026 15.5877 4.69767 15.5877 4.60416C15.5877 4.51066 15.5692 4.41807 15.5333 4.33176C15.4973 4.24544 15.4446 4.1671 15.3782 4.10125L13.2532 1.97625C13.1874 1.90986 13.109 1.85716 13.0227 1.8212C12.9364 1.78524 12.8438 1.76672 12.7503 1.76672C12.6568 1.76672 12.5642 1.78524 12.4779 1.8212C12.3916 1.85716 12.3132 1.90986 12.2474 1.97625L10.1224 4.10125Z" fill="#E2A064"/>
</g>
</svg>
