<svg width="24" height="24" viewBox="0 0 24 24" fill="none" xmlns="http://www.w3.org/2000/svg">
<g clip-path="url(#clip0_215_888)">

<path d="M17.9868 6.36879C17.9865 6.36343 17.9863 6.35806 17.9858 6.3527C17.9851 6.34544 17.984 6.33822 17.9829 6.33096C17.9822 6.3263 17.9816 6.32164 17.9807 6.31703C17.9793 6.30986 17.9775 6.3028 17.9757 6.29574C17.9745 6.29093 17.9733 6.28606 17.9719 6.2813C17.9701 6.27499 17.9678 6.26878 17.9655 6.26252C17.9635 6.25685 17.9616 6.25124 17.9593 6.24573C17.9571 6.24052 17.9548 6.23546 17.9524 6.23035C17.9494 6.22384 17.9463 6.21737 17.9429 6.21106C17.9419 6.2093 17.9412 6.2075 17.9403 6.20575C17.9388 6.20304 17.937 6.20064 17.9355 6.19803C17.9317 6.19152 17.9277 6.1851 17.9235 6.17879C17.9206 6.17453 17.9176 6.17037 17.9146 6.16627C17.9104 6.16055 17.9061 6.15489 17.9016 6.14943C17.8981 6.14507 17.8943 6.14086 17.8906 6.1367C17.8863 6.13189 17.8819 6.12723 17.8773 6.12262C17.8729 6.11822 17.8683 6.11396 17.8637 6.1098C17.8594 6.10589 17.855 6.10203 17.8504 6.09832C17.8451 6.09396 17.8397 6.08986 17.8342 6.0858C17.8299 6.08264 17.8255 6.07948 17.8209 6.07643C17.8149 6.07242 17.8088 6.06866 17.8026 6.065C17.7998 6.06335 17.7971 6.06145 17.7943 6.05979C17.7924 6.05874 17.7905 6.05799 17.7886 6.05699C17.7826 6.05378 17.7764 6.05087 17.7702 6.04802C17.7649 6.04551 17.7595 6.04296 17.7541 6.04075C17.7487 6.0386 17.7433 6.03665 17.7378 6.03474C17.7315 6.03249 17.7251 6.03018 17.7187 6.02828C17.7139 6.02688 17.7091 6.02577 17.7043 6.02452C17.6972 6.02272 17.6902 6.02091 17.6831 6.01956C17.6782 6.01861 17.6733 6.01801 17.6684 6.01725C17.6615 6.0162 17.6545 6.0151 17.6476 6.01445C17.6418 6.0139 17.6358 6.0137 17.6299 6.0134C17.624 6.01315 17.6181 6.0127 17.6122 6.0127C17.6049 6.0127 17.5976 6.01315 17.5903 6.01355C17.5858 6.0138 17.5813 6.0139 17.5768 6.01435C17.5686 6.0151 17.5605 6.0164 17.5523 6.01766C17.5486 6.01826 17.5449 6.01871 17.5413 6.01941C17.5331 6.02096 17.5251 6.02297 17.5171 6.02507C17.5133 6.02607 17.5094 6.02692 17.5056 6.02808C17.4984 6.03018 17.4913 6.03274 17.4841 6.03534C17.4794 6.03705 17.4748 6.03865 17.4702 6.0405C17.4642 6.04296 17.4582 6.04576 17.4522 6.04862C17.4466 6.05123 17.4411 6.05383 17.4356 6.05679C17.4335 6.05789 17.4313 6.05874 17.4293 6.05989L10.2142 10.0682C10.2112 10.0699 10.2085 10.0719 10.2056 10.0737C10.2013 10.0762 10.197 10.0786 10.1928 10.0812C10.1903 10.0828 10.1879 10.0845 10.1855 10.0862C10.1816 10.0888 10.1779 10.0916 10.1741 10.0944C10.1701 10.0975 10.1659 10.1003 10.162 10.1035C10.1601 10.105 10.1582 10.1067 10.1563 10.1082C10.1523 10.1115 10.1485 10.115 10.1447 10.1185C10.1409 10.1219 10.1372 10.1253 10.1336 10.1288C10.1328 10.1296 10.1319 10.1303 10.1311 10.1311C10.1303 10.1318 10.1297 10.1326 10.129 10.1334C10.1251 10.1373 10.1215 10.1413 10.1179 10.1454C10.1147 10.1489 10.1115 10.1525 10.1084 10.1562C10.1068 10.1581 10.1052 10.1599 10.1037 10.1618C10.1003 10.166 10.0971 10.1705 10.0939 10.1749C10.0913 10.1784 10.0887 10.1818 10.0863 10.1854C10.0847 10.1877 10.083 10.1901 10.0814 10.1926C10.0785 10.1971 10.0759 10.2019 10.0731 10.2066C10.0716 10.2092 10.0698 10.2116 10.0683 10.2143L6.05994 17.4293C6.05899 17.4311 6.05829 17.4329 6.05734 17.4346C6.05393 17.441 6.05088 17.4474 6.04787 17.4539C6.04551 17.459 6.04311 17.4642 6.04095 17.4693C6.0387 17.4748 6.03675 17.4805 6.03469 17.4861C6.03249 17.4924 6.03023 17.4986 6.02833 17.5049C6.02692 17.5096 6.02577 17.5145 6.02457 17.5193C6.02277 17.5264 6.02096 17.5335 6.01956 17.5406C6.01866 17.5452 6.01811 17.5499 6.01736 17.5545C6.01625 17.5618 6.0151 17.569 6.0144 17.5763C6.0139 17.5816 6.01375 17.587 6.01345 17.5924C6.0131 17.5989 6.0127 17.6053 6.0127 17.6119C6.0127 17.6183 6.01315 17.6248 6.01345 17.6314C6.01375 17.6367 6.0139 17.6421 6.0144 17.6474C6.0151 17.6547 6.0162 17.6619 6.01736 17.6692C6.01806 17.6738 6.01866 17.6785 6.01956 17.6831C6.02096 17.6903 6.02277 17.6973 6.02457 17.7044C6.02577 17.7092 6.02692 17.714 6.02833 17.7188C6.03018 17.7251 6.03244 17.7314 6.03469 17.7376C6.0367 17.7432 6.03865 17.7489 6.0409 17.7544C6.04301 17.7596 6.04541 17.7647 6.04782 17.7698C6.05082 17.7763 6.05393 17.7828 6.05729 17.7891C6.05824 17.7908 6.05894 17.7926 6.05989 17.7944C6.06095 17.7962 6.06225 17.7978 6.0633 17.7997C6.07001 17.8113 6.07733 17.8226 6.08525 17.8335C6.0868 17.8356 6.08815 17.8378 6.08976 17.8398C6.09898 17.852 6.10895 17.8635 6.11972 17.8745C6.12227 17.8771 6.12498 17.8795 6.12758 17.882C6.13575 17.8899 6.14432 17.8975 6.15334 17.9046C6.1573 17.9078 6.1612 17.9109 6.16526 17.9139C6.17403 17.9204 6.1832 17.9264 6.19262 17.9321C6.19618 17.9343 6.19953 17.9366 6.20314 17.9387C6.20409 17.9392 6.20495 17.9398 6.2059 17.9404C6.21261 17.9442 6.21963 17.9469 6.22644 17.9501C6.23335 17.9534 6.24007 17.9571 6.24713 17.9599C6.25776 17.9642 6.26858 17.9676 6.2794 17.9709C6.28381 17.9722 6.28812 17.974 6.29258 17.9751C6.30631 17.9787 6.32019 17.9814 6.33406 17.9834C6.33602 17.9837 6.33797 17.9842 6.33993 17.9845C6.35596 17.9866 6.37204 17.9877 6.38803 17.9877C6.38813 17.9877 6.38828 17.9877 6.38838 17.9877C6.38848 17.9877 6.38863 17.9877 6.38873 17.9877C6.40476 17.9877 6.42085 17.9866 6.43688 17.9845C6.43878 17.9842 6.44059 17.9837 6.44244 17.9834C6.45642 17.9814 6.4704 17.9788 6.48423 17.9751C6.48849 17.974 6.4926 17.9723 6.4968 17.971C6.50783 17.9677 6.51885 17.9643 6.52967 17.9599C6.53654 17.9571 6.5431 17.9535 6.54981 17.9503C6.55683 17.947 6.56394 17.9442 6.57086 17.9403L13.7859 13.932C13.7868 13.9314 13.7877 13.9308 13.7886 13.9302C13.7916 13.9286 13.7943 13.9267 13.7972 13.925C13.8031 13.9215 13.809 13.9179 13.8147 13.9141C13.8188 13.9113 13.8226 13.9083 13.8266 13.9054C13.8297 13.9031 13.8329 13.9008 13.836 13.8983C13.8386 13.8963 13.8413 13.8942 13.8439 13.8921C13.85 13.887 13.8558 13.8815 13.8616 13.876C13.8641 13.8737 13.8667 13.8717 13.8691 13.8692C13.8701 13.8682 13.871 13.8672 13.872 13.8662C13.8778 13.8602 13.8831 13.8541 13.8884 13.8479C13.8911 13.8447 13.8939 13.8417 13.8965 13.8385C13.8983 13.8362 13.9002 13.8338 13.902 13.8314C13.9035 13.8294 13.9049 13.8272 13.9064 13.8251C13.9076 13.8235 13.9087 13.8219 13.9099 13.8202C13.9129 13.8161 13.916 13.8119 13.9187 13.8077C13.9219 13.8027 13.9247 13.7976 13.9277 13.7925C13.928 13.7919 13.9284 13.7913 13.9287 13.7907C13.9297 13.789 13.9309 13.7876 13.9318 13.7859L17.9402 6.57091C17.9411 6.56915 17.9418 6.56735 17.9428 6.5656C17.9462 6.55928 17.9493 6.55282 17.9523 6.54631C17.9546 6.5412 17.957 6.53609 17.9592 6.53093C17.9614 6.52541 17.9634 6.51975 17.9654 6.51414C17.9676 6.50788 17.9699 6.50166 17.9718 6.49535C17.9732 6.49059 17.9743 6.48578 17.9755 6.48092C17.9773 6.47381 17.9791 6.46674 17.9805 6.45963C17.9814 6.45502 17.982 6.45036 17.9827 6.4457C17.9838 6.43843 17.985 6.43122 17.9857 6.42395C17.9862 6.41864 17.9863 6.41323 17.9866 6.40787C17.987 6.40136 17.9874 6.39489 17.9874 6.38838C17.9875 6.38181 17.9871 6.3753 17.9868 6.36879ZM10.4834 11.0146L10.9327 11.464C10.937 11.4683 10.9416 11.472 10.9461 11.476C10.8673 11.634 10.8227 11.8118 10.8227 12C10.8227 12.6492 11.3509 13.1774 12.0002 13.1774C12.1883 13.1774 12.3661 13.1328 12.5241 13.054C12.5281 13.0585 12.5318 13.0631 12.5361 13.0674L12.9855 13.5168L7.35574 16.6444L10.4834 11.0146ZM12.0002 12.4259C11.7653 12.4259 11.5743 12.2348 11.5743 12C11.5743 11.7651 11.7653 11.5741 12.0002 11.5741C12.235 11.5741 12.4261 11.7651 12.4261 12C12.4261 12.2348 12.235 12.4259 12.0002 12.4259ZM13.517 12.9853L13.0676 12.5359C13.0633 12.5317 13.0587 12.5279 13.0543 12.5239C13.1331 12.366 13.1777 12.1882 13.1777 12C13.1777 11.3508 12.6495 10.8226 12.0002 10.8226C11.8121 10.8226 11.6343 10.8672 11.4763 10.946C11.4723 10.9415 11.4686 10.9369 11.4643 10.9326L11.0149 10.4832L16.6446 7.35554L13.517 12.9853Z" fill="#26384F"/>
<path d="M20.4853 3.51472C18.2188 1.2482 15.2053 0 12 0C8.79467 0 5.78124 1.2482 3.51472 3.51472C1.24825 5.78124 0 8.79467 0 12C0 15.2053 1.24825 18.2188 3.51472 20.4853C5.78124 22.7518 8.79467 24 12 24C15.2053 24 18.2188 22.7518 20.4853 20.4853C22.7517 18.2188 24 15.2053 24 12C24 8.79467 22.7517 5.78124 20.4853 3.51472ZM19.9539 19.9538C17.8293 22.0783 15.0046 23.2484 12 23.2484C8.99544 23.2484 6.17071 22.0783 4.04613 19.9538C1.9216 17.8293 0.751566 15.0046 0.751566 12C0.751566 8.99544 1.9216 6.17071 4.04613 4.04618C6.17071 1.92165 8.99544 0.751566 12 0.751566C15.0046 0.751566 17.8293 1.92165 19.9539 4.04618C22.0784 6.17071 23.2484 8.99544 23.2484 12C23.2484 15.0046 22.0784 17.8293 19.9539 19.9538Z" fill="#26384F"/>
<path d="M12.0002 1.60327C6.26743 1.60327 1.60352 6.26719 1.60352 11.9999C1.60352 17.7327 6.26743 22.3966 12.0002 22.3966C17.7329 22.3966 22.3968 17.7327 22.3968 11.9999C22.3968 6.26719 17.7329 1.60327 12.0002 1.60327ZM12.0002 21.645C6.68185 21.645 2.35508 17.3183 2.35508 11.9999C2.35508 6.6816 6.68185 2.35484 12.0002 2.35484C17.3185 2.35484 21.6453 6.6816 21.6453 11.9999C21.6453 17.3183 17.3185 21.645 12.0002 21.645Z" fill="#26384F"/>
<path d="M11.9998 5.56169C12.2073 5.56169 12.3756 5.39349 12.3756 5.18591V3.58257C12.3756 3.37499 12.2073 3.20679 11.9998 3.20679C11.7923 3.20679 11.624 3.37499 11.624 3.58257V5.18591C11.624 5.39349 11.7923 5.56169 11.9998 5.56169Z" fill="#26384F"/>
<path d="M11.9998 18.4385C11.7923 18.4385 11.624 18.6067 11.624 18.8143V20.4176C11.624 20.6252 11.7923 20.7934 11.9998 20.7934C12.2073 20.7934 12.3756 20.6252 12.3756 20.4176V18.8143C12.3756 18.6067 12.2073 18.4385 11.9998 18.4385Z" fill="#26384F"/>
<path d="M5.18567 11.6243H3.58233C3.37479 11.6243 3.20654 11.7925 3.20654 12.0001C3.20654 12.2076 3.37479 12.3758 3.58233 12.3758H5.18567C5.3932 12.3758 5.56145 12.2076 5.56145 12.0001C5.56145 11.7925 5.3932 11.6243 5.18567 11.6243Z" fill="#26384F"/>
<path d="M20.4176 11.6243H18.8143C18.6067 11.6243 18.4385 11.7925 18.4385 12.0001C18.4385 12.2076 18.6067 12.3758 18.8143 12.3758H20.4176C20.6251 12.3758 20.7934 12.2076 20.7934 12.0001C20.7934 11.7925 20.6251 11.6243 20.4176 11.6243Z" fill="#26384F"/>

</g>
<defs>
<clipPath id="clip0_215_888">
<rect width="24" height="24" fill="white"/>
</clipPath>
</defs>
</svg>
