<svg width="12" height="12" viewBox="0 0 12 12" fill="none" xmlns="http://www.w3.org/2000/svg">
<path d="M6 0C6.11139 5.94874e-05 6.22057 0.031129 6.31531 0.0897288C6.41004 0.148329 6.48659 0.232145 6.53638 0.33179L8.08434 3.4265L11.4862 3.92089C11.5971 3.93698 11.7012 3.98376 11.7868 4.05594C11.8724 4.12813 11.9361 4.22283 11.9707 4.32933C12.0053 4.43583 12.0093 4.54989 11.9825 4.6586C11.9556 4.76731 11.8989 4.86633 11.8186 4.94446L9.3425 7.35879L9.89929 10.7631C9.91718 10.8733 9.90396 10.9863 9.86113 11.0894C9.8183 11.1925 9.74755 11.2816 9.65683 11.3467C9.56612 11.4118 9.45905 11.4503 9.34766 11.4578C9.23627 11.4654 9.12498 11.4417 9.02631 11.3895L6 9.78392L2.97369 11.3895C2.87502 11.4417 2.76373 11.4654 2.65234 11.4578C2.54095 11.4503 2.43388 11.4118 2.34317 11.3467C2.25246 11.2816 2.1817 11.1925 2.13887 11.0894C2.09604 10.9863 2.08282 10.8733 2.10071 10.7631L2.6575 7.35879L0.181369 4.94446C0.101149 4.86633 0.044395 4.76731 0.0175268 4.6586C-0.00934136 4.54989 -0.00525125 4.43583 0.0293345 4.32933C0.0639202 4.22283 0.127621 4.12813 0.213231 4.05594C0.298841 3.98376 0.402942 3.93698 0.513759 3.92089L3.91566 3.4265L5.46362 0.33179C5.51341 0.232145 5.58996 0.148329 5.68469 0.0897288C5.77943 0.031129 5.88861 5.94874e-05 6 0ZM6 1.94154L4.84923 4.24308C4.80605 4.32963 4.74257 4.40446 4.66422 4.46119C4.58587 4.51792 4.49496 4.55486 4.39925 4.56887L1.88892 4.93366L3.71887 6.7174C3.78802 6.78478 3.83989 6.86785 3.87008 6.95956C3.90027 7.05127 3.90788 7.14891 3.89226 7.24419L3.48007 9.76232L5.71861 8.57435C5.80526 8.52833 5.90188 8.50427 6 8.50427C6.09812 8.50427 6.19474 8.52833 6.28139 8.57435L8.51993 9.76232L8.10774 7.24419C8.09222 7.149 8.09988 7.05148 8.13007 6.95988C8.16025 6.86829 8.21207 6.78532 8.28113 6.718L10.1111 4.93366L7.60135 4.56887C7.50564 4.55486 7.41473 4.51792 7.33638 4.46119C7.25803 4.40446 7.19455 4.32963 7.15137 4.24308L6 1.94154Z" fill="#E2A064"/>
</svg>
