<svg width="20" height="20" viewBox="0 0 20 20" fill="none" xmlns="http://www.w3.org/2000/svg">
<path d="M20 16.605C20 16.8039 19.921 16.9947 19.7803 17.1353C19.6397 17.276 19.4489 17.355 19.25 17.355H14.15C13.983 17.9779 13.6151 18.5282 13.1034 18.9208C12.5918 19.3133 11.9649 19.5261 11.32 19.5261C10.6751 19.5261 10.0482 19.3133 9.53658 18.9208C9.02491 18.5282 8.65704 17.9779 8.49 17.355H0.75C0.551088 17.355 0.360322 17.276 0.21967 17.1353C0.0790175 16.9947 0 16.8039 0 16.605C0 16.4061 0.0790175 16.2153 0.21967 16.0747C0.360322 15.934 0.551088 15.855 0.75 15.855H8.49C8.65704 15.2321 9.02491 14.6818 9.53658 14.2892C10.0482 13.8967 10.6751 13.684 11.32 13.684C11.9649 13.684 12.5918 13.8967 13.1034 14.2892C13.6151 14.6818 13.983 15.2321 14.15 15.855H19.25C19.4489 15.855 19.6397 15.934 19.7803 16.0747C19.921 16.2153 20 16.4061 20 16.605ZM20 3.39501C20 3.59392 19.921 3.78468 19.7803 3.92534C19.6397 4.06599 19.4489 4.14501 19.25 4.14501H16.8C16.633 4.76788 16.2651 5.31825 15.7534 5.71078C15.2418 6.1033 14.6149 6.31606 13.97 6.31606C13.3251 6.31606 12.6982 6.1033 12.1866 5.71078C11.6749 5.31825 11.307 4.76788 11.14 4.14501H0.75C0.651509 4.14501 0.553982 4.12561 0.462987 4.08792C0.371993 4.05023 0.289314 3.99498 0.21967 3.92534C0.150026 3.85569 0.0947813 3.77301 0.0570903 3.68202C0.0193993 3.59103 0 3.4935 0 3.39501C0 3.29652 0.0193993 3.19899 0.0570903 3.10799C0.0947813 3.017 0.150026 2.93432 0.21967 2.86468C0.289314 2.79503 0.371993 2.73979 0.462987 2.7021C0.553982 2.66441 0.651509 2.64501 0.75 2.64501H11.14C11.307 2.02213 11.6749 1.47176 12.1866 1.07924C12.6982 0.68671 13.3251 0.473953 13.97 0.473953C14.6149 0.473953 15.2418 0.68671 15.7534 1.07924C16.2651 1.47176 16.633 2.02213 16.8 2.64501H19.25C19.3489 2.64366 19.447 2.66214 19.5386 2.69936C19.6302 2.73657 19.7134 2.79177 19.7833 2.86168C19.8532 2.93159 19.9084 3.01481 19.9457 3.10641C19.9829 3.19801 20.0013 3.29614 20 3.39501ZM20 9.99501C20.0013 10.0939 19.9829 10.192 19.9457 10.2836C19.9084 10.3752 19.8532 10.4584 19.7833 10.5283C19.7134 10.5982 19.6302 10.6534 19.5386 10.6907C19.447 10.7279 19.3489 10.7464 19.25 10.745H7.55C7.38296 11.3679 7.01509 11.9183 6.50342 12.3108C5.99176 12.7033 5.36489 12.9161 4.72 12.9161C4.07511 12.9161 3.44824 12.7033 2.93658 12.3108C2.42491 11.9183 2.05704 11.3679 1.89 10.745H0.75C0.551088 10.745 0.360322 10.666 0.21967 10.5253C0.0790175 10.3847 0 10.1939 0 9.99501C0 9.79609 0.0790175 9.60533 0.21967 9.46468C0.360322 9.32402 0.551088 9.24501 0.75 9.24501H1.89C2.05704 8.62213 2.42491 8.07176 2.93658 7.67924C3.44824 7.28671 4.07511 7.07395 4.72 7.07395C5.36489 7.07395 5.99176 7.28671 6.50342 7.67924C7.01509 8.07176 7.38296 8.62213 7.55 9.24501H19.25C19.4489 9.24501 19.6397 9.32402 19.7803 9.46468C19.921 9.60533 20 9.79609 20 9.99501Z" fill="#E2A064"/>
</svg>
