<svg width="24" height="24" viewBox="0 0 24 24" fill="none" xmlns="http://www.w3.org/2000/svg">
<path d="M6.85078 17.15L3.65078 15.4L4.70078 14.35L7.20078 14.7L11.1008 10.8L3.30078 6.55005L4.70078 5.15005L14.2508 7.60005L18.1758 3.72505C18.4591 3.44172 18.8134 3.30005 19.2388 3.30005C19.6641 3.30005 20.0181 3.44172 20.3008 3.72505C20.5841 4.00838 20.7258 4.36272 20.7258 4.78805C20.7258 5.21338 20.5841 5.56738 20.3008 5.85005L16.4008 9.75005L18.8508 19.3L17.4508 20.7001L13.2008 12.9L9.30078 16.8L9.65078 19.3L8.60078 20.35L6.85078 17.15Z" fill="black"/>
</svg>
