<svg width="37" height="39" viewBox="0 0 37 39" fill="none" xmlns="http://www.w3.org/2000/svg">
<path d="M17.698 29.6557C17.9134 29.874 18.2005 29.9958 18.4993 29.9958C18.798 29.9958 19.0852 29.874 19.3005 29.6557L25.4437 23.4243C26.1941 22.6638 25.683 21.328 24.6424 21.328H21.1008C21.0242 21.328 20.9506 21.2959 20.8964 21.2388C20.8422 21.1816 20.8118 21.1041 20.8118 21.0233L20.8118 9.14052C20.8118 8.81729 20.6899 8.5073 20.4731 8.27874C20.2563 8.05018 19.9622 7.92177 19.6555 7.92177H17.343C17.0364 7.92177 16.7423 8.05018 16.5254 8.27874C16.3086 8.5073 16.1868 8.81729 16.1868 9.14052V21.0233C16.1868 21.1041 16.1563 21.1816 16.1021 21.2388C16.0479 21.2959 15.9744 21.328 15.8977 21.328H12.3561C11.3155 21.328 10.8044 22.6638 11.5548 23.4243L17.698 29.6557Z" fill="#24A604"/>
<path d="M30.0625 37.7812C30.8217 37.7812 31.5735 37.6236 32.2749 37.3174C32.9763 37.0112 33.6136 36.5623 34.1505 35.9964C35.2347 34.8536 35.8438 33.3037 35.8438 31.6875L35.8438 7.3125C35.8438 5.69634 35.2347 4.14637 34.1505 3.00357C33.6136 2.43771 32.9763 1.98885 32.2749 1.68261C31.5735 1.37637 30.8217 1.21875 30.0625 1.21875H6.9375C5.40422 1.21875 3.93373 1.86077 2.84954 3.00357C1.76534 4.14637 1.15625 5.69634 1.15625 7.3125L1.15625 31.6875C1.15625 32.4877 1.30579 33.2801 1.59632 34.0195C1.88686 34.7588 2.3127 35.4306 2.84954 35.9964C3.38638 36.5623 4.0237 37.0112 4.72511 37.3174C5.42652 37.6236 6.1783 37.7812 6.9375 37.7812H30.0625ZM33.5312 31.6875C33.5312 32.6572 33.1658 33.5872 32.5153 34.2729C31.8648 34.9585 30.9825 35.3438 30.0625 35.3438H6.9375C6.01753 35.3437 5.13524 34.9585 4.48472 34.2729C3.83421 33.5872 3.46875 32.6572 3.46875 31.6875L3.46875 7.3125C3.46875 6.3428 3.83421 5.41282 4.48472 4.72714C5.13524 4.04146 6.01753 3.65625 6.9375 3.65625H30.0625C30.9825 3.65625 31.8648 4.04146 32.5153 4.72714C33.1658 5.41282 33.5312 6.3428 33.5312 7.3125V31.6875Z" fill="#24A604"/>
</svg>
