<svg width="36" height="26" viewBox="0 0 36 26" fill="none" xmlns="http://www.w3.org/2000/svg">
<path d="M36.0001 23.4088C36.0001 24.3988 35.1973 25.1998 34.2091 25.1998H19.791C19.316 25.1998 18.8605 25.0111 18.5246 24.6752C18.1887 24.3394 18 23.8838 18 23.4088C18 22.9338 18.1887 22.4782 18.5246 22.1424C18.8605 21.8065 19.316 21.6178 19.791 21.6178H34.2091C35.1991 21.6178 36.0001 22.4188 36.0001 23.4088Z" fill="#E2A064"/>
<path d="M36.0002 12.5997C36.0002 13.5897 35.1974 14.3907 34.2092 14.3907H1.79101C1.316 14.3907 0.860453 14.202 0.524574 13.8662C0.188695 13.5303 0 13.0747 0 12.5997C0 12.1247 0.188695 11.6692 0.524574 11.3333C0.860453 10.9974 1.316 10.8087 1.79101 10.8087H34.2092C35.1992 10.8087 36.0002 11.6115 36.0002 12.5997Z" fill="#E2A064"/>
<path d="M34.2099 3.58202C34.6849 3.58202 35.1404 3.39332 35.4763 3.05744C35.8122 2.72156 36.0009 2.26601 36.0009 1.79101C36.0009 1.316 35.8122 0.860453 35.4763 0.524574C35.1404 0.188695 34.6849 1.41562e-08 34.2099 0L12.5918 0C12.3566 -7.00946e-09 12.1237 0.0463258 11.9064 0.136332C11.6891 0.226339 11.4917 0.358263 11.3254 0.524574C11.159 0.690884 11.0271 0.888324 10.9371 1.10562C10.8471 1.32291 10.8008 1.55581 10.8008 1.79101C10.8008 2.02621 10.8471 2.2591 10.9371 2.4764C11.0271 2.69369 11.159 2.89113 11.3254 3.05744C11.4917 3.22375 11.6891 3.35568 11.9064 3.44568C12.1237 3.53569 12.3566 3.58202 12.5918 3.58202H34.2099Z" fill="#E2A064"/>
</svg>
