<svg width="37" height="39" viewBox="0 0 37 39" fill="none" xmlns="http://www.w3.org/2000/svg">
<path d="M19.302 9.34426C19.0866 9.12603 18.7995 9.00415 18.5007 9.00415C18.202 9.00415 17.9148 9.12603 17.6995 9.34426L11.5563 15.5757C10.8059 16.3362 11.317 17.672 12.3576 17.672H15.8992C15.9758 17.672 16.0494 17.7041 16.1036 17.7612C16.1578 17.8184 16.1882 17.8959 16.1882 17.9767V29.8595C16.1882 30.1827 16.3101 30.4927 16.5269 30.7213C16.7437 30.9498 17.0378 31.0782 17.3445 31.0782H19.657C19.9636 31.0782 20.2577 30.9498 20.4746 30.7213C20.6914 30.4927 20.8132 30.1827 20.8132 29.8595V17.9767C20.8132 17.8959 20.8437 17.8184 20.8979 17.7612C20.9521 17.7041 21.0256 17.672 21.1023 17.672H24.6439C25.6845 17.672 26.1956 16.3362 25.4452 15.5757L19.302 9.34426Z" fill="#F04038"/>
<path d="M6.9375 1.21875C6.1783 1.21875 5.42652 1.37637 4.72511 1.68261C4.0237 1.98885 3.38638 2.43771 2.84954 3.00357C1.76534 4.14637 1.15625 5.69634 1.15625 7.3125V31.6875C1.15625 33.3037 1.76534 34.8536 2.84954 35.9964C3.38638 36.5623 4.0237 37.0112 4.72511 37.3174C5.42652 37.6236 6.1783 37.7812 6.9375 37.7812H30.0625C31.5958 37.7812 33.0663 37.1392 34.1505 35.9964C35.2347 34.8536 35.8438 33.3037 35.8438 31.6875V7.3125C35.8438 6.51226 35.6942 5.71985 35.4037 4.98052C35.1131 4.24119 34.6873 3.56943 34.1505 3.00357C33.6136 2.43771 32.9763 1.98885 32.2749 1.68261C31.5735 1.37637 30.8217 1.21875 30.0625 1.21875H6.9375ZM3.46875 7.3125C3.46875 6.3428 3.83421 5.41282 4.48472 4.72714C5.13524 4.04146 6.01753 3.65625 6.9375 3.65625H30.0625C30.9825 3.65625 31.8648 4.04146 32.5153 4.72714C33.1658 5.41282 33.5312 6.3428 33.5312 7.3125V31.6875C33.5312 32.6572 33.1658 33.5872 32.5153 34.2729C31.8648 34.9585 30.9825 35.3437 30.0625 35.3438H6.9375C6.01753 35.3437 5.13524 34.9585 4.48472 34.2729C3.83421 33.5872 3.46875 32.6572 3.46875 31.6875V7.3125Z" fill="#F04038"/>
</svg>
