<svg width="20" height="15" viewBox="0 0 20 15" fill="none" xmlns="http://www.w3.org/2000/svg">
<path d="M0 3.125C0 2.2962 0.32924 1.50134 0.915291 0.915291C1.50134 0.32924 2.2962 0 3.125 0H16.875C17.7038 0 18.4987 0.32924 19.0847 0.915291C19.6708 1.50134 20 2.2962 20 3.125V11.875C20 12.7038 19.6708 13.4987 19.0847 14.0847C18.4987 14.6708 17.7038 15 16.875 15H3.125C2.2962 15 1.50134 14.6708 0.915291 14.0847C0.32924 13.4987 0 12.7038 0 11.875V3.125ZM3.125 1.25C2.62772 1.25 2.15081 1.44754 1.79917 1.79917C1.44754 2.15081 1.25 2.62772 1.25 3.125V4.75H18.75V3.125C18.75 2.62772 18.5525 2.15081 18.2008 1.79917C17.8492 1.44754 17.3723 1.25 16.875 1.25H3.125ZM1.25 11.875C1.25 12.3723 1.44754 12.8492 1.79917 13.2008C2.15081 13.5525 2.62772 13.75 3.125 13.75H16.875C17.3723 13.75 17.8492 13.5525 18.2008 13.2008C18.5525 12.8492 18.75 12.3723 18.75 11.875V6H1.25V11.875ZM13.625 10.25C13.4592 10.25 13.3003 10.3158 13.1831 10.4331C13.0658 10.5503 13 10.7092 13 10.875C13 11.0408 13.0658 11.1997 13.1831 11.3169C13.3003 11.4342 13.4592 11.5 13.625 11.5H16.375C16.5408 11.5 16.6997 11.4342 16.8169 11.3169C16.9342 11.1997 17 11.0408 17 10.875C17 10.7092 16.9342 10.5503 16.8169 10.4331C16.6997 10.3158 16.5408 10.25 16.375 10.25H13.625Z" fill="#2E323E"/>
</svg>
