<svg width="25" height="24" viewBox="0 0 25 24" fill="none" xmlns="http://www.w3.org/2000/svg">
<path d="M17.5 9C17.5 6.23913 15.2609 4 12.5 4C9.73913 4 7.5 6.23913 7.5 9C7.5 11.7609 9.73913 14 12.5 14C15.2609 14 17.5 11.7609 17.5 9ZM8.80435 9C8.80435 6.95652 10.4565 5.30435 12.5 5.30435C14.5435 5.30435 16.1957 6.95652 16.1957 9C16.1957 11.0435 14.5435 12.6957 12.5 12.6957C10.4565 12.6957 8.80435 11.0435 8.80435 9Z" fill="#2E323E"/>
<path d="M4.81506 20.9275C4.91486 20.9819 5.01466 21 5.11446 21C5.31406 21 5.53362 20.9094 5.63342 20.7283C7.03062 18.4819 9.66535 17.087 12.4997 17.087C15.334 17.087 17.9687 18.4819 19.3859 20.7283C19.5456 20.9819 19.9248 21.0725 20.2042 20.9275C20.4837 20.7826 20.5835 20.4384 20.4238 20.1848C18.807 17.6123 15.7731 16 12.4997 16C9.22623 16 6.1923 17.6123 4.57554 20.1848C4.41586 20.4384 4.51566 20.7826 4.81506 20.9275V20.9275Z" fill="#2E323E"/>
</svg>
