<svg width="112" height="112" viewBox="0 0 112 112" fill="none" xmlns="http://www.w3.org/2000/svg">
<g opacity="0.3">
<path d="M56.2532 4.09676C84.9829 4.09676 108.309 27.392 108.309 56.0836C108.309 84.7751 84.9829 108.07 56.2532 108.07C27.5235 108.07 4.19727 84.7751 4.19727 56.0836C4.19727 27.392 27.5235 4.09676 56.2532 4.09676Z" stroke="#EE9C58" stroke-width="7.03883" stroke-linecap="round"/>
</g>
<path d="M56.2532 4.09676C84.9829 4.09676 108.309 27.392 108.309 56.0836C108.309 84.7751 84.9829 108.07 56.2532 108.07C27.5235 108.07 4.19727 84.7751 4.19727 56.0836C4.19727 27.392 27.5235 4.09676 56.2532 4.09676Z" stroke="#EE9C58" stroke-width="7.03883" stroke-linecap="round"/>
<path d="M61.143 73.1993C62.021 73.026 62.856 72.7755 63.6397 72.4399V66.1468C62.2486 66.9641 60.3664 67.6177 57.8293 67.6177C54.7194 67.6177 53.2461 66.1468 53.2461 63.4499C53.2461 60.5894 55.7011 58.3829 58.4837 56.3396C65.9308 50.7821 69.7773 48.1668 69.7773 39.8303C69.7773 35.7442 66.8313 28.0614 55.8649 28.0614C51.4456 28.0614 47.5174 29.4511 44.2441 32.0664V39.2583C47.354 36.2346 51.0367 33.9461 55.8649 33.9461C63.2303 33.9461 63.3941 39.4219 63.3941 40.0756C63.3941 45.7966 60.1208 48.0031 54.1466 52.1714C49.1545 55.7675 46.8629 59.3637 46.8629 63.4499C46.8629 69.4978 51.2005 73.5024 57.8293 73.5024" fill="#EE9C58"/>
<path d="M55.9176 78.56C58.7458 78.56 61.0421 80.8533 61.0421 83.6778C61.0421 86.5023 58.7458 88.7956 55.9176 88.7956C53.0893 88.7956 50.793 86.5023 50.793 83.6778C50.793 80.8533 53.0893 78.56 55.9176 78.56Z" fill="#EE9C58"/>
</svg>
