<svg width="15" height="15" viewBox="0 0 15 15" fill="none" xmlns="http://www.w3.org/2000/svg">
<g clip-path="url(#clip0_226_2869)">
<path d="M1.6843 1.39868L12.4781 12.1925C12.683 12.3974 12.798 12.6751 12.798 12.9648C12.798 13.2544 12.683 13.5322 12.4781 13.7371C12.2733 13.9418 11.9955 14.0568 11.7059 14.0568C11.4162 14.0568 11.1385 13.9418 10.9336 13.7371L8.29689 11.0549C8.12434 10.8797 8.02754 10.6437 8.02736 10.3978V10.2358C8.02739 10.1116 8.00274 9.98869 7.95486 9.87412C7.90699 9.75955 7.83683 9.65564 7.74846 9.56841L7.40803 9.25405C7.29246 9.14742 7.15193 9.07156 6.99936 9.03348C6.8468 8.99539 6.68711 8.99628 6.53498 9.03608C6.29509 9.09869 6.04299 9.09748 5.80371 9.03258C5.56443 8.96767 5.34629 8.84132 5.17092 8.66606L2.66809 6.16294C1.18332 4.67817 0.636933 2.43608 1.6843 1.39868Z" stroke="#26384F" stroke-linejoin="round"/>
<path d="M11.719 0.9375L9.4558 3.20068C9.28165 3.3748 9.1435 3.58152 9.04925 3.80903C8.955 4.03654 8.90649 4.2804 8.90649 4.52666V4.96201C8.9065 5.02361 8.89437 5.0846 8.87079 5.14151C8.84721 5.19841 8.81265 5.25011 8.76908 5.29365L8.43774 5.625M9.37524 6.5625L9.70658 6.23115C9.75013 6.18758 9.80183 6.15302 9.85873 6.12945C9.91564 6.10587 9.97663 6.09374 10.0382 6.09375H10.4736C10.7198 6.09375 10.9637 6.04524 11.1912 5.95099C11.4187 5.85673 11.6254 5.71859 11.7996 5.54443L14.0627 3.28125M12.8909 2.10937L10.5471 4.45312M5.85961 10.7812L2.93813 13.7191C2.71837 13.9388 2.42035 14.0622 2.10961 14.0622C1.79887 14.0622 1.50086 13.9388 1.2811 13.7191C1.0614 13.4994 0.937988 13.2014 0.937988 12.8906C0.937988 12.5799 1.0614 12.2819 1.2811 12.0621L3.75024 9.60937" stroke="#26384F" stroke-linecap="round" stroke-linejoin="round"/>
</g>
<defs>
<clipPath id="clip0_226_2869">
<rect width="15" height="15" fill="white"/>
</clipPath>
</defs>
</svg>
