<svg width="24" height="24" viewBox="0 0 24 24" fill="none" xmlns="http://www.w3.org/2000/svg">
<path d="M20.3845 4.59919C19.3373 3.55191 17.9508 2.97952 16.4711 2.97952C14.9913 2.97952 13.6006 3.55615 12.5533 4.60343L12.0064 5.15038L11.4509 4.59495C10.4037 3.54767 9.0087 2.9668 7.52895 2.9668C6.05344 2.9668 4.66273 3.54343 3.61969 4.58647C2.57242 5.63374 1.99578 7.02445 2.00002 8.5042C2.00002 9.98395 2.5809 11.3704 3.62817 12.4177L11.5908 20.3804C11.7011 20.4906 11.8495 20.55 11.9936 20.55C12.1378 20.55 12.2862 20.4948 12.3964 20.3846L20.3761 12.4347C21.4233 11.3874 22 9.99667 22 8.51692C22.0042 7.03717 21.4318 5.64646 20.3845 4.59919ZM19.5705 11.6248L11.9936 19.172L4.43377 11.6121C3.60273 10.7811 3.14482 9.67867 3.14482 8.5042C3.14482 7.32973 3.59849 6.22734 4.42953 5.40054C5.25632 4.57375 6.35872 4.11583 7.52895 4.11583C8.70342 4.11583 9.81005 4.57375 10.6411 5.40478L11.5993 6.36302C11.824 6.58773 12.1844 6.58773 12.4092 6.36302L13.3589 5.41326C14.1899 4.58223 15.2966 4.12431 16.4668 4.12431C17.637 4.12431 18.7394 4.58223 19.5705 5.40902C20.4015 6.24006 20.8552 7.34245 20.8552 8.51692C20.8594 9.69139 20.4015 10.7938 19.5705 11.6248Z" fill="#2E323E"/>
</svg>
