<svg width="47" height="47" viewBox="0 0 47 47" fill="none" xmlns="http://www.w3.org/2000/svg">
<path d="M10.7707 41.125C12.3961 41.125 13.7082 39.8129 13.7082 38.1875V35.25H33.2915V38.1875C33.2915 39.8129 34.6036 41.125 36.229 41.125C37.8544 41.125 39.1665 39.8129 39.1665 38.1875V33.2917C39.1665 31.1375 37.404 29.375 35.2498 29.375H11.7498C9.59567 29.375 7.83317 31.1375 7.83317 33.2917V38.1875C7.83317 39.8129 9.14525 41.125 10.7707 41.125ZM39.1665 19.5833H41.1248C42.2019 19.5833 43.0832 20.4646 43.0832 21.5417V23.5C43.0832 24.5771 42.2019 25.4583 41.1248 25.4583H39.1665C38.0894 25.4583 37.2082 24.5771 37.2082 23.5V21.5417C37.2082 20.4646 38.0894 19.5833 39.1665 19.5833ZM5.87484 19.5833H7.83317C8.91025 19.5833 9.7915 20.4646 9.7915 21.5417V23.5C9.7915 24.5771 8.91025 25.4583 7.83317 25.4583H5.87484C4.79775 25.4583 3.9165 24.5771 3.9165 23.5V21.5417C3.9165 20.4646 4.79775 19.5833 5.87484 19.5833ZM33.2915 25.4583H13.7082V9.79167C13.7082 7.6375 15.4707 5.875 17.6248 5.875H29.3748C31.529 5.875 33.2915 7.6375 33.2915 9.79167V25.4583Z" fill="#E2A064"/>
</svg>
