<svg width="417" height="510" viewBox="0 0 417 510" fill="none" xmlns="http://www.w3.org/2000/svg">
<path d="M120.572 207.16C121.551 188.571 136.909 174 155.524 174H258.742C277.174 174 292.447 188.295 293.665 206.687L307 408H110L120.572 207.16Z" stroke="black" stroke-width="22"/>
<path d="M11 428C11 416.954 19.9543 408 31 408H386C397.046 408 406 416.954 406 428V439C406 472.137 379.137 499 346 499H71C37.8629 499 11 472.137 11 439V428Z" stroke="black" stroke-width="22"/>
<path d="M150 81H267V127H150V81Z" stroke="black" stroke-width="22"/>
<path d="M103 46C103 26.67 118.67 11 138 11H278C297.33 11 313 26.67 313 46V75C313 78.3137 310.314 81 307 81H109C105.686 81 103 78.3137 103 75V46Z" stroke="black" stroke-width="22"/>
<path d="M66.7036 181.644C67.9653 152.212 92.1936 129 121.653 129H291.471C320.661 129 344.767 151.804 346.386 180.949L359 408H57L66.7036 181.644Z" stroke="black" stroke-width="22"/>
</svg>
