<svg width="12" height="11" viewBox="0 0 12 11" fill="none" xmlns="http://www.w3.org/2000/svg">
<path d="M11.9908 4.40472C12.0507 4.11649 11.8109 3.77061 11.5111 3.77061L8.09376 3.30944L6.53496 0.31184C6.47501 0.196547 6.41505 0.138901 6.29514 0.0812546C5.99538 -0.091684 5.63565 0.0236085 5.45579 0.31184L3.95695 3.30944L0.539584 3.77061C0.359723 3.77061 0.239815 3.82826 0.179861 3.94355C-0.0599538 4.17414 -0.0599538 4.52001 0.179861 4.7506L2.63797 7.05645L2.03843 10.3423C2.03843 10.4576 2.03843 10.5729 2.09838 10.6882C2.27824 10.9764 2.63797 11.0917 2.93773 10.9187L5.99538 9.3623L9.05302 10.9187C9.11297 10.9764 9.23288 10.9764 9.35279 10.9764H9.47269C9.77246 10.9187 10.0123 10.6305 9.95232 10.2846L9.35279 6.9988L11.8109 4.69295C11.9308 4.63531 11.9908 4.52001 11.9908 4.40472Z" fill="#E2A064"/>
</svg>
