<svg width="60" height="60" viewBox="0 0 60 60" fill="none" xmlns="http://www.w3.org/2000/svg">
<path d="M15.4121 38.4225H24.7479V43.1067H34.2771V47.7908H43.6429V52.3775H15.4121V38.4225Z" fill="#2A384D"/>
<path d="M25.2053 29.3125L24.4578 31.9041C24.234 32.6262 23.8339 33.2812 23.2937 33.81L19.912 36.8766C19.6242 37.1172 19.2594 37.2461 18.8844 37.2398C18.5094 37.2336 18.1491 37.0925 17.8695 36.8425C17.708 36.5331 17.6453 36.1817 17.6897 35.8356C17.7341 35.4894 17.8835 35.1652 18.1178 34.9066L21.5878 31.0133L21.8537 29.2775L25.2053 29.3125Z" fill="#2A384D"/>
<path d="M22.1797 16.1875C23.0031 15.4309 24.0478 14.9588 25.1597 14.8408C27.0839 14.8408 27.5747 16.035 27.7297 17.3667L27.7556 19.4433V25.36L30.6614 29.4967C30.8472 30.2717 30.9022 31.0733 30.8239 31.8667L30.5114 39.5975C30.507 39.9359 30.3749 40.2601 30.1415 40.5052C29.9082 40.7503 29.5908 40.8982 29.2531 40.9192C29.0758 40.9239 28.8995 40.8928 28.7346 40.8277C28.5698 40.7625 28.4197 40.6648 28.2936 40.5403C28.1674 40.4157 28.0677 40.267 28.0005 40.103C27.9332 39.939 27.8998 39.7631 27.9022 39.5858L27.7031 31.2775L22.9572 26.5608C22.4492 25.8773 22.1764 25.0475 22.1797 24.1958V16.1875Z" fill="#2A384D"/>
<path d="M28.4365 13.1108C29.9396 13.1108 31.1582 11.8923 31.1582 10.3891C31.1582 8.88601 29.9396 7.66748 28.4365 7.66748C26.9334 7.66748 25.7148 8.88601 25.7148 10.3891C25.7148 11.8923 26.9334 13.1108 28.4365 13.1108Z" fill="#2A384D"/>
<path d="M25.2058 29.3125L24.4583 31.9042C24.2345 32.6263 23.8344 33.2813 23.2942 33.81L19.9125 36.8767C19.6247 37.1172 19.2599 37.2462 18.8849 37.2399C18.5099 37.2336 18.1496 37.0926 17.87 36.8425C17.7085 36.5332 17.6457 36.1817 17.6901 35.8356C17.7345 35.4895 17.884 35.1653 18.1183 34.9067L21.5883 31.0134L21.8542 29.2775M15.6875 38.4225H24.7483V43.1067H34.2775V47.7909H43.6433V51.8275" stroke="black" stroke-width="2" stroke-linecap="round" stroke-linejoin="round"/>
<path d="M27.7575 23.0642V25.36L30.6633 29.4967C30.8492 30.2717 30.9042 31.0733 30.8258 31.8667L30.5133 39.5975C30.5089 39.9359 30.3768 40.2601 30.1435 40.5052C29.9101 40.7503 29.5928 40.8982 29.255 40.9192C29.0778 40.9239 28.9015 40.8928 28.7366 40.8277C28.5717 40.7626 28.4217 40.6648 28.2955 40.5403C28.1694 40.4158 28.0697 40.267 28.0024 40.103C27.9352 39.939 27.9018 39.7631 27.9042 39.5858L27.705 31.2775L22.9592 26.5608C22.4512 25.8773 22.1784 25.0475 22.1817 24.1958V19.7" stroke="black" stroke-width="2" stroke-linecap="round" stroke-linejoin="round"/>
<path d="M33.5533 23.5484L27.7567 20.2684L27.7308 17.3667C27.5758 16.035 27.085 14.8409 25.1608 14.8409C22.4367 14.8409 19.0625 18.2575 19.0625 19.7442V24.9059M25.7158 10.3892C25.7157 9.85086 25.8752 9.32457 26.1741 8.87688C26.4731 8.4292 26.8981 8.08023 27.3954 7.8741C27.8927 7.66798 28.44 7.61396 28.968 7.71888C29.496 7.8238 29.981 8.08295 30.3617 8.46355C30.7424 8.84415 31.0017 9.3291 31.1068 9.85708C31.2119 10.3851 31.158 10.9323 30.9521 11.4297C30.7461 11.9271 30.3973 12.3522 29.9497 12.6513C29.5021 12.9504 28.9758 13.11 28.4375 13.11" stroke="black" stroke-width="2" stroke-linecap="round" stroke-linejoin="round"/>
</svg>
