<svg width="21" height="21" viewBox="0 0 21 21" fill="none" xmlns="http://www.w3.org/2000/svg">
<path d="M10.5 0C11.4639 0 12.3936 0.123047 13.2891 0.369141C14.1846 0.615234 15.0186 0.970703 15.791 1.43555C16.5635 1.90039 17.271 2.44727 17.9136 3.07617C18.5562 3.70508 19.1064 4.4126 19.5645 5.19873C20.0225 5.98486 20.3745 6.82227 20.6206 7.71094C20.8667 8.59961 20.9932 9.5293 21 10.5C21 11.4639 20.877 12.3936 20.6309 13.2891C20.3848 14.1846 20.0293 15.0186 19.5645 15.791C19.0996 16.5635 18.5527 17.271 17.9238 17.9136C17.2949 18.5562 16.5874 19.1064 15.8013 19.5645C15.0151 20.0225 14.1777 20.3745 13.2891 20.6206C12.4004 20.8667 11.4707 20.9932 10.5 21C9.53613 21 8.60645 20.877 7.71094 20.6309C6.81543 20.3848 5.98145 20.0293 5.20898 19.5645C4.43652 19.0996 3.729 18.5527 3.08643 17.9238C2.44385 17.2949 1.89355 16.5874 1.43555 15.8013C0.977539 15.0151 0.625488 14.1777 0.379395 13.2891C0.133301 12.4004 0.00683594 11.4707 0 10.5C0 9.53613 0.123047 8.60645 0.369141 7.71094C0.615234 6.81543 0.970703 5.98145 1.43555 5.20898C1.90039 4.43652 2.44727 3.729 3.07617 3.08643C3.70508 2.44385 4.4126 1.89355 5.19873 1.43555C5.98486 0.977539 6.82227 0.625488 7.71094 0.379395C8.59961 0.133301 9.5293 0.00683594 10.5 0ZM16.6831 7.02393L15.2886 5.62939L8.53125 12.3867L5.71143 9.56689L4.31689 10.9614L8.53125 15.1758L16.6831 7.02393Z" fill="#2BC605"/>
</svg>
