<svg width="276" height="297" viewBox="0 0 276 297" fill="none" xmlns="http://www.w3.org/2000/svg">
<g clip-path="url(#clip0_136_12018)">
<mask id="mask0_136_12018" style="mask-type:luminance" maskUnits="userSpaceOnUse" x="0" y="0" width="276" height="297">
<path d="M276 0H0V297H276V0Z" fill="white"/>
</mask>
<g mask="url(#mask0_136_12018)">
<mask id="mask1_136_12018" style="mask-type:luminance" maskUnits="userSpaceOnUse" x="-58" y="-62" width="392" height="421">
<path d="M138 -61.5107L333.161 148.5L138 358.511L-57.1615 148.5L138 -61.5107Z" fill="white"/>
</mask>
<g mask="url(#mask1_136_12018)">
<g opacity="0.01">
<path d="M97.6128 191.96C95.6167 189.813 95.6167 186.33 97.6128 184.182C99.6088 182.034 102.845 182.034 104.841 184.182C106.837 186.33 106.837 189.813 104.841 191.96C102.845 194.108 99.6088 194.108 97.6128 191.96Z" fill="#F72585"/>
</g>
<g opacity="0.01">
<path d="M178.388 191.96C176.391 194.108 173.155 194.108 171.159 191.96C169.163 189.813 169.163 186.33 171.159 184.182C173.155 182.034 176.391 182.034 178.388 184.182C180.384 186.33 180.384 189.813 178.388 191.96Z" fill="#4CC9F0"/>
</g>
<g opacity="0.01">
<path d="M178.387 105.039C180.383 107.187 180.383 110.67 178.387 112.818C176.391 114.965 173.155 114.965 171.159 112.818C169.163 110.67 169.163 107.187 171.159 105.039C173.155 102.891 176.391 102.891 178.387 105.039Z" fill="#4361EE"/>
</g>
<g opacity="0.01">
<path d="M178.388 191.96C176.391 194.108 173.155 194.108 171.159 191.96C169.163 189.813 169.163 186.33 171.159 184.182C173.155 182.034 176.391 182.034 178.388 184.182C180.384 186.33 180.384 189.813 178.388 191.96Z" fill="#3A0CA3"/>
</g>
<g opacity="0.01">
<path d="M97.6125 105.039C99.6085 102.891 102.845 102.891 104.841 105.039C106.837 107.187 106.837 110.67 104.841 112.818C102.845 114.966 99.6085 114.966 97.6125 112.818C95.6164 110.67 95.6164 107.187 97.6125 105.039Z" fill="#B5179E"/>
</g>
</g>
<mask id="mask2_136_12018" style="mask-type:luminance" maskUnits="userSpaceOnUse" x="0" y="0" width="276" height="297">
<path d="M0 0H276V297H0V0Z" fill="white"/>
</mask>
<g mask="url(#mask2_136_12018)">
<g opacity="0.01">
<path d="M138 209.962C135.177 209.962 132.889 207.5 132.889 204.462C132.889 201.425 135.177 198.962 138 198.962C140.823 198.962 143.111 201.425 143.111 204.462C143.111 207.5 140.823 209.962 138 209.962Z" fill="#F72585"/>
</g>
<g opacity="0.01">
<path d="M195.117 148.5C195.117 151.538 192.829 154 190.006 154C187.183 154 184.895 151.538 184.895 148.5C184.895 145.462 187.183 143 190.006 143C192.829 143 195.117 145.462 195.117 148.5Z" fill="#4CC9F0"/>
</g>
<g opacity="0.01">
<path d="M138 87.0375C140.823 87.0375 143.111 89.4998 143.111 92.5375C143.111 95.5751 140.823 98.0375 138 98.0375C135.177 98.0375 132.889 95.5751 132.889 92.5375C132.889 89.4998 135.177 87.0375 138 87.0375Z" fill="#4361EE"/>
</g>
<g opacity="0.01">
<path d="M195.117 148.5C195.117 151.538 192.829 154 190.006 154C187.183 154 184.895 151.538 184.895 148.5C184.895 145.462 187.183 143 190.006 143C192.829 143 195.117 145.462 195.117 148.5Z" fill="#3A0CA3"/>
</g>
<g opacity="0.01">
<path d="M80.8832 148.5C80.8832 145.462 83.1715 143 85.9944 143C88.8172 143 91.1055 145.462 91.1055 148.5C91.1055 151.538 88.8172 154 85.9944 154C83.1715 154 80.8832 151.538 80.8832 148.5Z" fill="#B5179E"/>
</g>
</g>
<mask id="mask3_136_12018" style="mask-type:luminance" maskUnits="userSpaceOnUse" x="-7" y="-7" width="290" height="311">
<path d="M74.3105 -6.71973L282.245 88.5744L201.69 303.72L-6.24433 208.426L74.3105 -6.71973Z" fill="white"/>
</mask>
<g mask="url(#mask3_136_12018)">
<g opacity="0.01">
<path d="M120.594 193.839C118.464 192.861 117.402 190.287 118.223 188.09C119.043 185.894 121.435 184.906 123.565 185.885C125.695 186.864 126.757 189.437 125.936 191.634C125.116 193.83 122.724 194.818 120.594 193.839Z" fill="#F72585"/>
</g>
<g opacity="0.01">
<path d="M180.295 167.405C179.474 169.601 177.082 170.589 174.952 169.61C172.822 168.631 171.761 166.058 172.581 163.861C173.401 161.664 175.793 160.677 177.923 161.656C180.053 162.634 181.115 165.208 180.295 167.405Z" fill="#4CC9F0"/>
</g>
<g opacity="0.01">
<path d="M155.408 103.161C157.538 104.139 158.6 106.713 157.779 108.91C156.959 111.106 154.567 112.094 152.437 111.115C150.307 110.136 149.245 107.563 150.066 105.366C150.886 103.17 153.278 102.182 155.408 103.161Z" fill="#4361EE"/>
</g>
<g opacity="0.01">
<path d="M180.295 167.405C179.474 169.601 177.082 170.589 174.952 169.61C172.822 168.631 171.761 166.058 172.581 163.861C173.401 161.664 175.793 160.677 177.923 161.656C180.053 162.634 181.115 165.208 180.295 167.405Z" fill="#3A0CA3"/>
</g>
<g opacity="0.01">
<path d="M95.7074 129.595C96.5278 127.399 98.9196 126.411 101.05 127.39C103.18 128.369 104.241 130.942 103.421 133.139C102.601 135.336 100.209 136.323 98.0787 135.344C95.9486 134.366 94.887 131.792 95.7074 129.595Z" fill="#B5179E"/>
</g>
</g>
<mask id="mask4_136_12018" style="mask-type:luminance" maskUnits="userSpaceOnUse" x="-7" y="-7" width="290" height="311">
<path d="M201.689 -6.71973L282.244 208.426L74.3101 303.72L-6.24476 88.5744L201.689 -6.71973Z" fill="white"/>
</mask>
<g mask="url(#mask4_136_12018)">
<g opacity="0.01">
<path d="M95.7051 167.404C94.8846 165.208 95.9462 162.634 98.0763 161.656C100.206 160.677 102.598 161.664 103.419 163.861C104.239 166.057 103.178 168.631 101.047 169.61C98.9174 170.588 96.5256 169.601 95.7051 167.404Z" fill="#F72585"/>
</g>
<g opacity="0.01">
<path d="M155.407 193.839C153.277 194.818 150.885 193.831 150.065 191.634C149.244 189.438 150.306 186.864 152.436 185.885C154.566 184.906 156.958 185.894 157.778 188.09C158.599 190.287 157.537 192.861 155.407 193.839Z" fill="#4CC9F0"/>
</g>
<g opacity="0.01">
<path d="M180.295 129.595C181.115 131.792 180.054 134.366 177.924 135.344C175.794 136.323 173.402 135.336 172.581 133.139C171.761 130.942 172.822 128.369 174.953 127.39C177.083 126.412 179.474 127.399 180.295 129.595Z" fill="#4361EE"/>
</g>
<g opacity="0.01">
<path d="M155.407 193.839C153.277 194.818 150.885 193.831 150.065 191.634C149.244 189.438 150.306 186.864 152.436 185.885C154.566 184.906 156.958 185.894 157.778 188.09C158.599 190.287 157.537 192.861 155.407 193.839Z" fill="#3A0CA3"/>
</g>
<g opacity="0.01">
<path d="M120.593 103.161C122.723 102.182 125.115 103.169 125.935 105.366C126.756 107.562 125.694 110.136 123.564 111.115C121.434 112.093 119.042 111.106 118.222 108.91C117.401 106.713 118.463 104.139 120.593 103.161Z" fill="#B5179E"/>
</g>
</g>
<path d="M138.721 105.893C141.47 108.582 145.526 109.264 149.068 107.633C154.769 105.007 161.151 108.488 162.218 114.805C162.881 118.73 165.701 121.798 169.411 122.632C175.383 123.974 178.47 130.798 175.772 136.691C174.096 140.352 174.603 144.635 177.064 147.616C181.026 152.414 179.639 159.973 174.206 163.191C170.831 165.191 168.83 169.052 169.103 173.042C169.542 179.462 164.21 184.87 158.118 184.184C154.333 183.759 150.59 185.723 148.57 189.197C145.318 194.788 138.078 195.979 133.653 191.651C130.904 188.962 126.848 188.281 123.306 189.912C117.606 192.538 111.223 189.057 110.156 182.74C109.493 178.815 106.673 175.747 102.963 174.913C96.9916 173.57 93.9043 166.747 96.6021 160.854C98.2785 157.192 97.7722 152.91 95.3105 149.929C91.3488 145.131 92.7359 137.572 98.1682 134.353C101.543 132.354 103.544 128.492 103.271 124.503C102.833 118.082 108.164 112.675 114.256 113.36C118.041 113.786 121.785 111.821 123.805 108.347C127.057 102.756 134.297 101.565 138.721 105.893Z" fill="#FF9500"/>
<mask id="mask5_136_12018" style="mask-type:alpha" maskUnits="userSpaceOnUse" x="121" y="136" width="31" height="25">
<path d="M131.974 160.077L122.372 149.745C121.707 149.028 121.707 147.867 122.372 147.151C123.038 146.434 124.117 146.434 124.783 147.151L131.974 154.889L148.17 137.46C148.836 136.744 149.915 136.744 150.581 137.46C151.247 138.177 151.246 139.338 150.581 140.054L131.974 160.077Z" fill="#FEFEFE"/>
</mask>
<g mask="url(#mask5_136_12018)">
<path d="M121.336 146.094L132.107 157.685C132.107 157.685 139.935 149.261 145.596 143.17" stroke="white" stroke-width="15.9049" stroke-linecap="round"/>
</g>
</g>
</g>
<defs>
<clipPath id="clip0_136_12018">
<rect width="276" height="297" fill="white"/>
</clipPath>
</defs>
</svg>
