<svg width="23" height="23" viewBox="0 0 23 23" fill="none" xmlns="http://www.w3.org/2000/svg">
<path d="M20.8438 10.0625C21.0344 10.0625 21.2172 9.98677 21.352 9.85198C21.4868 9.71719 21.5625 9.53437 21.5625 9.34375V5.75C21.5625 5.36875 21.411 5.00312 21.1415 4.73353C20.8719 4.46395 20.5062 4.3125 20.125 4.3125H2.875C2.49375 4.3125 2.12812 4.46395 1.85853 4.73353C1.58895 5.00312 1.4375 5.36875 1.4375 5.75V9.34375C1.4375 9.53437 1.51323 9.71719 1.64802 9.85198C1.78281 9.98677 1.96563 10.0625 2.15625 10.0625C2.5375 10.0625 2.90313 10.214 3.17272 10.4835C3.4423 10.7531 3.59375 11.1188 3.59375 11.5C3.59375 11.8812 3.4423 12.2469 3.17272 12.5165C2.90313 12.786 2.5375 12.9375 2.15625 12.9375C1.96563 12.9375 1.78281 13.0132 1.64802 13.148C1.51323 13.2828 1.4375 13.4656 1.4375 13.6562V17.25C1.4375 17.6312 1.58895 17.9969 1.85853 18.2665C2.12812 18.536 2.49375 18.6875 2.875 18.6875H20.125C20.5062 18.6875 20.8719 18.536 21.1415 18.2665C21.411 17.9969 21.5625 17.6312 21.5625 17.25V13.6562C21.5625 13.4656 21.4868 13.2828 21.352 13.148C21.2172 13.0132 21.0344 12.9375 20.8438 12.9375C20.4625 12.9375 20.0969 12.786 19.8273 12.5165C19.5577 12.2469 19.4062 11.8812 19.4062 11.5C19.4062 11.1188 19.5577 10.7531 19.8273 10.4835C20.0969 10.214 20.4625 10.0625 20.8438 10.0625ZM20.125 14.2816V17.25H15.0938V15.0938H13.6562V17.25H2.875V14.2816C3.49025 14.1208 4.03482 13.7605 4.42349 13.2572C4.81216 12.7539 5.023 12.1359 5.023 11.5C5.023 10.8641 4.81216 10.2461 4.42349 9.7428C4.03482 9.23949 3.49025 8.87924 2.875 8.71844V5.75H13.6562V7.90625H15.0938V5.75H20.125V8.71844C19.5098 8.87924 18.9652 9.23949 18.5765 9.7428C18.1878 10.2461 17.977 10.8641 17.977 11.5C17.977 12.1359 18.1878 12.7539 18.5765 13.2572C18.9652 13.7605 19.5098 14.1208 20.125 14.2816Z" fill="#2A384D"/>
<path d="M13.6562 9.34375H15.0938V13.6562H13.6562V9.34375Z" fill="#2A384D"/>
</svg>
