<svg width="15" height="15" viewBox="0 0 15 15" fill="none" xmlns="http://www.w3.org/2000/svg">
<g clip-path="url(#clip0_226_2865)">
<path d="M1.25 8.75V10C1.25 11.7675 1.25 12.6519 1.79937 13.2006C2.34812 13.75 3.2325 13.75 5 13.75H10M10 13.75C11.7675 13.75 12.6519 13.75 13.2006 13.2006C13.75 12.6519 13.75 11.7675 13.75 10V7.5C13.75 5.7325 13.75 4.84813 13.2006 4.29938C12.6519 3.75 11.7675 3.75 10 3.75M10 13.75V8.75M10 3.75H5C3.2325 3.75 2.34812 3.75 1.79937 4.29938C1.39812 4.7 1.29 5.27938 1.26062 6.25M10 3.75V6.25M5.625 1.25L7.5 3.4375L9.375 1.25" stroke="#26384F" stroke-width="1.5" stroke-linecap="round"/>
<path d="M12.5 10C12.5 9.83424 12.4342 9.67527 12.3169 9.55806C12.1997 9.44085 12.0408 9.375 11.875 9.375C11.7092 9.375 11.5503 9.44085 11.4331 9.55806C11.3158 9.67527 11.25 9.83424 11.25 10C11.25 10.1658 11.3158 10.3247 11.4331 10.4419C11.5503 10.5592 11.7092 10.625 11.875 10.625C12.0408 10.625 12.1997 10.5592 12.3169 10.4419C12.4342 10.3247 12.5 10.1658 12.5 10ZM12.5 7.5C12.5 7.33424 12.4342 7.17527 12.3169 7.05806C12.1997 6.94085 12.0408 6.875 11.875 6.875C11.7092 6.875 11.5503 6.94085 11.4331 7.05806C11.3158 7.17527 11.25 7.33424 11.25 7.5C11.25 7.66576 11.3158 7.82473 11.4331 7.94194C11.5503 8.05915 11.7092 8.125 11.875 8.125C12.0408 8.125 12.1997 8.05915 12.3169 7.94194C12.4342 7.82473 12.5 7.66576 12.5 7.5Z" fill="#26384F"/>
</g>
<defs>
<clipPath id="clip0_226_2865">
<rect width="15" height="15" fill="white"/>
</clipPath>
</defs>
</svg>
