<svg width="18" height="22" viewBox="0 0 18 22" fill="none" xmlns="http://www.w3.org/2000/svg">
<path d="M12.25 5.5H5.5M12.25 10H5.5M12.25 14.5H7.75M1 1H16.75V21.25L15.589 20.2555C15.1812 19.906 14.6619 19.7139 14.1248 19.7139C13.5878 19.7139 13.0684 19.906 12.6606 20.2555L11.4996 21.25L10.3398 20.2555C9.93189 19.9057 9.41231 19.7134 8.875 19.7134C8.33769 19.7134 7.81811 19.9057 7.41025 20.2555L6.25037 21.25L5.08938 20.2555C4.68159 19.906 4.16225 19.7139 3.62519 19.7139C3.08813 19.7139 2.56878 19.906 2.161 20.2555L1 21.25V1Z" stroke="#2E323E" stroke-linecap="round" stroke-linejoin="round"/>
</svg>
