<svg width="39" height="39" viewBox="0 0 39 39" fill="none" xmlns="http://www.w3.org/2000/svg">
<rect x="1.5" y="1.5" width="36" height="36" rx="3.5" stroke="#26384F" stroke-width="3"/>
<path d="M6 12.75C6 11.8549 6.35558 10.9964 6.98851 10.3635C7.62145 9.73058 8.47989 9.375 9.375 9.375H29.625C30.5201 9.375 31.3785 9.73058 32.0115 10.3635C32.6444 10.9964 33 11.8549 33 12.75V26.25C33 27.1451 32.6444 28.0035 32.0115 28.6365C31.3785 29.2694 30.5201 29.625 29.625 29.625H9.375C8.47989 29.625 7.62145 29.2694 6.98851 28.6365C6.35558 28.0035 6 27.1451 6 26.25V12.75ZM25.6864 15.9394C26.8372 15.9394 27.6084 16.7325 27.6894 17.8074H29.625V17.6218C29.5356 15.6188 27.897 14.2468 25.6729 14.2468C22.9661 14.2468 21.4238 16.0187 21.4238 18.8891V20.1497C21.4238 23.0184 22.9509 24.7566 25.6729 24.7566C27.8902 24.7566 29.5288 23.4201 29.625 21.4845V21.2921H27.6894C27.6084 22.3299 26.8507 23.064 25.6864 23.064C24.2706 23.064 23.4622 22.0178 23.4622 20.1497V18.8976C23.4622 17.0211 24.2858 15.9394 25.6864 15.9394ZM15.2441 17.502H15.3184L17.0396 24.5625H18.7372L21.1875 14.4392H19.1929L17.8091 21.7882H17.7146L16.0744 14.4392H14.4881L12.8479 21.7882H12.7584L11.3629 14.4392H9.375L11.8252 24.5625H13.5212L15.2441 17.502Z" fill="#26384F"/>
</svg>
