<svg width="15" height="15" viewBox="0 0 15 15" fill="none" xmlns="http://www.w3.org/2000/svg">
<path d="M10.1558 8.91515C9.42647 8.26682 8.48456 7.90869 7.50871 7.90869C6.53286 7.90869 5.59094 8.26682 4.86159 8.91515C4.79996 8.96847 4.74954 9.03352 4.71325 9.10649C4.67697 9.17947 4.65555 9.25893 4.65024 9.34026C4.64492 9.42158 4.65582 9.50315 4.68229 9.58023C4.70876 9.65731 4.75029 9.72836 4.80445 9.78926C4.85861 9.85016 4.92434 9.89969 4.9978 9.93497C5.07127 9.97026 5.15101 9.99059 5.2324 9.9948C5.31379 9.99901 5.39521 9.987 5.47192 9.95948C5.54863 9.93196 5.61911 9.88947 5.67926 9.83448C6.18335 9.38647 6.83431 9.13901 7.50871 9.13901C8.18311 9.13901 8.83406 9.38647 9.33815 9.83448C9.46014 9.94291 9.6202 9.99844 9.78314 9.98886C9.94607 9.97927 10.0985 9.90535 10.2069 9.78336C10.3154 9.66137 10.3709 9.5013 10.3613 9.33837C10.3517 9.17544 10.2778 9.02299 10.1558 8.91456V8.91515Z" fill="#26384F"/>
<path d="M7.50796 5.38184C5.85613 5.37956 4.26562 6.00739 3.0607 7.13731C2.99969 7.19196 2.95021 7.25824 2.91516 7.33226C2.8801 7.40628 2.86018 7.48655 2.85656 7.56838C2.85294 7.6502 2.86569 7.73192 2.89407 7.80875C2.92245 7.88558 2.96588 7.95597 3.02182 8.01579C3.07776 8.07561 3.14508 8.12366 3.21984 8.15712C3.29459 8.19058 3.37528 8.20878 3.45716 8.21065C3.53904 8.21252 3.62047 8.19802 3.69667 8.168C3.77288 8.13798 3.84232 8.09305 3.90093 8.03585C4.87929 7.12116 6.16862 6.61232 7.50796 6.61232C8.84731 6.61232 10.1366 7.12116 11.115 8.03585C11.1736 8.09305 11.243 8.13798 11.3193 8.168C11.3955 8.19802 11.4769 8.21252 11.5588 8.21065C11.6406 8.20878 11.7213 8.19058 11.7961 8.15712C11.8708 8.12366 11.9382 8.07561 11.9941 8.01579C12.05 7.95597 12.0935 7.88558 12.1219 7.80875C12.1502 7.73192 12.163 7.6502 12.1594 7.56838C12.1557 7.48655 12.1358 7.40628 12.1008 7.33226C12.0657 7.25824 12.0162 7.19196 11.9552 7.13731C10.7503 6.00739 9.1598 5.37956 7.50796 5.38184Z" fill="#26384F"/>
<path d="M13.5352 5.15214C11.8765 3.67217 9.73119 2.85425 7.50822 2.85425C5.28524 2.85425 3.13997 3.67217 1.48126 5.15214C1.41892 5.20539 1.36786 5.27057 1.33106 5.34383C1.29427 5.4171 1.27249 5.49698 1.267 5.57878C1.26152 5.66059 1.27244 5.74266 1.29912 5.82018C1.32581 5.89771 1.36772 5.96911 1.42239 6.03021C1.47706 6.09131 1.54339 6.14086 1.61749 6.17595C1.69158 6.21105 1.77194 6.23099 1.85385 6.23459C1.93576 6.23818 2.01756 6.22538 2.09445 6.19691C2.17133 6.16845 2.24176 6.12491 2.30158 6.06884C3.73467 4.79073 5.58783 4.08441 7.50807 4.08441C9.42831 4.08441 11.2815 4.79073 12.7146 6.06884C12.8362 6.17762 12.9961 6.23363 13.159 6.22453C13.3219 6.21544 13.4746 6.142 13.5834 6.02036C13.6921 5.89872 13.7481 5.73885 13.7391 5.57592C13.73 5.41298 13.6565 5.26034 13.5349 5.15156L13.5352 5.15214Z" fill="#26384F"/>
<path d="M7.5083 12.4631C8.02607 12.4631 8.4458 12.0434 8.4458 11.5256C8.4458 11.0079 8.02607 10.5881 7.5083 10.5881C6.99053 10.5881 6.5708 11.0079 6.5708 11.5256C6.5708 12.0434 6.99053 12.4631 7.5083 12.4631Z" fill="#26384F"/>
</svg>
